<svg class="mascot mascot--figure" role="img" aria-hidden="true" focusable="false" version="1.1" xmlns="http://www.w3.org/2000/svg" viewBox="0 0 400.6 435.8"><title>Course mascot holding a heart</title><defs></defs><g stroke-linecap="round" transform="translate(122.5 117) rotate(0 80.5 92)"><path d="M86.4 -0.1 C96.7 -0.9, 107 3, 116.9 9.2 C126.8 15.3, 139.2 26.7, 145.9 36.7 C152.6 46.8, 154.8 57.5, 157 69.4 C159.2 81.3, 160.4 96, 158.9 108.2 C157.4 120.4, 154.1 132.4, 148.2 142.6 C142.3 152.7, 132.9 162.5, 123.7 169.2 C114.5 175.8, 104 180.4, 93 182.3 C82.1 184.2, 68.8 183.6, 58 180.6 C47.1 177.5, 36.7 172.1, 28.1 164.2 C19.5 156.2, 11.3 144.5, 6.5 132.9 C1.8 121.3, -0.5 107.1, -0.6 94.8 C-0.8 82.4, 1.5 70, 5.5 58.7 C9.4 47.4, 15.2 35.4, 22.9 26.9 C30.6 18.3, 39.6 11.2, 51.6 7.1 C63.6 3.1, 87.1 2.9, 95 2.5 C102.8 2.2, 99 4, 98.7 5.1 M77.4 2.1 C87.4 0.7, 98.6 5.2, 109.1 9.1 C119.6 13, 132.3 17.1, 140.4 25.5 C148.4 33.9, 154.1 47.9, 157.4 59.6 C160.8 71.3, 161 83.2, 160.5 95.6 C160 108, 160 122.2, 154.7 134 C149.3 145.7, 136.9 158.5, 128.2 166.2 C119.5 174, 112.6 177.6, 102.5 180.3 C92.5 183.1, 79.6 184.9, 68 182.7 C56.4 180.4, 42 173.8, 32.9 166.8 C23.8 159.9, 18.1 150.9, 13.1 141.1 C8.1 131.2, 5 120.2, 3.1 107.8 C1.2 95.4, -1.1 78.7, 1.6 66.4 C4.4 54.2, 12.2 43.1, 19.7 34.1 C27.3 25.1, 37.2 17.8, 46.8 12.4 C56.4 6.9, 72.6 3.7, 77.4 1.6 C82.2 -0.4, 75.9 -1.6, 75.7 -0.1" stroke="none" stroke-width="0" fill="#d5d5d5"></path><path d="M117.3 10.6 C127 14.8, 137.3 24.6, 144.1 34.6 C150.9 44.6, 156 58, 158.3 70.5 C160.5 82.9, 159.8 96.8, 157.7 109.2 C155.5 121.7, 151.6 134.9, 145.4 145 C139.3 155.1, 129.5 163.3, 120.7 169.6 C111.9 176, 103 181.4, 92.6 183.2 C82.1 185.1, 68.8 184.3, 57.9 180.5 C47 176.7, 35.2 168.6, 27 160.5 C18.8 152.5, 13.2 143.1, 8.9 132.3 C4.6 121.4, 1.4 107.9, 1.2 95.4 C1.1 82.9, 3.9 69, 8 57.1 C12 45.2, 17.9 33.1, 25.6 24.2 C33.3 15.3, 43.8 7.9, 54.1 3.7 C64.5 -0.4, 76.3 -2.6, 87.8 -0.7 C99.3 1.3, 116.7 12.3, 123.2 15.4 C129.6 18.5, 127.3 16.5, 126.6 17.9 M64.4 0.8 C73.9 -3.5, 83.1 -1.4, 93.6 1.6 C104.1 4.5, 118.2 11.6, 127.2 18.6 C136.2 25.6, 142.7 33.4, 147.8 43.6 C152.8 53.7, 155.9 66.5, 157.5 79.5 C159.1 92.4, 159.6 108.8, 157.2 121.3 C154.7 133.8, 150 146, 142.8 154.6 C135.6 163.1, 124.2 168.2, 113.8 172.7 C103.4 177.1, 91.5 180.2, 80.6 181.2 C69.6 182.2, 57.7 183.1, 48.2 178.6 C38.8 174.1, 30.9 163.7, 23.7 154.1 C16.5 144.6, 8.8 132.9, 5 121.5 C1.2 110, 0.3 98.2, 0.7 85.6 C1.2 73, 2.6 57.5, 7.7 45.9 C12.8 34.4, 22 23.3, 31.3 16.5 C40.6 9.7, 58.9 6.8, 63.6 5 C68.3 3.2, 60 5, 59.7 5.9" stroke="#000000" stroke-width="4" fill="none"></path></g><g transform="translate(196.5 112) rotate(0 -34.5 -35)" stroke="none"><path fill="#1e1e1e" d="M -1.7,0.5 Q -1.7,0.5 -2.5,-2.4 -3.3,-5.3 -4.2,-8.8 -5.1,-12.4 -6,-15.6 -7,-18.8 -8.2,-21.8 -9.4,-24.9 -10.5,-27.3 -11.6,-29.8 -12.9,-32.5 -14.3,-35.3 -15.1,-37.4 -16,-39.5 -16.9,-41.1 -17.9,-42.8 -18.6,-43.7 -19.4,-44.6 -20.3,-45.8 -21.2,-47.1 -22.3,-48 -23.4,-49 -25.1,-50.7 -26.7,-52.4 -27.6,-52.9 -28.6,-53.4 -31.3,-55.4 -34,-57.4 -35.1,-57.9 -36.2,-58.3 -39.8,-60.1 -43.4,-61.8 -46,-63.2 -48.7,-64.6 -50.1,-65 -51.5,-65.5 -53.5,-66 -55.4,-66.6 -56.5,-66.7 -57.6,-66.8 -59.2,-66.9 -60.7,-66.9 -62.4,-67.2 -64.1,-67.6 -66.4,-67.7 -68.6,-67.9 -69,-68 -69.3,-68 -69.6,-68.2 -69.9,-68.4 -70.1,-68.7 -70.3,-68.9 -70.4,-69.2 -70.5,-69.5 -70.5,-69.9 -70.6,-70.2 -70.5,-70.5 -70.4,-70.9 -70.2,-71.2 -70,-71.4 -69.7,-71.6 -69.4,-71.8 -69.1,-71.9 -68.8,-72 -68.5,-72 -68.1,-72 -67.8,-71.9 -67.5,-71.8 -67.2,-71.6 -66.9,-71.4 -66.8,-71.1 -66.6,-70.8 -66.5,-70.5 -66.4,-70.2 -66.4,-69.8 -66.5,-69.5 -66.6,-69.2 -66.7,-68.8 -66.9,-68.6 -67.2,-68.3 -67.5,-68.2 -67.7,-68 -68.1,-67.9 -68.4,-67.9 -68.8,-67.9 -69.1,-68 -69.4,-68.1 -69.7,-68.2 -69.9,-68.5 -70.2,-68.7 -70.3,-69 -70.5,-69.3 -70.5,-69.7 -70.6,-70 -70.5,-70.3 -70.5,-70.7 -70.3,-71 -70.1,-71.3 -69.9,-71.5 -69.6,-71.7 -69.3,-71.8 -69,-72 -68.7,-72 -68.3,-72 -68.3,-72 -68.3,-72 -65.8,-71.8 -63.3,-71.5 -61.9,-71.1 -60.5,-70.8 -58.7,-70.7 -56.9,-70.5 -55.7,-70.2 -54.5,-69.9 -52.4,-69.4 -50.2,-68.9 -48.8,-68.2 -47.3,-67.6 -44.5,-66.4 -41.8,-65.2 -38.1,-63.5 -34.4,-61.9 -33.2,-61.2 -31.9,-60.5 -29.2,-58.5 -26.4,-56.5 -25.4,-55.7 -24.3,-54.8 -22.6,-53.2 -20.9,-51.7 -19.6,-50.4 -18.2,-49.1 -17.4,-47.7 -16.6,-46.4 -16,-45.3 -15.4,-44.1 -14.4,-42.3 -13.5,-40.5 -12.6,-38.5 -11.8,-36.5 -10.4,-33.7 -9.1,-30.9 -7.9,-28.4 -6.8,-26 -5.5,-22.8 -4.1,-19.7 -3.1,-16.4 -2.1,-13.2 -1.1,-9.7 -0.2,-6.2 0.7,-3.4 1.7,-0.5 1.7,-0.3 1.7,-0.1 1.7,0.1 1.7,0.3 1.6,0.5 1.6,0.7 1.5,0.9 1.4,1.1 1.2,1.2 1.1,1.4 0.9,1.5 0.7,1.6 0.5,1.6 0.3,1.7 0.1,1.7 -0.1,1.7 -0.3,1.7 -0.5,1.6 -0.7,1.6 -0.9,1.5 -1.1,1.3 -1.2,1.2 -1.4,1 -1.5,0.9 -1.6,0.7 -1.7,0.5 -1.7,0.5 L -1.7,0.5 Z"></path></g><g stroke-linecap="round" transform="translate(106.5 28) rotate(0 10.5 12.5)"><path d="M21 12.5 C21 13.2, 20.9 14, 20.8 14.7 C20.7 15.4, 20.6 16.1, 20.4 16.8 C20.2 17.5, 19.9 18.1, 19.6 18.8 C19.3 19.4, 18.9 20, 18.5 20.5 C18.1 21.1, 17.7 21.6, 17.2 22.1 C16.8 22.5, 16.3 23, 15.8 23.3 C15.2 23.7, 14.7 24, 14.1 24.2 C13.5 24.5, 12.9 24.7, 12.3 24.8 C11.7 24.9, 11.1 25, 10.5 25 C9.9 25, 9.3 24.9, 8.7 24.8 C8.1 24.7, 7.5 24.5, 6.9 24.2 C6.3 24, 5.8 23.7, 5.2 23.3 C4.7 23, 4.2 22.5, 3.8 22.1 C3.3 21.6, 2.9 21.1, 2.5 20.5 C2.1 20, 1.7 19.4, 1.4 18.8 C1.1 18.1, 0.8 17.5, 0.6 16.8 C0.4 16.1, 0.3 15.4, 0.2 14.7 C0.1 14, 0 13.2, 0 12.5 C0 11.8, 0.1 11, 0.2 10.3 C0.3 9.6, 0.4 8.9, 0.6 8.2 C0.8 7.5, 1.1 6.9, 1.4 6.2 C1.7 5.6, 2.1 5, 2.5 4.5 C2.9 3.9, 3.3 3.4, 3.8 2.9 C4.2 2.5, 4.7 2, 5.2 1.7 C5.8 1.3, 6.3 1, 6.9 0.8 C7.5 0.5, 8.1 0.3, 8.7 0.2 C9.3 0.1, 9.9 0, 10.5 0 C11.1 0, 11.7 0.1, 12.3 0.2 C12.9 0.3, 13.5 0.5, 14.1 0.8 C14.7 1, 15.2 1.3, 15.8 1.7 C16.3 2, 16.8 2.5, 17.2 2.9 C17.7 3.4, 18.1 3.9, 18.5 4.5 C18.9 5, 19.3 5.6, 19.6 6.2 C19.9 6.9, 20.2 7.5, 20.4 8.2 C20.6 8.9, 20.7 9.6, 20.8 10.3 C20.9 11, 21 12.1, 21 12.5 C21 12.9, 21 12.1, 21 12.5" stroke="none" stroke-width="0" fill="#b2f2bb"></path><path d="M21 12.5 C21 13.2, 20.9 14, 20.8 14.7 C20.7 15.4, 20.6 16.1, 20.4 16.8 C20.2 17.5, 19.9 18.1, 19.6 18.8 C19.3 19.4, 18.9 20, 18.5 20.5 C18.1 21.1, 17.7 21.6, 17.2 22.1 C16.8 22.5, 16.3 23, 15.8 23.3 C15.2 23.7, 14.7 24, 14.1 24.2 C13.5 24.5, 12.9 24.7, 12.3 24.8 C11.7 24.9, 11.1 25, 10.5 25 C9.9 25, 9.3 24.9, 8.7 24.8 C8.1 24.7, 7.5 24.5, 6.9 24.2 C6.3 24, 5.8 23.7, 5.2 23.3 C4.7 23, 4.2 22.5, 3.8 22.1 C3.3 21.6, 2.9 21.1, 2.5 20.5 C2.1 20, 1.7 19.4, 1.4 18.8 C1.1 18.1, 0.8 17.5, 0.6 16.8 C0.4 16.1, 0.3 15.4, 0.2 14.7 C0.1 14, 0 13.2, 0 12.5 C0 11.8, 0.1 11, 0.2 10.3 C0.3 9.6, 0.4 8.9, 0.6 8.2 C0.8 7.5, 1.1 6.9, 1.4 6.2 C1.7 5.6, 2.1 5, 2.5 4.5 C2.9 3.9, 3.3 3.4, 3.8 2.9 C4.2 2.5, 4.7 2, 5.2 1.7 C5.8 1.3, 6.3 1, 6.9 0.8 C7.5 0.5, 8.1 0.3, 8.7 0.2 C9.3 0.1, 9.9 0, 10.5 0 C11.1 0, 11.7 0.1, 12.3 0.2 C12.9 0.3, 13.5 0.5, 14.1 0.8 C14.7 1, 15.2 1.3, 15.8 1.7 C16.3 2, 16.8 2.5, 17.2 2.9 C17.7 3.4, 18.1 3.9, 18.5 4.5 C18.9 5, 19.3 5.6, 19.6 6.2 C19.9 6.9, 20.2 7.5, 20.4 8.2 C20.6 8.9, 20.7 9.6, 20.8 10.3 C20.9 11, 21 12.1, 21 12.5 C21 12.9, 21 12.1, 21 12.5" stroke="#1e1e1e" stroke-width="2" fill="none"></path></g><g stroke-linecap="round"><g transform="translate(203.5 299) rotate(0 1.8 62.9)"><path d="M-0.5 -0.3 C-0 20.8, 1.9 104.6, 2.5 125.5 M1.5 -1.5 C2.3 19.9, 4.5 105.6, 4.7 126.8" stroke="#1e1e1e" stroke-width="4" fill="none"></path></g></g><mask></mask><g transform="translate(209.5 106) rotate(0 25 -40)" stroke="none"><path fill="#1e1e1e" d="M -1.6,-0.3 Q -1.6,-0.3 -0.9,-3.2 -0.3,-6 0.2,-7.9 0.7,-9.8 1.6,-12 2.4,-14.2 3.3,-16.9 4.3,-19.5 5.3,-22.1 6.2,-24.7 7.2,-27.2 8.2,-29.8 9.6,-32.6 10.9,-35.4 12,-37.5 13.2,-39.6 14.2,-41.9 15.2,-44.1 15.9,-45.7 16.6,-47.3 17.4,-49.1 18.3,-51 19,-52.8 19.6,-54.6 20.8,-56.7 22.1,-58.8 23.5,-60.6 24.9,-62.4 26.4,-64 27.9,-65.6 29,-66.9 30.1,-68.2 31.2,-69.2 32.4,-70.2 33.4,-70.9 34.5,-71.7 35.5,-72.3 36.5,-73 37.9,-74.4 39.2,-75.8 40.8,-76.8 42.4,-77.7 43.4,-78.6 44.4,-79.4 46.4,-80.9 48.5,-82.4 48.9,-82.5 49.4,-82.6 49.8,-82.6 50.3,-82.6 50.7,-82.4 51.1,-82.3 51.5,-82 51.8,-81.7 52,-81.3 52.3,-80.9 52.4,-80.5 52.5,-80.1 52.5,-79.6 52.4,-79.2 52.2,-78.8 52,-78.3 51.8,-78 51.5,-77.7 51,-77.5 50.7,-77.2 50.2,-77.2 49.8,-77.1 49.3,-77.1 48.9,-77.2 48.5,-77.4 48.1,-77.6 47.8,-77.9 47.4,-78.3 47.2,-78.7 47,-79.1 47,-79.5 46.9,-80 47,-80.4 47.1,-80.8 47.3,-81.2 47.6,-81.6 47.9,-81.9 48.2,-82.2 48.7,-82.4 49.1,-82.6 49.5,-82.6 50,-82.6 50.4,-82.5 50.9,-82.4 51.2,-82.2 51.6,-81.9 51.9,-81.6 52.2,-81.2 52.3,-80.8 52.5,-80.4 52.5,-79.9 52.5,-79.5 52.3,-79 52.2,-78.6 51.9,-78.2 51.7,-77.9 51.3,-77.6 50.9,-77.3 50.9,-77.3 50.9,-77.3 48.6,-75.7 46.4,-74 45.4,-73.5 44.4,-73 42.9,-72.4 41.4,-71.9 40,-70.6 38.5,-69.4 37.5,-68.9 36.5,-68.4 35.5,-67.9 34.4,-67.4 33.4,-66.8 32.4,-66.1 31.1,-64.9 29.9,-63.7 28.5,-62.2 27.1,-60.6 25.8,-59 24.6,-57.4 23.5,-55.5 22.4,-53.7 21.7,-51.7 21,-49.7 20.1,-47.9 19.3,-46.1 18.5,-44.5 17.7,-43 16.6,-40.7 15.5,-38.3 14.4,-36.3 13.3,-34.3 12.1,-31.5 10.8,-28.8 9.9,-26.2 8.9,-23.7 8,-21.1 7,-18.6 6.1,-15.9 5.2,-13.2 4.5,-11.1 3.7,-8.9 3.2,-7.2 2.6,-5.5 2.1,-2.6 1.6,0.3 1.5,0.5 1.4,0.7 1.3,0.8 1.2,1 1.1,1.1 0.9,1.3 0.8,1.4 0.6,1.4 0.4,1.5 0.3,1.6 0.1,1.6 -0.1,1.6 -0.3,1.5 -0.5,1.5 -0.7,1.4 -0.8,1.3 -1,1.2 -1.1,1.1 -1.2,0.9 -1.4,0.8 -1.4,0.6 -1.5,0.4 -1.6,0.2 -1.6,0.1 -1.6,-0.1 -1.6,-0.3 -1.6,-0.3 L -1.6,-0.3 Z"></path></g><g stroke-linecap="round" transform="translate(257.5 10) rotate(0 11 12)"><path d="M22 12 C22 12.7, 21.9 13.4, 21.8 14.1 C21.7 14.8, 21.6 15.4, 21.3 16.1 C21.1 16.8, 20.8 17.4, 20.5 18 C20.2 18.6, 19.8 19.2, 19.4 19.7 C19 20.2, 18.6 20.8, 18.1 21.2 C17.6 21.6, 17.1 22.1, 16.5 22.4 C15.9 22.7, 15.4 23, 14.8 23.3 C14.2 23.5, 13.5 23.7, 12.9 23.8 C12.3 23.9, 11.6 24, 11 24 C10.4 24, 9.7 23.9, 9.1 23.8 C8.5 23.7, 7.8 23.5, 7.2 23.3 C6.6 23, 6 22.7, 5.5 22.4 C5 22.1, 4.4 21.6, 3.9 21.2 C3.4 20.8, 3 20.2, 2.6 19.7 C2.2 19.2, 1.8 18.6, 1.5 18 C1.2 17.4, 0.9 16.8, 0.7 16.1 C0.5 15.4, 0.3 14.8, 0.2 14.1 C0.1 13.4, 0 12.7, 0 12 C0 11.3, 0.1 10.6, 0.2 9.9 C0.3 9.2, 0.5 8.6, 0.7 7.9 C0.9 7.2, 1.2 6.6, 1.5 6 C1.8 5.4, 2.2 4.8, 2.6 4.3 C3 3.8, 3.4 3.2, 3.9 2.8 C4.4 2.4, 5 1.9, 5.5 1.6 C6 1.3, 6.6 1, 7.2 0.7 C7.8 0.5, 8.5 0.3, 9.1 0.2 C9.7 0.1, 10.4 0, 11 0 C11.6 0, 12.3 0.1, 12.9 0.2 C13.5 0.3, 14.2 0.5, 14.8 0.7 C15.4 1, 15.9 1.3, 16.5 1.6 C17.1 1.9, 17.6 2.4, 18.1 2.8 C18.6 3.2, 19 3.8, 19.4 4.3 C19.8 4.8, 20.2 5.4, 20.5 6 C20.8 6.6, 21.1 7.2, 21.3 7.9 C21.6 8.6, 21.7 9.2, 21.8 9.9 C21.9 10.6, 22 11.7, 22 12 C22 12.3, 22 11.7, 22 12" stroke="none" stroke-width="0" fill="#ffc9c9"></path><path d="M22 12 C22 12.7, 21.9 13.4, 21.8 14.1 C21.7 14.8, 21.6 15.4, 21.3 16.1 C21.1 16.8, 20.8 17.4, 20.5 18 C20.2 18.6, 19.8 19.2, 19.4 19.7 C19 20.2, 18.6 20.8, 18.1 21.2 C17.6 21.6, 17.1 22.1, 16.5 22.4 C15.9 22.7, 15.4 23, 14.8 23.3 C14.2 23.5, 13.5 23.7, 12.9 23.8 C12.3 23.9, 11.6 24, 11 24 C10.4 24, 9.7 23.9, 9.1 23.8 C8.5 23.7, 7.8 23.5, 7.2 23.3 C6.6 23, 6 22.7, 5.5 22.4 C5 22.1, 4.4 21.6, 3.9 21.2 C3.4 20.8, 3 20.2, 2.6 19.7 C2.2 19.2, 1.8 18.6, 1.5 18 C1.2 17.4, 0.9 16.8, 0.7 16.1 C0.5 15.4, 0.3 14.8, 0.2 14.1 C0.1 13.4, 0 12.7, 0 12 C0 11.3, 0.1 10.6, 0.2 9.9 C0.3 9.2, 0.5 8.6, 0.7 7.9 C0.9 7.2, 1.2 6.6, 1.5 6 C1.8 5.4, 2.2 4.8, 2.6 4.3 C3 3.8, 3.4 3.2, 3.9 2.8 C4.4 2.4, 5 1.9, 5.5 1.6 C6 1.3, 6.6 1, 7.2 0.7 C7.8 0.5, 8.5 0.3, 9.1 0.2 C9.7 0.1, 10.4 0, 11 0 C11.6 0, 12.3 0.1, 12.9 0.2 C13.5 0.3, 14.2 0.5, 14.8 0.7 C15.4 1, 15.9 1.3, 16.5 1.6 C17.1 1.9, 17.6 2.4, 18.1 2.8 C18.6 3.2, 19 3.8, 19.4 4.3 C19.8 4.8, 20.2 5.4, 20.5 6 C20.8 6.6, 21.1 7.2, 21.3 7.9 C21.6 8.6, 21.7 9.2, 21.8 9.9 C21.9 10.6, 22 11.7, 22 12 C22 12.3, 22 11.7, 22 12" stroke="#1e1e1e" stroke-width="2" fill="none"></path></g><g stroke-linecap="round" transform="translate(227.4 181) rotate(0 15 16.5)"><path d="M30 16.5 C30 17.5, 29.9 18.4, 29.8 19.4 C29.6 20.3, 29.4 21.2, 29.1 22.1 C28.8 23, 28.4 23.9, 28 24.8 C27.6 25.6, 27.1 26.4, 26.5 27.1 C25.9 27.8, 25.3 28.5, 24.6 29.1 C24 29.8, 23.2 30.3, 22.5 30.8 C21.8 31.3, 20.9 31.7, 20.1 32 C19.3 32.3, 18.5 32.6, 17.6 32.8 C16.8 32.9, 15.9 33, 15 33 C14.1 33, 13.2 32.9, 12.4 32.8 C11.5 32.6, 10.7 32.3, 9.9 32 C9.1 31.7, 8.2 31.3, 7.5 30.8 C6.8 30.3, 6 29.8, 5.4 29.1 C4.7 28.5, 4.1 27.8, 3.5 27.1 C3 26.4, 2.4 25.6, 2 24.8 C1.6 23.9, 1.2 23, 0.9 22.1 C0.6 21.2, 0.4 20.3, 0.2 19.4 C0.1 18.4, 0 17.5, 0 16.5 C0 15.5, 0.1 14.6, 0.2 13.6 C0.4 12.7, 0.6 11.8, 0.9 10.9 C1.2 10, 1.6 9.1, 2 8.2 C2.4 7.4, 3 6.6, 3.5 5.9 C4.1 5.2, 4.7 4.5, 5.4 3.9 C6 3.2, 6.8 2.7, 7.5 2.2 C8.2 1.7, 9.1 1.3, 9.9 1 C10.7 0.7, 11.5 0.4, 12.4 0.2 C13.2 0.1, 14.1 0, 15 0 C15.9 0, 16.8 0.1, 17.6 0.2 C18.5 0.4, 19.3 0.7, 20.1 1 C20.9 1.3, 21.8 1.7, 22.5 2.2 C23.2 2.7, 24 3.2, 24.6 3.9 C25.3 4.5, 25.9 5.2, 26.5 5.9 C27.1 6.6, 27.6 7.4, 28 8.2 C28.4 9.1, 28.8 10, 29.1 10.9 C29.4 11.8, 29.6 12.7, 29.8 13.6 C29.9 14.6, 30 16, 30 16.5 C30 17, 30 16, 30 16.5" stroke="none" stroke-width="0" fill="#ffffff"></path><path d="M30 16.5 C30 17.5, 29.9 18.4, 29.8 19.4 C29.6 20.3, 29.4 21.2, 29.1 22.1 C28.8 23, 28.4 23.9, 28 24.8 C27.6 25.6, 27.1 26.4, 26.5 27.1 C25.9 27.8, 25.3 28.5, 24.6 29.1 C24 29.8, 23.2 30.3, 22.5 30.8 C21.8 31.3, 20.9 31.7, 20.1 32 C19.3 32.3, 18.5 32.6, 17.6 32.8 C16.8 32.9, 15.9 33, 15 33 C14.1 33, 13.2 32.9, 12.4 32.8 C11.5 32.6, 10.7 32.3, 9.9 32 C9.1 31.7, 8.2 31.3, 7.5 30.8 C6.8 30.3, 6 29.8, 5.4 29.1 C4.7 28.5, 4.1 27.8, 3.5 27.1 C3 26.4, 2.4 25.6, 2 24.8 C1.6 23.9, 1.2 23, 0.9 22.1 C0.6 21.2, 0.4 20.3, 0.2 19.4 C0.1 18.4, 0 17.5, 0 16.5 C0 15.5, 0.1 14.6, 0.2 13.6 C0.4 12.7, 0.6 11.8, 0.9 10.9 C1.2 10, 1.6 9.1, 2 8.2 C2.4 7.4, 3 6.6, 3.5 5.9 C4.1 5.2, 4.7 4.5, 5.4 3.9 C6 3.2, 6.8 2.7, 7.5 2.2 C8.2 1.7, 9.1 1.3, 9.9 1 C10.7 0.7, 11.5 0.4, 12.4 0.2 C13.2 0.1, 14.1 0, 15 0 C15.9 0, 16.8 0.1, 17.6 0.2 C18.5 0.4, 19.3 0.7, 20.1 1 C20.9 1.3, 21.8 1.7, 22.5 2.2 C23.2 2.7, 24 3.2, 24.6 3.9 C25.3 4.5, 25.9 5.2, 26.5 5.9 C27.1 6.6, 27.6 7.4, 28 8.2 C28.4 9.1, 28.8 10, 29.1 10.9 C29.4 11.8, 29.6 12.7, 29.8 13.6 C29.9 14.6, 30 16, 30 16.5 C30 17, 30 16, 30 16.5" stroke="#1e1e1e" stroke-width="2" fill="none"></path></g><g stroke-linecap="round" transform="translate(241.8 195.3) rotate(0 4.3 4.4)"><path d="M8.5 4.4 C8.5 4.7, 8.5 5, 8.5 5.2 C8.4 5.5, 8.4 5.7, 8.3 6 C8.2 6.2, 8.1 6.4, 8 6.7 C7.8 6.9, 7.7 7.1, 7.5 7.3 C7.4 7.5, 7.2 7.7, 7 7.8 C6.8 8, 6.6 8.2, 6.4 8.3 C6.2 8.4, 6 8.5, 5.7 8.6 C5.5 8.7, 5.3 8.8, 5 8.8 C4.8 8.8, 4.5 8.9, 4.3 8.9 C4 8.9, 3.8 8.8, 3.5 8.8 C3.3 8.8, 3 8.7, 2.8 8.6 C2.6 8.5, 2.4 8.4, 2.1 8.3 C1.9 8.2, 1.7 8, 1.5 7.8 C1.3 7.7, 1.2 7.5, 1 7.3 C0.8 7.1, 0.7 6.9, 0.6 6.7 C0.5 6.4, 0.3 6.2, 0.3 6 C0.2 5.7, 0.1 5.5, 0.1 5.2 C0 5, 0 4.7, 0 4.4 C0 4.2, 0 3.9, 0.1 3.7 C0.1 3.4, 0.2 3.2, 0.3 2.9 C0.3 2.7, 0.5 2.4, 0.6 2.2 C0.7 2, 0.8 1.8, 1 1.6 C1.2 1.4, 1.3 1.2, 1.5 1 C1.7 0.9, 1.9 0.7, 2.1 0.6 C2.4 0.5, 2.6 0.4, 2.8 0.3 C3 0.2, 3.3 0.1, 3.5 0.1 C3.8 0, 4 0, 4.3 0 C4.5 0, 4.8 0, 5 0.1 C5.3 0.1, 5.5 0.2, 5.7 0.3 C6 0.4, 6.2 0.5, 6.4 0.6 C6.6 0.7, 6.8 0.9, 7 1 C7.2 1.2, 7.4 1.4, 7.5 1.6 C7.7 1.8, 7.8 2, 8 2.2 C8.1 2.4, 8.2 2.7, 8.3 2.9 C8.4 3.2, 8.4 3.4, 8.5 3.7 C8.5 3.9, 8.5 4.3, 8.5 4.4 C8.6 4.6, 8.6 4.3, 8.5 4.4" stroke="none" stroke-width="0" fill="#000000"></path><path d="M8.5 4.4 C8.5 4.7, 8.5 5, 8.5 5.2 C8.4 5.5, 8.4 5.7, 8.3 6 C8.2 6.2, 8.1 6.4, 8 6.7 C7.8 6.9, 7.7 7.1, 7.5 7.3 C7.4 7.5, 7.2 7.7, 7 7.8 C6.8 8, 6.6 8.2, 6.4 8.3 C6.2 8.4, 6 8.5, 5.7 8.6 C5.5 8.7, 5.3 8.8, 5 8.8 C4.8 8.8, 4.5 8.9, 4.3 8.9 C4 8.9, 3.8 8.8, 3.5 8.8 C3.3 8.8, 3 8.7, 2.8 8.6 C2.6 8.5, 2.4 8.4, 2.1 8.3 C1.9 8.2, 1.7 8, 1.5 7.8 C1.3 7.7, 1.2 7.5, 1 7.3 C0.8 7.1, 0.7 6.9, 0.6 6.7 C0.5 6.4, 0.3 6.2, 0.3 6 C0.2 5.7, 0.1 5.5, 0.1 5.2 C0 5, 0 4.7, 0 4.4 C0 4.2, 0 3.9, 0.1 3.7 C0.1 3.4, 0.2 3.2, 0.3 2.9 C0.3 2.7, 0.5 2.4, 0.6 2.2 C0.7 2, 0.8 1.8, 1 1.6 C1.2 1.4, 1.3 1.2, 1.5 1 C1.7 0.9, 1.9 0.7, 2.1 0.6 C2.4 0.5, 2.6 0.4, 2.8 0.3 C3 0.2, 3.3 0.1, 3.5 0.1 C3.8 0, 4 0, 4.3 0 C4.5 0, 4.8 0, 5 0.1 C5.3 0.1, 5.5 0.2, 5.7 0.3 C6 0.4, 6.2 0.5, 6.4 0.6 C6.6 0.7, 6.8 0.9, 7 1 C7.2 1.2, 7.4 1.4, 7.5 1.6 C7.7 1.8, 7.8 2, 8 2.2 C8.1 2.4, 8.2 2.7, 8.3 2.9 C8.4 3.2, 8.4 3.4, 8.5 3.7 C8.5 3.9, 8.5 4.3, 8.5 4.4 C8.6 4.6, 8.6 4.3, 8.5 4.4" stroke="#000000" stroke-width="2" fill="none"></path></g><g stroke-linecap="round"><g transform="translate(187.8 249.5) rotate(0 35.8 3.6)" fill-rule="evenodd"><path d="M0 0 C7.6 2.5, 33.4 16, 45.3 14.8 C57.3 13.5, 71.8 -6, 71.6 -7.6 C71.5 -9.1, 56.3 4, 44.4 5.3 C32.4 6.5, 7.4 0.9, 0 0" stroke="none" stroke-width="0" fill="#000000" fill-rule="evenodd"></path><path d="M0 0 C7.6 2.5, 33.4 16, 45.3 14.8 C57.3 13.5, 71.8 -6, 71.6 -7.6 C71.5 -9.1, 56.3 4, 44.4 5.3 C32.4 6.5, 7.4 0.9, 0 0 M0 0 C7.6 2.5, 33.4 16, 45.3 14.8 C57.3 13.5, 71.8 -6, 71.6 -7.6 C71.5 -9.1, 56.3 4, 44.4 5.3 C32.4 6.5, 7.4 0.9, 0 0" stroke="#000000" stroke-width="2" fill="none"></path></g></g><mask></mask><g stroke-linecap="round"><g transform="translate(208.7 364.5) rotate(0 61.4 -26.9)"><path d="M-1.6 1.7 C19 -6.7, 103.3 -43.2, 124.3 -52.1 M2.7 0.2 C23.1 -8.9, 102.7 -46.9, 122.9 -56.2" stroke="#000000" stroke-width="4" fill="none"></path></g></g><mask></mask><g stroke-linecap="round"><g transform="translate(201.6 365) rotate(0 -60.2 -59.4)"><path d="M1.5 1.7 C-18 -18, -98.2 -96.4, -118.3 -116.5 M-1.2 0.2 C-20.7 -20.4, -99.5 -101, -119.4 -120.2" stroke="#000000" stroke-width="4" fill="none"></path></g></g><mask></mask><g stroke-linecap="round"><g transform="translate(19.5 203.2) rotate(0 13.2 -0.5)" fill-rule="evenodd"><path d="M0 0 C1.8 3, 7.9 15.2, 10.6 18.1 C13.3 21, 12 23.3, 16.1 17.3 C20.2 11.4, 32.4 -11.6, 35.2 -17.6 C38 -23.6, 36.3 -24, 33.1 -18.9 C29.9 -13.8, 19.8 7.8, 16 13.1 C12.2 18.4, 14.2 18.1, 10.4 12.7 C6.6 7.3, -3.5 -13.9, -6.8 -19.1 C-9.9 -24.2, -9.9 -21.5, -8.8 -18.3 C-7.7 -15.1, -1.5 -3, 0 0" stroke="none" stroke-width="0" fill="#000000" fill-rule="evenodd"></path><path d="M0 0 C1.8 3, 7.9 15.2, 10.6 18.1 C13.3 21, 12 23.3, 16.1 17.3 C20.2 11.4, 32.4 -11.6, 35.2 -17.6 C38 -23.6, 36.3 -24, 33.1 -18.9 C29.9 -13.8, 19.8 7.8, 16 13.1 C12.2 18.4, 14.2 18.1, 10.4 12.7 C6.6 7.3, -3.5 -13.9, -6.8 -19.1 C-9.9 -24.2, -9.9 -21.5, -8.8 -18.3 C-7.7 -15.1, -1.5 -3, 0 0 M0 0 C1.8 3, 7.9 15.2, 10.6 18.1 C13.3 21, 12 23.3, 16.1 17.3 C20.2 11.4, 32.4 -11.6, 35.2 -17.6 C38 -23.6, 36.3 -24, 33.1 -18.9 C29.9 -13.8, 19.8 7.8, 16 13.1 C12.2 18.4, 14.2 18.1, 10.4 12.7 C6.6 7.3, -3.5 -13.9, -6.8 -19.1 C-9.9 -24.2, -9.9 -21.5, -8.8 -18.3 C-7.7 -15.1, -1.5 -3, 0 0" stroke="#000000" stroke-width="4" fill="none"></path></g></g><mask></mask><g stroke-linecap="round"><g transform="translate(35.6 199.9) rotate(0 -2.3 1.3)" fill-rule="evenodd"><path d="M0 0 C1.3 -0.1, 6.7 -0.6, 8 -0.3 C9.3 0, 11.4 1.4, 7.9 1.9 C4.5 2.5, -9.1 3.2, -12.5 3 C-15.9 2.8, -14.7 1.2, -12.6 0.8 C-10.5 0.2, -2.1 0.1, 0 0" stroke="none" stroke-width="0" fill="#000000" fill-rule="evenodd"></path><path d="M0 0 C1.3 -0.1, 6.7 -0.6, 8 -0.3 C9.3 0, 11.4 1.4, 7.9 1.9 C4.5 2.5, -9.1 3.2, -12.5 3 C-15.9 2.8, -14.7 1.2, -12.6 0.8 C-10.5 0.2, -2.1 0.1, 0 0 M0 0 C1.3 -0.1, 6.7 -0.6, 8 -0.3 C9.3 0, 11.4 1.4, 7.9 1.9 C4.5 2.5, -9.1 3.2, -12.5 3 C-15.9 2.8, -14.7 1.2, -12.6 0.8 C-10.5 0.2, -2.1 0.1, 0 0" stroke="#000000" stroke-width="4" fill="none"></path></g></g><mask></mask><g transform="translate(59.5 156.9) rotate(0 22.5 51.5)"><text x="22.5" y="72.6" font-family="Excalifont, Xiaolai, Segoe UI Emoji" font-size="82.4px" fill="#1e1e1e" text-anchor="middle" style="white-space: pre;" direction="ltr" dominant-baseline="alphabetic">I</text></g><g stroke-linecap="round" transform="translate(300.4 256.7) rotate(14.8 26.1 26.1)"><path d="M14.1 2.4 C18.7 -0.5, 26.2 -0.5, 31.8 0.8 C37.4 2, 44.3 5.6, 47.6 9.9 C50.9 14.3, 51.8 21.4, 51.5 26.9 C51.1 32.4, 49.1 38.8, 45.6 43 C42.1 47.2, 36.3 51.4, 30.7 52.3 C25 53.1, 16.5 50.8, 11.6 47.9 C6.7 45.1, 2.9 40.3, 1.4 35 C-0.1 29.7, -0.2 21.7, 2.6 16.2 C5.4 10.7, 15.1 4.6, 18.2 1.9 C21.3 -0.8, 21.3 -0.5, 21.3 0 M18.9 2.1 C23.9 0.7, 31.9 1.3, 37.2 3.6 C42.4 5.8, 47.9 10.7, 50.4 15.6 C52.9 20.5, 53.9 27.8, 52.4 33 C50.9 38.1, 46.1 43.3, 41.6 46.3 C37.2 49.4, 31.2 51.6, 25.6 51.2 C20 50.8, 12.1 47.9, 7.9 44 C3.8 40.1, 1.3 33.5, 0.5 27.9 C-0.2 22.2, 0.3 14.7, 3.3 10.2 C6.3 5.8, 15.8 2.6, 18.6 1.1 C21.4 -0.4, 20.1 0.9, 20.3 1.4" stroke="none" stroke-width="0" fill="#d00000"></path><path d="M34.7 0.9 C39.8 2.3, 45.4 7.4, 48.3 12.3 C51.3 17.2, 53.1 24.5, 52.3 30.2 C51.5 35.9, 47.7 42.7, 43.4 46.5 C39 50.2, 32 52.7, 26.4 52.7 C20.7 52.8, 13.9 50.5, 9.6 46.7 C5.2 43, 1.1 35.9, 0.2 30.2 C-0.7 24.5, 1.3 17.2, 4.1 12.4 C6.9 7.6, 11.7 3.2, 17 1.4 C22.3 -0.5, 32.4 1.2, 35.7 1.4 C39 1.6, 36.6 2, 36.7 2.5 M23.3 -0.1 C28.4 -0.8, 35.9 2, 40.5 5.1 C45.1 8.2, 49.5 13.7, 50.9 18.8 C52.4 23.9, 51.6 30.7, 49.1 35.8 C46.6 41, 40.9 47, 36.1 49.7 C31.2 52.5, 25.1 53.7, 20.1 52.2 C15 50.8, 9.1 45.6, 5.9 41.1 C2.8 36.6, 0.9 31, 1.3 25.2 C1.8 19.4, 4.7 10.3, 8.7 6.3 C12.7 2.3, 22.9 2.2, 25.2 1.1 C27.5 -0, 22.5 -0.6, 22.4 -0.5" stroke="#1e1e1e" stroke-width="2" fill="none"></path></g><g stroke-linecap="round" transform="translate(338.3 266.7) rotate(14.8 26.1 26.1)"><path d="M37.4 2.6 C42.4 4.6, 48.4 9.9, 50.6 14.9 C52.9 19.9, 52.2 27.3, 50.6 32.7 C49.1 38, 45.6 43.6, 41.3 46.9 C37 50.2, 30.6 52.9, 24.9 52.5 C19.2 52, 11.1 48.2, 7 44.4 C2.9 40.5, 0.5 34.9, 0.2 29.3 C-0.1 23.8, 2.1 15.7, 5.3 11.1 C8.6 6.5, 14.1 2.9, 19.5 1.5 C25 0, 34.6 1.7, 38 2.4 C41.3 3.1, 39.9 4.9, 39.8 5.5 M21.1 2 C26.3 0.5, 34 1.6, 39.1 4 C44.1 6.5, 49.1 12, 51.1 16.8 C53.1 21.7, 52.7 28.1, 51.1 33.2 C49.4 38.2, 46.1 44.2, 41.3 47.2 C36.6 50.2, 28.2 51.8, 22.5 51 C16.9 50.2, 11.2 46.8, 7.2 42.6 C3.3 38.4, -0.7 31.2, -1 25.8 C-1.4 20.4, 1.4 14.5, 5.2 10.3 C9.1 6, 19.3 1.9, 21.9 0.4 C24.5 -1.1, 21.2 1, 20.9 1.3" stroke="none" stroke-width="0" fill="#d00000"></path><path d="M25.9 -0.9 C31.4 -1.2, 39.2 1.9, 43.7 5.7 C48.1 9.5, 51.6 16.4, 52.5 22.1 C53.4 27.8, 51.9 35, 49 40 C46.1 44.8, 40.5 49.8, 35.1 51.5 C29.7 53.2, 21.9 52.5, 16.7 50.3 C11.5 48.1, 6.6 43.3, 3.9 38.4 C1.1 33.5, -0.7 26.7, 0.1 21.1 C0.9 15.6, 3.9 8.7, 8.7 5.1 C13.6 1.5, 24.8 0.2, 28.9 -0.4 C33.1 -1.1, 33.7 0.9, 33.8 1.5 M25.8 0.5 C31.1 0.1, 38.4 2.4, 42.6 5.7 C46.9 9.1, 50.3 14.9, 51.1 20.5 C52 26.1, 50.1 34.1, 47.5 39.3 C44.9 44.5, 40.4 49.7, 35.5 51.6 C30.6 53.5, 23.3 52.4, 18.2 50.5 C13.1 48.6, 7.5 45.4, 4.7 40.3 C1.9 35.2, 0.5 25.6, 1.6 20 C2.6 14.5, 7 10.5, 10.9 7 C14.8 3.5, 22.2 0.2, 25 -1.1 C27.7 -2.4, 27.1 -1.6, 27.1 -0.7" stroke="#1e1e1e" stroke-width="2" fill="none"></path></g><g stroke-linecap="round" transform="translate(314.8 282.4) rotate(59.8 25.5 25.4)"><path d="M-2 -0.4 L52.8 0.7 L49.7 51.6 L0.5 52.6" stroke="none" stroke-width="0" fill="#d00000"></path><path d="M0 0 C17.9 -1.4, 36.9 -1.9, 51.1 0 M0 0 C17.9 0.1, 35.9 0.1, 51.1 0 M51.1 0 C52 17.6, 50.3 37, 51.1 50.7 M51.1 0 C50 11.6, 50.7 21.6, 51.1 50.7 M51.1 50.7 C35.5 49.9, 20.9 50, 0 50.7 M51.1 50.7 C36.6 50.3, 24.1 50.9, 0 50.7 M0 50.7 C1.7 33.2, -1.9 14.6, 0 0 M0 50.7 C1 31.4, -0.1 14.4, 0 0" stroke="#1e1e1e" stroke-width="2" fill="none"></path></g><g stroke-linecap="round" transform="translate(303.5 259.6) rotate(14.8 24.2 24.2)"><path d="M21.6 -0.1 C26.5 -0.8, 33.4 1.5, 37.8 4.4 C42.2 7.3, 46.7 12.5, 48.1 17.4 C49.4 22.3, 48.1 29.1, 46 33.9 C43.8 38.6, 39.6 43.8, 35 46 C30.4 48.3, 23.4 48.6, 18.2 47.4 C13.1 46.1, 7.2 42.8, 4.1 38.6 C1.1 34.4, -0.5 27.5, -0.1 22.2 C0.3 17, 3 10.8, 6.8 7.2 C10.6 3.6, 19.9 1.6, 22.6 0.5 C25.3 -0.6, 22.8 0.2, 22.8 0.6 M24.5 -0.1 C29.6 -0.6, 36.3 1.9, 40.2 5.2 C44.2 8.5, 47.4 14.4, 48.1 19.5 C48.9 24.6, 47.3 31.5, 44.8 36 C42.2 40.5, 37.5 44.8, 32.8 46.6 C28 48.3, 21.2 48.2, 16.2 46.5 C11.3 44.7, 5.7 40.4, 3 35.9 C0.4 31.4, -0.7 24.4, 0.3 19.5 C1.3 14.6, 5 9.6, 9 6.4 C13 3.1, 21.6 1.1, 24.2 0.2 C26.8 -0.8, 24.5 0.2, 24.6 0.5" stroke="none" stroke-width="0" fill="#d00000"></path><path d="M24 -0 C29 -0.5, 35.6 2.4, 39.7 5.7 C43.7 8.9, 47.2 14.8, 48.2 19.8 C49.2 24.7, 48.2 30.9, 45.8 35.3 C43.3 39.8, 38.2 44.5, 33.4 46.5 C28.6 48.4, 21.8 48.9, 16.9 47.3 C12 45.7, 6.5 41.3, 3.8 36.8 C1 32.4, -0.5 25.6, 0.2 20.5 C0.9 15.4, 4 9.5, 8 6.1 C12 2.6, 21.2 0.6, 24.2 -0.4 C27.2 -1.4, 25.9 -0.4, 26 0.1 M27 -0.5 C31.8 -0.4, 37.8 3.5, 41.3 7.3 C44.7 11.2, 47.4 17.7, 47.7 22.8 C48.1 27.9, 46.5 33.7, 43.5 37.8 C40.4 41.9, 34.5 45.9, 29.4 47.4 C24.3 48.8, 17.5 48.6, 13 46.5 C8.5 44.4, 4.4 39.5, 2.4 34.6 C0.4 29.8, -0.5 22.6, 1 17.6 C2.4 12.7, 6.7 7.7, 10.9 4.7 C15.1 1.7, 23.6 0.2, 26.2 -0.5 C28.8 -1.2, 26.4 0.2, 26.4 0.6" stroke="#d00000" stroke-width="2" fill="none"></path></g><g stroke-linecap="round" transform="translate(338.6 268.9) rotate(14.8 24.2 24.2)"><path d="M20.6 0.4 C25.6 -0.7, 33.1 0.6, 37.5 3.3 C41.9 6, 45.4 11.3, 47 16.3 C48.5 21.3, 48.9 28.4, 47 33.2 C45.2 38.1, 40.4 42.8, 35.7 45.3 C31 47.8, 24 49.3, 18.9 48.2 C13.7 47.2, 8.1 43.2, 5 39.1 C1.8 34.9, -0.4 28.5, -0.1 23.4 C0.1 18.3, 2.8 12.3, 6.3 8.4 C9.8 4.6, 18.4 1.6, 21 0.3 C23.7 -1, 22 0.5, 22.1 0.8 M30.1 0.2 C34.9 0.9, 40.6 5, 43.6 9.1 C46.6 13.2, 48.2 19.9, 48 25.1 C47.7 30.3, 45.6 36.5, 42.2 40.3 C38.8 44.1, 32.7 47.1, 27.5 47.8 C22.3 48.4, 15.3 47, 10.9 44.1 C6.5 41.3, 2.4 35.6, 1 30.8 C-0.4 26.1, 0.2 20.2, 2.3 15.5 C4.3 10.8, 8.6 5.3, 13.2 2.8 C17.8 0.3, 27.2 1, 30 0.6 C32.7 0.2, 30 0.1, 29.7 0.6" stroke="none" stroke-width="0" fill="#d00000"></path><path d="M27.8 0.6 C32.7 1, 38.8 4.6, 42.3 8.3 C45.8 12, 48.4 17.7, 48.6 22.8 C48.9 27.8, 46.8 34.5, 43.7 38.6 C40.6 42.9, 34.9 46.8, 29.8 47.9 C24.7 49.1, 17.9 48.1, 13.2 45.6 C8.6 43.2, 3.9 38.1, 1.8 33.3 C-0.2 28.5, -0.5 21.9, 1 16.9 C2.5 11.9, 6.3 6.3, 10.9 3.5 C15.5 0.6, 25.6 0.3, 28.6 -0.1 C31.6 -0.5, 29 0.7, 28.9 1.2 M26.6 0.1 C31.3 0.5, 37.5 4.1, 41.1 7.7 C44.7 11.4, 47.8 16.9, 48.1 22 C48.4 27.1, 46.2 33.9, 43.1 38.2 C40 42.6, 34.2 46.9, 29.3 48.3 C24.4 49.7, 18.3 48.9, 13.7 46.5 C9.2 44.2, 4.1 38.8, 2 34 C-0.1 29.3, -0.2 23, 1.1 17.9 C2.5 12.8, 6 6.3, 10.2 3.4 C14.4 0.4, 23.9 0.7, 26.6 0.2 C29.4 -0.4, 26.6 -0.2, 26.5 0.2" stroke="#d00000" stroke-width="2" fill="none"></path></g><g stroke-linecap="round" transform="translate(316.8 283.4) rotate(59.8 23.7 23.5)"><path d="M-0.4 -0.7 L46.8 -0.6 L47 46.6 L0.2 48" stroke="none" stroke-width="0" fill="#d00000"></path><path d="M0 0 C14.6 -0.2, 28.2 0.7, 47.3 0 M0 0 C16.1 0.1, 32.8 0.2, 47.3 0 M47.3 0 C47.3 14.3, 47.2 29.4, 47.3 47 M47.3 0 C46.7 11.4, 47.4 22.6, 47.3 47 M47.3 47 C28.7 46.5, 11.8 46.2, 0 47 M47.3 47 C31.6 46.5, 16.3 47.1, 0 47 M0 47 C0.1 31, 0.6 13.7, 0 0 M0 47 C-0.1 36.6, -0.3 26.7, 0 0" stroke="#d00000" stroke-width="2" fill="none"></path></g><g stroke-linecap="round" transform="translate(183.2 185.8) rotate(0 15 16.5)"><path d="M30 16.5 C30 17.5, 29.9 18.4, 29.8 19.4 C29.6 20.3, 29.4 21.2, 29.1 22.1 C28.8 23, 28.4 23.9, 28 24.8 C27.6 25.6, 27.1 26.4, 26.5 27.1 C25.9 27.8, 25.3 28.5, 24.6 29.1 C24 29.8, 23.2 30.3, 22.5 30.8 C21.8 31.3, 20.9 31.7, 20.1 32 C19.3 32.3, 18.5 32.6, 17.6 32.8 C16.8 32.9, 15.9 33, 15 33 C14.1 33, 13.2 32.9, 12.4 32.8 C11.5 32.6, 10.7 32.3, 9.9 32 C9.1 31.7, 8.2 31.3, 7.5 30.8 C6.8 30.3, 6 29.8, 5.4 29.1 C4.7 28.5, 4.1 27.8, 3.5 27.1 C3 26.4, 2.4 25.6, 2 24.8 C1.6 23.9, 1.2 23, 0.9 22.1 C0.6 21.2, 0.4 20.3, 0.2 19.4 C0.1 18.4, 0 17.5, 0 16.5 C0 15.5, 0.1 14.6, 0.2 13.6 C0.4 12.7, 0.6 11.8, 0.9 10.9 C1.2 10, 1.6 9.1, 2 8.2 C2.4 7.4, 3 6.6, 3.5 5.9 C4.1 5.2, 4.7 4.5, 5.4 3.9 C6 3.2, 6.8 2.7, 7.5 2.2 C8.2 1.7, 9.1 1.3, 9.9 1 C10.7 0.7, 11.5 0.4, 12.4 0.2 C13.2 0.1, 14.1 0, 15 0 C15.9 0, 16.8 0.1, 17.6 0.2 C18.5 0.4, 19.3 0.7, 20.1 1 C20.9 1.3, 21.8 1.7, 22.5 2.2 C23.2 2.7, 24 3.2, 24.6 3.9 C25.3 4.5, 25.9 5.2, 26.5 5.9 C27.1 6.6, 27.6 7.4, 28 8.2 C28.4 9.1, 28.8 10, 29.1 10.9 C29.4 11.8, 29.6 12.7, 29.8 13.6 C29.9 14.6, 30 16, 30 16.5 C30 17, 30 16, 30 16.5" stroke="none" stroke-width="0" fill="#ffffff"></path><path d="M30 16.5 C30 17.5, 29.9 18.4, 29.8 19.4 C29.6 20.3, 29.4 21.2, 29.1 22.1 C28.8 23, 28.4 23.9, 28 24.8 C27.6 25.6, 27.1 26.4, 26.5 27.1 C25.9 27.8, 25.3 28.5, 24.6 29.1 C24 29.8, 23.2 30.3, 22.5 30.8 C21.8 31.3, 20.9 31.7, 20.1 32 C19.3 32.3, 18.5 32.6, 17.6 32.8 C16.8 32.9, 15.9 33, 15 33 C14.1 33, 13.2 32.9, 12.4 32.8 C11.5 32.6, 10.7 32.3, 9.9 32 C9.1 31.7, 8.2 31.3, 7.5 30.8 C6.8 30.3, 6 29.8, 5.4 29.1 C4.7 28.5, 4.1 27.8, 3.5 27.1 C3 26.4, 2.4 25.6, 2 24.8 C1.6 23.9, 1.2 23, 0.9 22.1 C0.6 21.2, 0.4 20.3, 0.2 19.4 C0.1 18.4, 0 17.5, 0 16.5 C0 15.5, 0.1 14.6, 0.2 13.6 C0.4 12.7, 0.6 11.8, 0.9 10.9 C1.2 10, 1.6 9.1, 2 8.2 C2.4 7.4, 3 6.6, 3.5 5.9 C4.1 5.2, 4.7 4.5, 5.4 3.9 C6 3.2, 6.8 2.7, 7.5 2.2 C8.2 1.7, 9.1 1.3, 9.9 1 C10.7 0.7, 11.5 0.4, 12.4 0.2 C13.2 0.1, 14.1 0, 15 0 C15.9 0, 16.8 0.1, 17.6 0.2 C18.5 0.4, 19.3 0.7, 20.1 1 C20.9 1.3, 21.8 1.7, 22.5 2.2 C23.2 2.7, 24 3.2, 24.6 3.9 C25.3 4.5, 25.9 5.2, 26.5 5.9 C27.1 6.6, 27.6 7.4, 28 8.2 C28.4 9.1, 28.8 10, 29.1 10.9 C29.4 11.8, 29.6 12.7, 29.8 13.6 C29.9 14.6, 30 16, 30 16.5 C30 17, 30 16, 30 16.5" stroke="#1e1e1e" stroke-width="2" fill="none"></path></g><g stroke-linecap="round" transform="translate(198.2 198.8) rotate(0 4.3 4.4)"><path d="M8.5 4.4 C8.5 4.7, 8.5 5, 8.5 5.2 C8.4 5.5, 8.4 5.7, 8.3 6 C8.2 6.2, 8.1 6.4, 8 6.7 C7.8 6.9, 7.7 7.1, 7.5 7.3 C7.4 7.5, 7.2 7.7, 7 7.8 C6.8 8, 6.6 8.2, 6.4 8.3 C6.2 8.4, 6 8.5, 5.7 8.6 C5.5 8.7, 5.3 8.8, 5 8.8 C4.8 8.8, 4.5 8.9, 4.3 8.9 C4 8.9, 3.8 8.8, 3.5 8.8 C3.3 8.8, 3 8.7, 2.8 8.6 C2.6 8.5, 2.4 8.4, 2.1 8.3 C1.9 8.2, 1.7 8, 1.5 7.8 C1.3 7.7, 1.2 7.5, 1 7.3 C0.8 7.1, 0.7 6.9, 0.6 6.7 C0.5 6.4, 0.3 6.2, 0.3 6 C0.2 5.7, 0.1 5.5, 0.1 5.2 C0 5, 0 4.7, 0 4.4 C0 4.2, 0 3.9, 0.1 3.7 C0.1 3.4, 0.2 3.2, 0.3 2.9 C0.3 2.7, 0.5 2.4, 0.6 2.2 C0.7 2, 0.8 1.8, 1 1.6 C1.2 1.4, 1.3 1.2, 1.5 1 C1.7 0.9, 1.9 0.7, 2.1 0.6 C2.4 0.5, 2.6 0.4, 2.8 0.3 C3 0.2, 3.3 0.1, 3.5 0.1 C3.8 0, 4 0, 4.3 0 C4.5 0, 4.8 0, 5 0.1 C5.3 0.1, 5.5 0.2, 5.7 0.3 C6 0.4, 6.2 0.5, 6.4 0.6 C6.6 0.7, 6.8 0.9, 7 1 C7.2 1.2, 7.4 1.4, 7.5 1.6 C7.7 1.8, 7.8 2, 8 2.2 C8.1 2.4, 8.2 2.7, 8.3 2.9 C8.4 3.2, 8.4 3.4, 8.5 3.7 C8.5 3.9, 8.5 4.3, 8.5 4.4 C8.6 4.6, 8.6 4.3, 8.5 4.4" stroke="none" stroke-width="0" fill="#000000"></path><path d="M8.5 4.4 C8.5 4.7, 8.5 5, 8.5 5.2 C8.4 5.5, 8.4 5.7, 8.3 6 C8.2 6.2, 8.1 6.4, 8 6.7 C7.8 6.9, 7.7 7.1, 7.5 7.3 C7.4 7.5, 7.2 7.7, 7 7.8 C6.8 8, 6.6 8.2, 6.4 8.3 C6.2 8.4, 6 8.5, 5.7 8.6 C5.5 8.7, 5.3 8.8, 5 8.8 C4.8 8.8, 4.5 8.9, 4.3 8.9 C4 8.9, 3.8 8.8, 3.5 8.8 C3.3 8.8, 3 8.7, 2.8 8.6 C2.6 8.5, 2.4 8.4, 2.1 8.3 C1.9 8.2, 1.7 8, 1.5 7.8 C1.3 7.7, 1.2 7.5, 1 7.3 C0.8 7.1, 0.7 6.9, 0.6 6.7 C0.5 6.4, 0.3 6.2, 0.3 6 C0.2 5.7, 0.1 5.5, 0.1 5.2 C0 5, 0 4.7, 0 4.4 C0 4.2, 0 3.9, 0.1 3.7 C0.1 3.4, 0.2 3.2, 0.3 2.9 C0.3 2.7, 0.5 2.4, 0.6 2.2 C0.7 2, 0.8 1.8, 1 1.6 C1.2 1.4, 1.3 1.2, 1.5 1 C1.7 0.9, 1.9 0.7, 2.1 0.6 C2.4 0.5, 2.6 0.4, 2.8 0.3 C3 0.2, 3.3 0.1, 3.5 0.1 C3.8 0, 4 0, 4.3 0 C4.5 0, 4.8 0, 5 0.1 C5.3 0.1, 5.5 0.2, 5.7 0.3 C6 0.4, 6.2 0.5, 6.4 0.6 C6.6 0.7, 6.8 0.9, 7 1 C7.2 1.2, 7.4 1.4, 7.5 1.6 C7.7 1.8, 7.8 2, 8 2.2 C8.1 2.4, 8.2 2.7, 8.3 2.9 C8.4 3.2, 8.4 3.4, 8.5 3.7 C8.5 3.9, 8.5 4.3, 8.5 4.4 C8.6 4.6, 8.6 4.3, 8.5 4.4" stroke="#000000" stroke-width="2" fill="none"></path></g><g stroke-linecap="round"><g transform="translate(184.5 238.2) rotate(0 -5 9)"><path d="M0 0 C-1.6 1.2, -9.2 4.4, -9.9 7.4 C-10.6 10.4, -5.3 16.2, -4.3 18 M0 0 C-1.6 1.2, -9.2 4.4, -9.9 7.4 C-10.6 10.4, -5.3 16.2, -4.3 18" stroke="#1e1e1e" stroke-width="2" fill="none"></path></g></g><mask></mask></svg>