<svg class="figure-svg" role="img" version="1.1" xmlns="http://www.w3.org/2000/svg" viewBox="0 0 581.5 251.5"><title>finf_giant_inference</title><defs></defs><g transform="translate(126 67.6) rotate(0 105.2 17.5)"><text x="105.2" y="24.7" font-family="Excalifont" font-size="28px" fill="#1e1e1e" text-anchor="middle" style="white-space: pre;" direction="ltr" dominant-baseline="alphabetic">BiggerThan x y</text></g><g stroke-linecap="round"><g transform="translate(362.9 84.9) rotate(0 1.6 0.3)" fill-rule="evenodd"><path d="M0 0 C1.2 -0, 5.8 0, 7.2 -0.1 C8.6 -0.2, 9.2 -0.1, 8.6 -0.7 C8.1 -1.4, 4.5 -3.5, 3.9 -4.2 C3.2 -4.8, 3.8 -5.1, 4.8 -4.5 C5.9 -3.9, 9.4 -1.8, 10.2 -0.7 C10.9 0.4, 10.2 1, 9.5 1.9 C8.8 2.9, 6.7 4.5, 5.8 5 C5 5.5, 4.2 5.5, 4.7 4.9 C5.1 4.3, 8 2.2, 8.5 1.6 C8.9 0.9, 9.6 1, 7.2 0.9 C4.8 0.8, -3.7 1.2, -6.1 1.1 C-8.4 1, -8.1 0.4, -7 0.2 C-6 0, -1.2 0, 0 0" stroke="none" stroke-width="0" fill="#000000" fill-rule="evenodd"></path><path d="M0 0 C1.2 -0, 5.8 0, 7.2 -0.1 C8.6 -0.2, 9.2 -0.1, 8.6 -0.7 C8.1 -1.4, 4.5 -3.5, 3.9 -4.2 C3.2 -4.8, 3.8 -5.1, 4.8 -4.5 C5.9 -3.9, 9.4 -1.8, 10.2 -0.7 C10.9 0.4, 10.2 1, 9.5 1.9 C8.8 2.9, 6.7 4.5, 5.8 5 C5 5.5, 4.2 5.5, 4.7 4.9 C5.1 4.3, 8 2.2, 8.5 1.6 C8.9 0.9, 9.6 1, 7.2 0.9 C4.8 0.8, -3.7 1.2, -6.1 1.1 C-8.4 1, -8.1 0.4, -7 0.2 C-6 0, -1.2 0, 0 0 M0 0 C1.2 -0, 5.8 0, 7.2 -0.1 C8.6 -0.2, 9.2 -0.1, 8.6 -0.7 C8.1 -1.4, 4.5 -3.5, 3.9 -4.2 C3.2 -4.8, 3.8 -5.1, 4.8 -4.5 C5.9 -3.9, 9.4 -1.8, 10.2 -0.7 C10.9 0.4, 10.2 1, 9.5 1.9 C8.8 2.9, 6.7 4.5, 5.8 5 C5 5.5, 4.2 5.5, 4.7 4.9 C5.1 4.3, 8 2.2, 8.5 1.6 C8.9 0.9, 9.6 1, 7.2 0.9 C4.8 0.8, -3.7 1.2, -6.1 1.1 C-8.4 1, -8.1 0.4, -7 0.2 C-6 0, -1.2 0, 0 0" stroke="#000000" stroke-width="2" fill="none"></path></g></g><mask></mask><g transform="translate(398.4 67.6) rotate(0 51.4 17.5)"><text x="51.4" y="24.7" font-family="Excalifont" font-size="28px" fill="#1e1e1e" text-anchor="middle" style="white-space: pre;" direction="ltr" dominant-baseline="alphabetic">Giant x</text></g><g stroke-linecap="round"><g transform="translate(17.4 83) rotate(0 8.3 -0.3)" fill-rule="evenodd"><path d="M0 0 C1.1 1.9, 5 9.6, 6.7 11.4 C8.3 13.2, 7.6 14.6, 10.2 10.9 C12.7 7.2, 20.4 -7.3, 22.1 -11.1 C23.9 -14.9, 22.8 -15.1, 20.8 -11.9 C18.8 -8.7, 12.4 4.9, 10.1 8.2 C7.7 11.5, 8.9 11.3, 6.5 8 C4.1 4.6, -2.2 -8.7, -4.2 -12 C-6.3 -15.2, -6.2 -13.5, -5.5 -11.5 C-4.8 -9.5, -0.9 -1.9, 0 0" stroke="none" stroke-width="0" fill="#000000" fill-rule="evenodd"></path><path d="M0 0 C1.1 1.9, 5 9.6, 6.7 11.4 C8.3 13.2, 7.6 14.6, 10.2 10.9 C12.7 7.2, 20.4 -7.3, 22.1 -11.1 C23.9 -14.9, 22.8 -15.1, 20.8 -11.9 C18.8 -8.7, 12.4 4.9, 10.1 8.2 C7.7 11.5, 8.9 11.3, 6.5 8 C4.1 4.6, -2.2 -8.7, -4.2 -12 C-6.3 -15.2, -6.2 -13.5, -5.5 -11.5 C-4.8 -9.5, -0.9 -1.9, 0 0 M0 0 C1.1 1.9, 5 9.6, 6.7 11.4 C8.3 13.2, 7.6 14.6, 10.2 10.9 C12.7 7.2, 20.4 -7.3, 22.1 -11.1 C23.9 -14.9, 22.8 -15.1, 20.8 -11.9 C18.8 -8.7, 12.4 4.9, 10.1 8.2 C7.7 11.5, 8.9 11.3, 6.5 8 C4.1 4.6, -2.2 -8.7, -4.2 -12 C-6.3 -15.2, -6.2 -13.5, -5.5 -11.5 C-4.8 -9.5, -0.9 -1.9, 0 0" stroke="#000000" stroke-width="2" fill="none"></path></g></g><mask></mask><g stroke-linecap="round"><g transform="translate(27.5 80.9) rotate(0 -1.4 0.8)" fill-rule="evenodd"><path d="M0 0 C0.8 -0, 4.2 -0.4, 5 -0.2 C5.9 0, 7.1 0.9, 5 1.2 C2.8 1.6, -5.7 2, -7.9 1.9 C-10 1.8, -9.2 0.8, -7.9 0.5 C-6.6 0.2, -1.3 0.1, 0 0" stroke="none" stroke-width="0" fill="#000000" fill-rule="evenodd"></path><path d="M0 0 C0.8 -0, 4.2 -0.4, 5 -0.2 C5.9 0, 7.1 0.9, 5 1.2 C2.8 1.6, -5.7 2, -7.9 1.9 C-10 1.8, -9.2 0.8, -7.9 0.5 C-6.6 0.2, -1.3 0.1, 0 0 M0 0 C0.8 -0, 4.2 -0.4, 5 -0.2 C5.9 0, 7.1 0.9, 5 1.2 C2.8 1.6, -5.7 2, -7.9 1.9 C-10 1.8, -9.2 0.8, -7.9 0.5 C-6.6 0.2, -1.3 0.1, 0 0" stroke="#000000" stroke-width="2" fill="none"></path></g></g><mask></mask><g transform="translate(36.4 60) rotate(0 10.6 22.5)"><text x="10.6" y="31.7" font-family="Excalifont" font-size="36px" fill="#1e1e1e" text-anchor="middle" style="white-space: pre;" direction="ltr" dominant-baseline="alphabetic">x</text></g><g stroke-linecap="round"><g transform="translate(83 81.1) rotate(0 8.3 -0.3)" fill-rule="evenodd"><path d="M0 0 C1.1 1.9, 5 9.6, 6.7 11.4 C8.3 13.2, 7.6 14.6, 10.2 10.9 C12.7 7.2, 20.4 -7.3, 22.1 -11.1 C23.9 -14.9, 22.8 -15.1, 20.8 -11.9 C18.8 -8.7, 12.4 4.9, 10.1 8.2 C7.7 11.5, 8.9 11.3, 6.5 8 C4.1 4.6, -2.2 -8.7, -4.2 -12 C-6.3 -15.2, -6.2 -13.5, -5.5 -11.5 C-4.8 -9.5, -0.9 -1.9, 0 0" stroke="none" stroke-width="0" fill="#000000" fill-rule="evenodd"></path><path d="M0 0 C1.1 1.9, 5 9.6, 6.7 11.4 C8.3 13.2, 7.6 14.6, 10.2 10.9 C12.7 7.2, 20.4 -7.3, 22.1 -11.1 C23.9 -14.9, 22.8 -15.1, 20.8 -11.9 C18.8 -8.7, 12.4 4.9, 10.1 8.2 C7.7 11.5, 8.9 11.3, 6.5 8 C4.1 4.6, -2.2 -8.7, -4.2 -12 C-6.3 -15.2, -6.2 -13.5, -5.5 -11.5 C-4.8 -9.5, -0.9 -1.9, 0 0 M0 0 C1.1 1.9, 5 9.6, 6.7 11.4 C8.3 13.2, 7.6 14.6, 10.2 10.9 C12.7 7.2, 20.4 -7.3, 22.1 -11.1 C23.9 -14.9, 22.8 -15.1, 20.8 -11.9 C18.8 -8.7, 12.4 4.9, 10.1 8.2 C7.7 11.5, 8.9 11.3, 6.5 8 C4.1 4.6, -2.2 -8.7, -4.2 -12 C-6.3 -15.2, -6.2 -13.5, -5.5 -11.5 C-4.8 -9.5, -0.9 -1.9, 0 0" stroke="#000000" stroke-width="2" fill="none"></path></g></g><mask></mask><g stroke-linecap="round"><g transform="translate(93.1 79.1) rotate(0 -1.4 0.8)" fill-rule="evenodd"><path d="M0 0 C0.8 -0, 4.2 -0.4, 5 -0.2 C5.9 0, 7.1 0.9, 5 1.2 C2.8 1.6, -5.7 2, -7.9 1.9 C-10 1.8, -9.2 0.8, -7.9 0.5 C-6.6 0.2, -1.3 0.1, 0 0" stroke="none" stroke-width="0" fill="#000000" fill-rule="evenodd"></path><path d="M0 0 C0.8 -0, 4.2 -0.4, 5 -0.2 C5.9 0, 7.1 0.9, 5 1.2 C2.8 1.6, -5.7 2, -7.9 1.9 C-10 1.8, -9.2 0.8, -7.9 0.5 C-6.6 0.2, -1.3 0.1, 0 0 M0 0 C0.8 -0, 4.2 -0.4, 5 -0.2 C5.9 0, 7.1 0.9, 5 1.2 C2.8 1.6, -5.7 2, -7.9 1.9 C-10 1.8, -9.2 0.8, -7.9 0.5 C-6.6 0.2, -1.3 0.1, 0 0" stroke="#000000" stroke-width="2" fill="none"></path></g></g><mask></mask><g transform="translate(103.7 58.2) rotate(0 9.5 22.5)"><text x="9.5" y="31.7" font-family="Excalifont" font-size="36px" fill="#1e1e1e" text-anchor="middle" style="white-space: pre;" direction="ltr" dominant-baseline="alphabetic">y</text></g><g transform="translate(60.5 57.8) rotate(0 7.9 22.5)"><text x="7.9" y="31.7" font-family="Excalifont" font-size="36px" fill="#1e1e1e" text-anchor="middle" style="white-space: pre;" direction="ltr" dominant-baseline="alphabetic">(</text></g><g transform="translate(113.8 135.4) rotate(0 83.9 17.5)"><text x="83.9" y="24.7" font-family="Excalifont" font-size="28px" fill="#1e1e1e" text-anchor="middle" style="white-space: pre;" direction="ltr" dominant-baseline="alphabetic">BiggerThan </text></g><g transform="translate(289.8 133.4) rotate(0 80 17.5)"><text x="0" y="24.7" font-family="Excalifont" font-size="28px" fill="#1e1e1e" text-anchor="start" style="white-space: pre;" direction="ltr" dominant-baseline="alphabetic">PolyphemOS</text></g><g transform="translate(459.5 133.4) rotate(0 8.3 17.5)"><text x="8.3" y="24.7" font-family="Excalifont" font-size="28px" fill="#1e1e1e" text-anchor="middle" style="white-space: pre;" direction="ltr" dominant-baseline="alphabetic">x</text></g><g stroke-linecap="round"><g transform="translate(59.6 151.3) rotate(0 8.3 -0.3)" fill-rule="evenodd"><path d="M0 0 C1.1 1.9, 5 9.6, 6.7 11.4 C8.3 13.2, 7.6 14.6, 10.2 10.9 C12.7 7.2, 20.4 -7.3, 22.1 -11.1 C23.9 -14.9, 22.8 -15.1, 20.8 -11.9 C18.8 -8.7, 12.4 4.9, 10.1 8.2 C7.7 11.5, 8.9 11.3, 6.5 8 C4.1 4.6, -2.2 -8.7, -4.2 -12 C-6.3 -15.2, -6.2 -13.5, -5.5 -11.5 C-4.8 -9.5, -0.9 -1.9, 0 0" stroke="none" stroke-width="0" fill="#000000" fill-rule="evenodd"></path><path d="M0 0 C1.1 1.9, 5 9.6, 6.7 11.4 C8.3 13.2, 7.6 14.6, 10.2 10.9 C12.7 7.2, 20.4 -7.3, 22.1 -11.1 C23.9 -14.9, 22.8 -15.1, 20.8 -11.9 C18.8 -8.7, 12.4 4.9, 10.1 8.2 C7.7 11.5, 8.9 11.3, 6.5 8 C4.1 4.6, -2.2 -8.7, -4.2 -12 C-6.3 -15.2, -6.2 -13.5, -5.5 -11.5 C-4.8 -9.5, -0.9 -1.9, 0 0 M0 0 C1.1 1.9, 5 9.6, 6.7 11.4 C8.3 13.2, 7.6 14.6, 10.2 10.9 C12.7 7.2, 20.4 -7.3, 22.1 -11.1 C23.9 -14.9, 22.8 -15.1, 20.8 -11.9 C18.8 -8.7, 12.4 4.9, 10.1 8.2 C7.7 11.5, 8.9 11.3, 6.5 8 C4.1 4.6, -2.2 -8.7, -4.2 -12 C-6.3 -15.2, -6.2 -13.5, -5.5 -11.5 C-4.8 -9.5, -0.9 -1.9, 0 0" stroke="#000000" stroke-width="2" fill="none"></path></g></g><mask></mask><g stroke-linecap="round"><g transform="translate(69.7 149.3) rotate(0 -1.4 0.8)" fill-rule="evenodd"><path d="M0 0 C0.8 -0, 4.2 -0.4, 5 -0.2 C5.9 0, 7.1 0.9, 5 1.2 C2.8 1.6, -5.7 2, -7.9 1.9 C-10 1.8, -9.2 0.8, -7.9 0.5 C-6.6 0.2, -1.3 0.1, 0 0" stroke="none" stroke-width="0" fill="#000000" fill-rule="evenodd"></path><path d="M0 0 C0.8 -0, 4.2 -0.4, 5 -0.2 C5.9 0, 7.1 0.9, 5 1.2 C2.8 1.6, -5.7 2, -7.9 1.9 C-10 1.8, -9.2 0.8, -7.9 0.5 C-6.6 0.2, -1.3 0.1, 0 0 M0 0 C0.8 -0, 4.2 -0.4, 5 -0.2 C5.9 0, 7.1 0.9, 5 1.2 C2.8 1.6, -5.7 2, -7.9 1.9 C-10 1.8, -9.2 0.8, -7.9 0.5 C-6.6 0.2, -1.3 0.1, 0 0" stroke="#000000" stroke-width="2" fill="none"></path></g></g><mask></mask><g transform="translate(79.2 128.4) rotate(0 10.6 22.5)"><text x="10.6" y="31.7" font-family="Excalifont" font-size="36px" fill="#1e1e1e" text-anchor="middle" style="white-space: pre;" direction="ltr" dominant-baseline="alphabetic">x</text></g><g stroke-linecap="round"><g transform="translate(10 189.1) rotate(0 243.4 -2)"><path d="M0 0 C81.1 -0.7, 405.6 -3.3, 486.7 -4 M0 0 C81.1 -0.7, 405.6 -3.3, 486.7 -4" stroke="#1e1e1e" stroke-width="4" fill="none"></path></g></g><mask></mask><g transform="translate(125.9 205.8) rotate(0 123.1 17.5)"><text x="123.1" y="24.7" font-family="Excalifont" font-size="28px" fill="#1e1e1e" text-anchor="middle" style="white-space: pre;" direction="ltr" dominant-baseline="alphabetic">Giant PolyphemOS</text></g><g stroke-linecap="round" transform="translate(558.3 20.8) rotate(0 3 3.6)"><path d="M6 3.6 C6 3.8, 6 4, 6 4.2 C6 4.4, 5.9 4.6, 5.8 4.8 C5.8 5, 5.7 5.2, 5.6 5.4 C5.5 5.6, 5.4 5.7, 5.3 5.9 C5.2 6, 5.1 6.2, 5 6.3 C4.8 6.5, 4.7 6.6, 4.5 6.7 C4.4 6.8, 4.2 6.9, 4 7 C3.9 7, 3.7 7.1, 3.5 7.1 C3.4 7.2, 3.2 7.2, 3 7.2 C2.8 7.2, 2.7 7.2, 2.5 7.1 C2.3 7.1, 2.1 7, 2 7 C1.8 6.9, 1.7 6.8, 1.5 6.7 C1.4 6.6, 1.2 6.5, 1.1 6.3 C0.9 6.2, 0.8 6, 0.7 5.9 C0.6 5.7, 0.5 5.6, 0.4 5.4 C0.3 5.2, 0.2 5, 0.2 4.8 C0.1 4.6, 0.1 4.4, 0.1 4.2 C0 4, 0 3.8, 0 3.6 C0 3.4, 0 3.2, 0.1 3 C0.1 2.8, 0.1 2.6, 0.2 2.4 C0.2 2.2, 0.3 2, 0.4 1.8 C0.5 1.6, 0.6 1.4, 0.7 1.3 C0.8 1.1, 0.9 1, 1.1 0.8 C1.2 0.7, 1.4 0.6, 1.5 0.5 C1.7 0.4, 1.8 0.3, 2 0.2 C2.1 0.1, 2.3 0.1, 2.5 0.1 C2.7 0, 2.8 0, 3 0 C3.2 0, 3.4 0, 3.5 0.1 C3.7 0.1, 3.9 0.1, 4 0.2 C4.2 0.3, 4.4 0.4, 4.5 0.5 C4.7 0.6, 4.8 0.7, 5 0.8 C5.1 1, 5.2 1.1, 5.3 1.3 C5.4 1.4, 5.5 1.6, 5.6 1.8 C5.7 2, 5.8 2.2, 5.8 2.4 C5.9 2.6, 6 2.8, 6 3 C6 3.2, 6 3.5, 6 3.6 C6 3.7, 6 3.5, 6 3.6" stroke="none" stroke-width="0" fill="#b2f2bb"></path><path d="M6 3.6 C6 3.8, 6 4, 6 4.2 C6 4.4, 5.9 4.6, 5.8 4.8 C5.8 5, 5.7 5.2, 5.6 5.4 C5.5 5.6, 5.4 5.7, 5.3 5.9 C5.2 6, 5.1 6.2, 5 6.3 C4.8 6.5, 4.7 6.6, 4.5 6.7 C4.4 6.8, 4.2 6.9, 4 7 C3.9 7, 3.7 7.1, 3.5 7.1 C3.4 7.2, 3.2 7.2, 3 7.2 C2.8 7.2, 2.7 7.2, 2.5 7.1 C2.3 7.1, 2.1 7, 2 7 C1.8 6.9, 1.7 6.8, 1.5 6.7 C1.4 6.6, 1.2 6.5, 1.1 6.3 C0.9 6.2, 0.8 6, 0.7 5.9 C0.6 5.7, 0.5 5.6, 0.4 5.4 C0.3 5.2, 0.2 5, 0.2 4.8 C0.1 4.6, 0.1 4.4, 0.1 4.2 C0 4, 0 3.8, 0 3.6 C0 3.4, 0 3.2, 0.1 3 C0.1 2.8, 0.1 2.6, 0.2 2.4 C0.2 2.2, 0.3 2, 0.4 1.8 C0.5 1.6, 0.6 1.4, 0.7 1.3 C0.8 1.1, 0.9 1, 1.1 0.8 C1.2 0.7, 1.4 0.6, 1.5 0.5 C1.7 0.4, 1.8 0.3, 2 0.2 C2.1 0.1, 2.3 0.1, 2.5 0.1 C2.7 0, 2.8 0, 3 0 C3.2 0, 3.4 0, 3.5 0.1 C3.7 0.1, 3.9 0.1, 4 0.2 C4.2 0.3, 4.4 0.4, 4.5 0.5 C4.7 0.6, 4.8 0.7, 5 0.8 C5.1 1, 5.2 1.1, 5.3 1.3 C5.4 1.4, 5.5 1.6, 5.6 1.8 C5.7 2, 5.8 2.2, 5.8 2.4 C5.9 2.6, 6 2.8, 6 3 C6 3.2, 6 3.5, 6 3.6 C6 3.7, 6 3.5, 6 3.6" stroke="#1e1e1e" stroke-width="2" fill="none"></path></g><g stroke-linecap="round"><g transform="translate(536.4 45.6) rotate(0 2.1 -14.7)"><path d="M0 0 C0.7 -2.7, 3.7 -11.4, 4.2 -16.2 C4.8 -21.1, 3.4 -27.1, 3.2 -29.3 M0 0 C0.7 -2.7, 3.7 -11.4, 4.2 -16.2 C4.8 -21.1, 3.4 -27.1, 3.2 -29.3" stroke="#1e1e1e" stroke-width="2" fill="none"></path></g></g><mask></mask><g stroke-linecap="round" transform="translate(515.6 47.4) rotate(0 23.1 26.4)"><path d="M46.2 26.4 C46.2 27.9, 46.1 29.5, 45.9 31 C45.6 32.5, 45.3 34, 44.8 35.5 C44.4 36.9, 43.8 38.3, 43.1 39.6 C42.5 41, 41.7 42.2, 40.8 43.4 C40 44.6, 39 45.7, 38 46.6 C36.9 47.6, 35.8 48.5, 34.7 49.3 C33.5 50, 32.3 50.7, 31 51.2 C29.8 51.8, 28.4 52.2, 27.1 52.4 C25.8 52.7, 24.4 52.8, 23.1 52.8 C21.8 52.8, 20.4 52.7, 19.1 52.4 C17.8 52.2, 16.5 51.8, 15.2 51.2 C13.9 50.7, 12.7 50, 11.6 49.3 C10.4 48.5, 9.3 47.6, 8.3 46.6 C7.2 45.7, 6.3 44.6, 5.4 43.4 C4.5 42.2, 3.8 41, 3.1 39.6 C2.4 38.3, 1.9 36.9, 1.4 35.5 C0.9 34, 0.6 32.5, 0.3 31 C0.1 29.5, 0 27.9, 0 26.4 C0 24.9, 0.1 23.3, 0.3 21.8 C0.6 20.3, 0.9 18.8, 1.4 17.4 C1.9 15.9, 2.4 14.5, 3.1 13.2 C3.8 11.9, 4.5 10.6, 5.4 9.4 C6.3 8.3, 7.2 7.2, 8.3 6.2 C9.3 5.2, 10.4 4.3, 11.6 3.5 C12.7 2.8, 13.9 2.1, 15.2 1.6 C16.5 1.1, 17.8 0.7, 19.1 0.4 C20.4 0.1, 21.8 0, 23.1 0 C24.4 0, 25.8 0.1, 27.1 0.4 C28.4 0.7, 29.8 1.1, 31 1.6 C32.3 2.1, 33.5 2.8, 34.7 3.5 C35.8 4.3, 36.9 5.2, 38 6.2 C39 7.2, 40 8.3, 40.8 9.4 C41.7 10.6, 42.5 11.9, 43.1 13.2 C43.8 14.5, 44.4 15.9, 44.8 17.4 C45.3 18.8, 45.6 20.3, 45.9 21.8 C46.1 23.3, 46.2 25.6, 46.2 26.4 C46.3 27.2, 46.3 25.6, 46.2 26.4" stroke="none" stroke-width="0" fill="#d5d5d5"></path><path d="M46.2 26.4 C46.2 27.9, 46.1 29.5, 45.9 31 C45.6 32.5, 45.3 34, 44.8 35.5 C44.4 36.9, 43.8 38.3, 43.1 39.6 C42.5 41, 41.7 42.2, 40.8 43.4 C40 44.6, 39 45.7, 38 46.6 C36.9 47.6, 35.8 48.5, 34.7 49.3 C33.5 50, 32.3 50.7, 31 51.2 C29.8 51.8, 28.4 52.2, 27.1 52.4 C25.8 52.7, 24.4 52.8, 23.1 52.8 C21.8 52.8, 20.4 52.7, 19.1 52.4 C17.8 52.2, 16.5 51.8, 15.2 51.2 C13.9 50.7, 12.7 50, 11.6 49.3 C10.4 48.5, 9.3 47.6, 8.3 46.6 C7.2 45.7, 6.3 44.6, 5.4 43.4 C4.5 42.2, 3.8 41, 3.1 39.6 C2.4 38.3, 1.9 36.9, 1.4 35.5 C0.9 34, 0.6 32.5, 0.3 31 C0.1 29.5, 0 27.9, 0 26.4 C0 24.9, 0.1 23.3, 0.3 21.8 C0.6 20.3, 0.9 18.8, 1.4 17.4 C1.9 15.9, 2.4 14.5, 3.1 13.2 C3.8 11.9, 4.5 10.6, 5.4 9.4 C6.3 8.3, 7.2 7.2, 8.3 6.2 C9.3 5.2, 10.4 4.3, 11.6 3.5 C12.7 2.8, 13.9 2.1, 15.2 1.6 C16.5 1.1, 17.8 0.7, 19.1 0.4 C20.4 0.1, 21.8 0, 23.1 0 C24.4 0, 25.8 0.1, 27.1 0.4 C28.4 0.7, 29.8 1.1, 31 1.6 C32.3 2.1, 33.5 2.8, 34.7 3.5 C35.8 4.3, 36.9 5.2, 38 6.2 C39 7.2, 40 8.3, 40.8 9.4 C41.7 10.6, 42.5 11.9, 43.1 13.2 C43.8 14.5, 44.4 15.9, 44.8 17.4 C45.3 18.8, 45.6 20.3, 45.9 21.8 C46.1 23.3, 46.2 25.6, 46.2 26.4 C46.3 27.2, 46.3 25.6, 46.2 26.4" stroke="#000000" stroke-width="4" fill="none"></path></g><g stroke-linecap="round"><g transform="translate(538.8 99.7) rotate(0 -1.6 44.7)"><path d="M0 0 C-0.5 14.9, -2.7 74.5, -3.2 89.4 M0 0 C-0.5 14.9, -2.7 74.5, -3.2 89.4" stroke="#1e1e1e" stroke-width="4" fill="none"></path></g></g><mask></mask><g stroke-linecap="round"><g transform="translate(545.1 89.6) rotate(0 -7.6 0.6)" fill-rule="evenodd"><path d="M0 0 C-1.3 0.5, -5.4 3.2, -7.9 2.9 C-10.4 2.6, -15.2 -1.4, -15.2 -1.7 C-15.3 -2.1, -10.7 0.4, -8.2 0.7 C-5.7 1, -1.4 0.1, 0 0" stroke="none" stroke-width="0" fill="#000000" fill-rule="evenodd"></path><path d="M0 0 C-1.3 0.5, -5.4 3.2, -7.9 2.9 C-10.4 2.6, -15.2 -1.4, -15.2 -1.7 C-15.3 -2.1, -10.7 0.4, -8.2 0.7 C-5.7 1, -1.4 0.1, 0 0 M0 0 C-1.3 0.5, -5.4 3.2, -7.9 2.9 C-10.4 2.6, -15.2 -1.4, -15.2 -1.7 C-15.3 -2.1, -10.7 0.4, -8.2 0.7 C-5.7 1, -1.4 0.1, 0 0" stroke="#000000" stroke-width="2" fill="none"></path></g></g><mask></mask><g stroke-linecap="round"><g transform="translate(537.1 118.5) rotate(0 -15.7 12.9)"><path d="M0 0 C-5.2 4.3, -26.1 21.4, -31.3 25.7 M0 0 C-5.2 4.3, -26.1 21.4, -31.3 25.7" stroke="#000000" stroke-width="4" fill="none"></path></g></g><mask></mask><g stroke-linecap="round"><g transform="translate(539.2 118.6) rotate(0 15.9 20.7)"><path d="M0 0 C5.3 0.8, 28.3 -1.8, 31.7 5.1 C35.1 12, 22.3 35.4, 20.4 41.4 M0 0 C5.3 0.8, 28.3 -1.8, 31.7 5.1 C35.1 12, 22.3 35.4, 20.4 41.4" stroke="#000000" stroke-width="4" fill="none"></path></g></g><mask></mask><g stroke-linecap="round" transform="translate(523.9 63.7) rotate(0 14.7 6.3)"><path d="M29.4 6.3 C29.4 6.7, 29.3 7, 29.2 7.4 C29 7.8, 28.8 8.1, 28.5 8.5 C28.2 8.8, 27.9 9.1, 27.4 9.5 C27 9.8, 26.5 10.1, 26 10.4 C25.4 10.6, 24.8 10.9, 24.1 11.1 C23.5 11.4, 22.8 11.6, 22.1 11.8 C21.3 11.9, 20.5 12.1, 19.7 12.2 C18.9 12.4, 18.1 12.4, 17.3 12.5 C16.4 12.6, 15.6 12.6, 14.7 12.6 C13.8 12.6, 13 12.6, 12.2 12.5 C11.3 12.4, 10.5 12.4, 9.7 12.2 C8.9 12.1, 8.1 11.9, 7.3 11.8 C6.6 11.6, 5.9 11.4, 5.3 11.1 C4.6 10.9, 4 10.6, 3.4 10.4 C2.9 10.1, 2.4 9.8, 2 9.5 C1.5 9.1, 1.2 8.8, 0.9 8.5 C0.6 8.1, 0.4 7.8, 0.2 7.4 C0.1 7, 0 6.7, 0 6.3 C0 5.9, 0.1 5.6, 0.2 5.2 C0.4 4.8, 0.6 4.5, 0.9 4.2 C1.2 3.8, 1.5 3.5, 2 3.1 C2.4 2.8, 2.9 2.5, 3.4 2.3 C4 2, 4.6 1.7, 5.3 1.5 C5.9 1.2, 6.6 1, 7.3 0.8 C8.1 0.7, 8.9 0.5, 9.7 0.4 C10.5 0.3, 11.3 0.2, 12.2 0.1 C13 0, 13.8 0, 14.7 0 C15.6 0, 16.4 0, 17.3 0.1 C18.1 0.2, 18.9 0.3, 19.7 0.4 C20.5 0.5, 21.3 0.7, 22.1 0.8 C22.8 1, 23.5 1.2, 24.1 1.5 C24.8 1.7, 25.4 2, 26 2.3 C26.5 2.5, 27 2.8, 27.4 3.1 C27.9 3.5, 28.2 3.8, 28.5 4.2 C28.8 4.5, 29 4.8, 29.2 5.2 C29.3 5.6, 29.4 6.1, 29.4 6.3 C29.4 6.5, 29.4 6.1, 29.4 6.3" stroke="none" stroke-width="0" fill="#ffffff"></path><path d="M29.4 6.3 C29.4 6.7, 29.3 7, 29.2 7.4 C29 7.8, 28.8 8.1, 28.5 8.5 C28.2 8.8, 27.9 9.1, 27.4 9.5 C27 9.8, 26.5 10.1, 26 10.4 C25.4 10.6, 24.8 10.9, 24.1 11.1 C23.5 11.4, 22.8 11.6, 22.1 11.8 C21.3 11.9, 20.5 12.1, 19.7 12.2 C18.9 12.4, 18.1 12.4, 17.3 12.5 C16.4 12.6, 15.6 12.6, 14.7 12.6 C13.8 12.6, 13 12.6, 12.2 12.5 C11.3 12.4, 10.5 12.4, 9.7 12.2 C8.9 12.1, 8.1 11.9, 7.3 11.8 C6.6 11.6, 5.9 11.4, 5.3 11.1 C4.6 10.9, 4 10.6, 3.4 10.4 C2.9 10.1, 2.4 9.8, 2 9.5 C1.5 9.1, 1.2 8.8, 0.9 8.5 C0.6 8.1, 0.4 7.8, 0.2 7.4 C0.1 7, 0 6.7, 0 6.3 C0 5.9, 0.1 5.6, 0.2 5.2 C0.4 4.8, 0.6 4.5, 0.9 4.2 C1.2 3.8, 1.5 3.5, 2 3.1 C2.4 2.8, 2.9 2.5, 3.4 2.3 C4 2, 4.6 1.7, 5.3 1.5 C5.9 1.2, 6.6 1, 7.3 0.8 C8.1 0.7, 8.9 0.5, 9.7 0.4 C10.5 0.3, 11.3 0.2, 12.2 0.1 C13 0, 13.8 0, 14.7 0 C15.6 0, 16.4 0, 17.3 0.1 C18.1 0.2, 18.9 0.3, 19.7 0.4 C20.5 0.5, 21.3 0.7, 22.1 0.8 C22.8 1, 23.5 1.2, 24.1 1.5 C24.8 1.7, 25.4 2, 26 2.3 C26.5 2.5, 27 2.8, 27.4 3.1 C27.9 3.5, 28.2 3.8, 28.5 4.2 C28.8 4.5, 29 4.8, 29.2 5.2 C29.3 5.6, 29.4 6.1, 29.4 6.3 C29.4 6.5, 29.4 6.1, 29.4 6.3" stroke="#1e1e1e" stroke-width="4" fill="none"></path></g><g stroke-linecap="round" transform="translate(535.8 67.8) rotate(0 2.9 1.9)"><path d="M5.8 1.9 C5.8 2, 5.8 2.1, 5.8 2.2 C5.8 2.3, 5.7 2.4, 5.7 2.5 C5.6 2.6, 5.5 2.7, 5.4 2.8 C5.4 2.9, 5.3 3, 5.2 3.1 C5 3.2, 4.9 3.3, 4.8 3.3 C4.7 3.4, 4.5 3.5, 4.4 3.5 C4.2 3.6, 4.1 3.6, 3.9 3.7 C3.8 3.7, 3.6 3.7, 3.4 3.7 C3.3 3.8, 3.1 3.8, 2.9 3.8 C2.8 3.8, 2.6 3.8, 2.4 3.7 C2.2 3.7, 2.1 3.7, 1.9 3.7 C1.8 3.6, 1.6 3.6, 1.5 3.5 C1.3 3.5, 1.2 3.4, 1 3.3 C0.9 3.3, 0.8 3.2, 0.7 3.1 C0.6 3, 0.5 2.9, 0.4 2.8 C0.3 2.7, 0.2 2.6, 0.2 2.5 C0.1 2.4, 0.1 2.3, 0 2.2 C0 2.1, 0 2, 0 1.9 C0 1.8, 0 1.7, 0 1.6 C0.1 1.4, 0.1 1.3, 0.2 1.2 C0.2 1.1, 0.3 1, 0.4 0.9 C0.5 0.8, 0.6 0.8, 0.7 0.7 C0.8 0.6, 0.9 0.5, 1 0.4 C1.2 0.4, 1.3 0.3, 1.5 0.3 C1.6 0.2, 1.8 0.1, 1.9 0.1 C2.1 0.1, 2.2 0.1, 2.4 0 C2.6 0, 2.8 0, 2.9 0 C3.1 0, 3.3 0, 3.4 0 C3.6 0.1, 3.8 0.1, 3.9 0.1 C4.1 0.1, 4.2 0.2, 4.4 0.3 C4.5 0.3, 4.7 0.4, 4.8 0.4 C4.9 0.5, 5 0.6, 5.2 0.7 C5.3 0.8, 5.4 0.8, 5.4 0.9 C5.5 1, 5.6 1.1, 5.7 1.2 C5.7 1.3, 5.8 1.4, 5.8 1.6 C5.8 1.7, 5.8 1.8, 5.8 1.9 C5.8 1.9, 5.8 1.8, 5.8 1.9" stroke="none" stroke-width="0" fill="#000000"></path><path d="M5.8 1.9 C5.8 2, 5.8 2.1, 5.8 2.2 C5.8 2.3, 5.7 2.4, 5.7 2.5 C5.6 2.6, 5.5 2.7, 5.4 2.8 C5.4 2.9, 5.3 3, 5.2 3.1 C5 3.2, 4.9 3.3, 4.8 3.3 C4.7 3.4, 4.5 3.5, 4.4 3.5 C4.2 3.6, 4.1 3.6, 3.9 3.7 C3.8 3.7, 3.6 3.7, 3.4 3.7 C3.3 3.8, 3.1 3.8, 2.9 3.8 C2.8 3.8, 2.6 3.8, 2.4 3.7 C2.2 3.7, 2.1 3.7, 1.9 3.7 C1.8 3.6, 1.6 3.6, 1.5 3.5 C1.3 3.5, 1.2 3.4, 1 3.3 C0.9 3.3, 0.8 3.2, 0.7 3.1 C0.6 3, 0.5 2.9, 0.4 2.8 C0.3 2.7, 0.2 2.6, 0.2 2.5 C0.1 2.4, 0.1 2.3, 0 2.2 C0 2.1, 0 2, 0 1.9 C0 1.8, 0 1.7, 0 1.6 C0.1 1.4, 0.1 1.3, 0.2 1.2 C0.2 1.1, 0.3 1, 0.4 0.9 C0.5 0.8, 0.6 0.8, 0.7 0.7 C0.8 0.6, 0.9 0.5, 1 0.4 C1.2 0.4, 1.3 0.3, 1.5 0.3 C1.6 0.2, 1.8 0.1, 1.9 0.1 C2.1 0.1, 2.2 0.1, 2.4 0 C2.6 0, 2.8 0, 2.9 0 C3.1 0, 3.3 0, 3.4 0 C3.6 0.1, 3.8 0.1, 3.9 0.1 C4.1 0.1, 4.2 0.2, 4.4 0.3 C4.5 0.3, 4.7 0.4, 4.8 0.4 C4.9 0.5, 5 0.6, 5.2 0.7 C5.3 0.8, 5.4 0.8, 5.4 0.9 C5.5 1, 5.6 1.1, 5.7 1.2 C5.7 1.3, 5.8 1.4, 5.8 1.6 C5.8 1.7, 5.8 1.8, 5.8 1.9 C5.8 1.9, 5.8 1.8, 5.8 1.9" stroke="#000000" stroke-width="2" fill="none"></path></g><g stroke-linecap="round"><g transform="translate(547.2 49.1) rotate(0 6.8 -11)"><path d="M0 0 C0.7 -3.2, 2.1 -15.6, 4.4 -19.2 C6.7 -22.9, 12.1 -21.6, 13.6 -22.1 M0 0 C0.7 -3.2, 2.1 -15.6, 4.4 -19.2 C6.7 -22.9, 12.1 -21.6, 13.6 -22.1" stroke="#1e1e1e" stroke-width="2" fill="none"></path></g></g><mask></mask><g stroke-linecap="round"><g transform="translate(535 189.8) rotate(0 -8.6 24.9)"><path d="M0 0 C-2.9 8.3, -14.4 41.5, -17.2 49.8 M0 0 C-2.9 8.3, -14.4 41.5, -17.2 49.8" stroke="#1e1e1e" stroke-width="4" fill="none"></path></g></g><mask></mask><g stroke-linecap="round"><g transform="translate(535.9 190.8) rotate(0 5.5 25.4)"><path d="M0 0 C1.8 8.4, 9.2 42.3, 11.1 50.7 M0 0 C1.8 8.4, 9.2 42.3, 11.1 50.7" stroke="#1e1e1e" stroke-width="4" fill="none"></path></g></g><mask></mask><g stroke-linecap="round" transform="translate(535.2 10) rotate(0 3 3.6)"><path d="M6 3.6 C6 3.8, 6 4, 6 4.2 C6 4.4, 5.9 4.6, 5.8 4.8 C5.8 5, 5.7 5.2, 5.6 5.4 C5.5 5.6, 5.4 5.7, 5.3 5.9 C5.2 6, 5.1 6.2, 5 6.3 C4.8 6.5, 4.7 6.6, 4.5 6.7 C4.4 6.8, 4.2 6.9, 4 7 C3.9 7, 3.7 7.1, 3.5 7.1 C3.4 7.2, 3.2 7.2, 3 7.2 C2.8 7.2, 2.7 7.2, 2.5 7.1 C2.3 7.1, 2.1 7, 2 7 C1.8 6.9, 1.7 6.8, 1.5 6.7 C1.4 6.6, 1.2 6.5, 1.1 6.3 C0.9 6.2, 0.8 6, 0.7 5.9 C0.6 5.7, 0.5 5.6, 0.4 5.4 C0.3 5.2, 0.2 5, 0.2 4.8 C0.1 4.6, 0.1 4.4, 0.1 4.2 C0 4, 0 3.8, 0 3.6 C0 3.4, 0 3.2, 0.1 3 C0.1 2.8, 0.1 2.6, 0.2 2.4 C0.2 2.2, 0.3 2, 0.4 1.8 C0.5 1.6, 0.6 1.4, 0.7 1.3 C0.8 1.1, 0.9 1, 1.1 0.8 C1.2 0.7, 1.4 0.6, 1.5 0.5 C1.7 0.4, 1.8 0.3, 2 0.2 C2.1 0.1, 2.3 0.1, 2.5 0.1 C2.7 0, 2.8 0, 3 0 C3.2 0, 3.4 0, 3.5 0.1 C3.7 0.1, 3.9 0.1, 4 0.2 C4.2 0.3, 4.4 0.4, 4.5 0.5 C4.7 0.6, 4.8 0.7, 5 0.8 C5.1 1, 5.2 1.1, 5.3 1.3 C5.4 1.4, 5.5 1.6, 5.6 1.8 C5.7 2, 5.8 2.2, 5.8 2.4 C5.9 2.6, 6 2.8, 6 3 C6 3.2, 6 3.5, 6 3.6 C6 3.7, 6 3.5, 6 3.6" stroke="none" stroke-width="0" fill="#ffc9c9"></path><path d="M6 3.6 C6 3.8, 6 4, 6 4.2 C6 4.4, 5.9 4.6, 5.8 4.8 C5.8 5, 5.7 5.2, 5.6 5.4 C5.5 5.6, 5.4 5.7, 5.3 5.9 C5.2 6, 5.1 6.2, 5 6.3 C4.8 6.5, 4.7 6.6, 4.5 6.7 C4.4 6.8, 4.2 6.9, 4 7 C3.9 7, 3.7 7.1, 3.5 7.1 C3.4 7.2, 3.2 7.2, 3 7.2 C2.8 7.2, 2.7 7.2, 2.5 7.1 C2.3 7.1, 2.1 7, 2 7 C1.8 6.9, 1.7 6.8, 1.5 6.7 C1.4 6.6, 1.2 6.5, 1.1 6.3 C0.9 6.2, 0.8 6, 0.7 5.9 C0.6 5.7, 0.5 5.6, 0.4 5.4 C0.3 5.2, 0.2 5, 0.2 4.8 C0.1 4.6, 0.1 4.4, 0.1 4.2 C0 4, 0 3.8, 0 3.6 C0 3.4, 0 3.2, 0.1 3 C0.1 2.8, 0.1 2.6, 0.2 2.4 C0.2 2.2, 0.3 2, 0.4 1.8 C0.5 1.6, 0.6 1.4, 0.7 1.3 C0.8 1.1, 0.9 1, 1.1 0.8 C1.2 0.7, 1.4 0.6, 1.5 0.5 C1.7 0.4, 1.8 0.3, 2 0.2 C2.1 0.1, 2.3 0.1, 2.5 0.1 C2.7 0, 2.8 0, 3 0 C3.2 0, 3.4 0, 3.5 0.1 C3.7 0.1, 3.9 0.1, 4 0.2 C4.2 0.3, 4.4 0.4, 4.5 0.5 C4.7 0.6, 4.8 0.7, 5 0.8 C5.1 1, 5.2 1.1, 5.3 1.3 C5.4 1.4, 5.5 1.6, 5.6 1.8 C5.7 2, 5.8 2.2, 5.8 2.4 C5.9 2.6, 6 2.8, 6 3 C6 3.2, 6 3.5, 6 3.6 C6 3.7, 6 3.5, 6 3.6" stroke="#1e1e1e" stroke-width="2" fill="none"></path></g><g transform="translate(500.3 61.8) rotate(0 7.2 22.5)"><text x="7.2" y="31.7" font-family="Excalifont" font-size="36px" fill="#1e1e1e" text-anchor="middle" style="white-space: pre;" direction="ltr" dominant-baseline="alphabetic">)</text></g></svg>