<svg class="figure-svg" role="img" version="1.1" xmlns="http://www.w3.org/2000/svg" viewBox="0 0 176.3 218.5"><title>gimmick_database</title><defs></defs><g stroke-linecap="round"><g transform="translate(12.6 26.6) rotate(0 75.7 82.2)" fill-rule="evenodd"><path d="M-0.8 -0.9 C-0.8 23.5, 0.1 120, 0.6 147.8 C1.1 175.7, 0.9 162, 2.2 166.1 C3.5 170.2, 3.3 170.5, 8.5 172.3 C13.8 174.2, 21.7 175.9, 33.8 177.2 C45.8 178.5, 65.6 180.6, 80.8 180.2 C95.9 179.8, 113.6 176.2, 124.7 174.7 C135.7 173.3, 142.9 173.4, 147.1 171.6 C151.3 169.8, 149.4 167.8, 150 163.9 C150.5 160, 150.3 173.7, 150.3 148 C150.4 122.4, 150.7 34.8, 150.3 10.1 C150 -14.6, 149.5 2.6, 148.1 -0.1 C146.8 -2.8, 146.9 -4.2, 142.2 -6 C137.4 -7.8, 131.3 -8.9, 119.5 -10.9 C107.8 -12.8, 85.5 -17.4, 71.8 -17.6 C58 -17.8, 48.2 -13.3, 37 -11.8 C25.7 -10.2, 10.8 -9.9, 4.4 -8.2 C-1.9 -6.5, -0.6 -3.1, -1.3 -1.5 C-1.9 0.2, 0.5 1.7, 0.3 1.6" stroke="none" stroke-width="0" fill="#228be6" fill-rule="evenodd"></path><path d="M-0.1 -0.7 C0.1 24, 0.3 120.2, 0.3 147.8 C0.4 175.5, -0.9 161.4, 0.3 165.5 C1.5 169.6, 1.9 170.3, 7.6 172.4 C13.3 174.6, 22.3 177.2, 34.3 178.4 C46.4 179.6, 64.6 179.7, 79.8 179.4 C95 179.2, 114 178.6, 125.4 177.1 C136.9 175.6, 144.1 172.6, 148.5 170.4 C152.8 168.2, 151.4 167.3, 151.8 163.9 C152.1 160.5, 150.6 174.8, 150.3 149.7 C150 124.7, 150.1 38.4, 150.1 13.3 C150.2 -11.6, 152.1 3.5, 150.6 -0.2 C149 -3.9, 145.8 -6.9, 140.8 -8.8 C135.8 -10.8, 132.1 -10.8, 120.7 -12.1 C109.3 -13.4, 86.2 -16.3, 72.3 -16.6 C58.3 -16.9, 47.7 -15.7, 36.9 -13.9 C26.1 -12.1, 13.4 -8, 7.4 -5.8 C1.4 -3.7, 1.9 -2.1, 0.7 -1 C-0.6 0, -0.1 0.4, -0.3 0.5 M-1.6 1.6 C-1.5 26.4, -0.9 122.4, -0.7 149.4 C-0.5 176.4, -1.7 160.1, -0.3 163.6 C1.1 167.1, 1.7 167.6, 7.8 170.1 C13.8 172.7, 24.1 177, 36.2 178.9 C48.4 180.9, 66.3 182.3, 80.8 181.8 C95.2 181.3, 111.7 177.8, 122.9 175.9 C134.1 174, 143.2 172.6, 147.8 170.4 C152.4 168.3, 150 166.3, 150.5 162.8 C150.9 159.2, 150.6 174.5, 150.5 149.2 C150.4 123.9, 150.1 36.1, 149.9 11.2 C149.7 -13.8, 150.8 2.5, 149.3 -0.5 C147.9 -3.4, 146 -4.6, 141.2 -6.5 C136.3 -8.5, 131.9 -11.1, 120.3 -12.4 C108.8 -13.6, 86.3 -13.9, 72 -14 C57.8 -14.1, 45.7 -14.4, 34.8 -12.9 C23.9 -11.4, 12.5 -6.8, 6.6 -4.8 C0.8 -2.9, 1.2 -2.1, -0.2 -1.2 C-1.6 -0.2, -1.9 0.7, -1.8 1" stroke="#0a11d3" stroke-width="1" fill="none"></path></g></g><mask></mask><g stroke-linecap="round"><g transform="translate(13.8 138.8) rotate(0 75.9 7.6)"><path d="M-0.2 0 C0.5 1.4, 0.8 5.4, 4.3 7.5 C7.8 9.7, 14.5 11.4, 21 12.8 C27.6 14.3, 33.9 15.6, 43.6 16 C53.3 16.5, 66 15.8, 79.2 15.5 C92.4 15.2, 111.7 15.5, 123 14.1 C134.3 12.6, 142.3 9.2, 147.3 6.8 C152.2 4.3, 151.9 1, 152.4 -0.3 M-1.8 -1 C-1.2 0.1, -0.2 3.9, 3.5 5.9 C7.2 7.8, 13.5 8.8, 20.2 10.8 C26.9 12.7, 33.4 16.5, 43.6 17.3 C53.7 18.1, 68 16.3, 80.9 15.6 C93.9 14.9, 110 14.8, 121.2 13.1 C132.5 11.5, 143.2 8.1, 148.3 5.8 C153.4 3.5, 151.2 0.9, 151.8 -0.4" stroke="#0a11d3" stroke-width="1" fill="none"></path></g></g><mask></mask><g stroke-linecap="round"><g transform="translate(11.9 82) rotate(0 75.9 7.6)"><path d="M0.3 0.8 C1 2, 0.4 5.2, 3.8 7.2 C7.2 9.2, 14.1 11.3, 20.7 12.6 C27.3 14, 33.2 14.6, 43.3 15.2 C53.3 15.8, 67.8 16.3, 81.1 16.2 C94.3 16.1, 111.7 16.3, 122.8 14.7 C133.8 13, 142.6 9, 147.3 6.5 C151.9 3.9, 150 0.1, 150.5 -0.9 M-1 0.2 C-0.5 1.1, -0.7 3, 2.8 5.3 C6.2 7.7, 12.9 12.3, 19.6 14.1 C26.3 15.9, 33 15.6, 43 16 C53.1 16.4, 67.1 17.1, 80.1 16.7 C93.1 16.4, 109.5 15.9, 120.9 14 C132.3 12.1, 143 7.9, 148.3 5.3 C153.6 2.8, 151.9 -0.4, 152.6 -1.4" stroke="#0a11d3" stroke-width="1" fill="none"></path></g></g><mask></mask><g stroke-linecap="round" transform="translate(10 12.8) rotate(0 75.3 15.2)"><path d="M57.9 -0.4 C69.1 -1.1, 83.3 0.5, 95.3 1.5 C107.3 2.5, 120.8 3.8, 129.7 5.6 C138.5 7.4, 145.7 9.9, 148.5 12.3 C151.4 14.6, 150.2 17.5, 146.8 19.7 C143.4 21.9, 137.1 23.8, 128.3 25.5 C119.5 27.2, 106.2 29.3, 93.7 29.9 C81.3 30.5, 65.6 29.6, 53.6 29 C41.7 28.4, 30.7 27.9, 22 26.1 C13.4 24.2, 5 20.7, 1.7 18.1 C-1.6 15.5, -1.2 12.9, 2.3 10.5 C5.8 8, 13.1 5.2, 22.8 3.3 C32.5 1.5, 54 -0.2, 60.6 -0.5 C67.2 -0.8, 62.5 1, 62.5 1.5 M46.1 1.3 C56.9 0.2, 72.6 -0, 84.7 0.2 C96.9 0.4, 109.4 1.3, 119.2 2.6 C128.9 4, 138.6 5.9, 143.5 8.2 C148.4 10.6, 149.6 14.4, 148.6 16.9 C147.5 19.3, 144.5 21, 137.1 23.1 C129.7 25.1, 115.7 27.9, 104 29.1 C92.4 30.4, 79.5 31.1, 67.1 30.6 C54.6 30.1, 39.7 27.8, 29.4 26.2 C19.1 24.6, 10.1 22.9, 5.3 21 C0.5 19.1, -1 17, 0.7 14.7 C2.4 12.4, 8.2 9.4, 15.6 7.2 C23 4.9, 40 2.3, 45.1 1.4 C50.3 0.5, 45.9 1.4, 46.6 1.6" stroke="none" stroke-width="0" fill="#fff"></path><path d="M57.4 1.2 C68.7 0.7, 84.7 0.6, 96.9 1.2 C109.1 1.9, 122 3.8, 130.6 5.4 C139.3 7, 146.1 8.5, 148.9 10.7 C151.7 12.9, 150.8 16.1, 147.3 18.7 C143.8 21.4, 136.9 24.6, 127.8 26.5 C118.8 28.4, 105.5 29.6, 93.1 30.2 C80.6 30.9, 65 31.3, 53 30.4 C40.9 29.4, 29.1 26.6, 20.5 24.8 C11.9 23, 4.2 21.8, 1.2 19.6 C-1.7 17.4, -1 14.1, 2.8 11.6 C6.6 9.2, 13.3 6.8, 24 4.8 C34.6 2.8, 57.7 0.6, 66.6 -0.1 C75.5 -0.9, 77.3 -0, 77.4 0.3 M93.4 0.5 C105.5 1.1, 119.7 3.3, 128.8 5.1 C137.9 6.9, 144.9 9.1, 148.1 11.3 C151.2 13.4, 150.8 15.9, 147.7 18.3 C144.6 20.8, 138.2 24.2, 129.6 25.9 C121 27.6, 108.5 27.6, 96.3 28.5 C84.2 29.4, 69.2 31.5, 56.9 31.2 C44.5 30.9, 31.6 28.6, 22.5 26.5 C13.4 24.3, 5.7 21, 2.3 18.3 C-1.2 15.6, -1.2 12.4, 1.7 10.2 C4.6 7.9, 10.8 6.4, 19.7 5 C28.6 3.6, 43.1 2.3, 55.4 1.7 C67.6 1.1, 86.9 1.5, 93 1.2 C99.1 0.8, 92.1 -0.8, 92 -0.5" stroke="#0a11d3" stroke-width="1" fill="none"></path></g><g stroke-linecap="round" transform="translate(132.8 55.1) rotate(0 11 12)"><path d="M13.1 -0.2 C15.2 0.1, 17.5 2.5, 19 4.4 C20.6 6.3, 22.4 9, 22.4 11.4 C22.4 13.9, 20.8 17.3, 19.2 19.4 C17.6 21.4, 15 23.4, 12.8 23.8 C10.6 24.3, 8 23.2, 5.9 22 C3.8 20.8, 1.1 18.9, 0.3 16.6 C-0.6 14.4, -0.2 10.9, 0.7 8.5 C1.6 6, 3.5 3.4, 5.5 2 C7.5 0.7, 11.4 0.7, 12.8 0.4 C14.2 0.1, 13.8 0, 13.8 0.2 M9.1 -0.1 C11.3 -0.9, 13.8 -0.3, 15.8 1 C17.7 2.3, 20.1 4.9, 20.9 7.4 C21.8 10, 21.6 14, 20.8 16.4 C20 18.8, 17.9 20.8, 16.1 22 C14.3 23.1, 12.2 23.6, 10 23.1 C7.9 22.7, 4.8 21.1, 3.1 19.2 C1.4 17.4, -0.2 14.4, -0.3 11.9 C-0.4 9.4, 1.2 6.4, 2.7 4.5 C4.3 2.5, 8.3 1, 9.2 0.3 C10.2 -0.4, 8.5 0.2, 8.4 0.3" stroke="none" stroke-width="0" fill="#fff"></path><path d="M9.1 0.5 C11.3 -0.1, 14.7 0.7, 16.8 1.8 C18.8 3, 20.8 5, 21.6 7.3 C22.3 9.5, 22.1 13, 21.4 15.5 C20.6 18, 19.1 21, 17.1 22.4 C15.1 23.8, 11.9 24.3, 9.4 23.9 C6.9 23.5, 3.8 22.1, 2.3 20.1 C0.7 18, -0 14.2, -0 11.7 C-0.1 9.1, 0.6 6.7, 2.1 4.8 C3.6 3, 7.9 1.2, 9.2 0.5 C10.5 -0.2, 10 0.5, 10 0.6 M12.3 0.4 C14.6 0.5, 17.1 1.5, 18.7 3.3 C20.3 5.1, 21.7 8.4, 22.1 11.1 C22.4 13.7, 22 17.3, 20.7 19.4 C19.3 21.5, 16.5 23.2, 14 23.7 C11.5 24.2, 8.1 23.6, 5.9 22.5 C3.8 21.4, 1.9 19.4, 1 17 C0.1 14.6, -0.1 10.4, 0.5 8.1 C1.1 5.7, 2.7 4, 4.6 2.7 C6.5 1.4, 10.6 0.7, 11.8 0.2 C13 -0.3, 11.8 -0.3, 11.7 -0.3" stroke="#0a11d3" stroke-width="1" fill="none"></path></g><g stroke-linecap="round" transform="translate(132.8 107.6) rotate(0 11 12)"><path d="M10 0.2 C12.3 -0.1, 16.1 0.5, 18 2 C19.9 3.4, 21 6.4, 21.4 9 C21.8 11.6, 21.5 15.2, 20.6 17.5 C19.6 19.7, 17.9 21.5, 15.7 22.6 C13.5 23.6, 9.7 24.5, 7.4 23.9 C5.1 23.3, 3 21.2, 1.9 19 C0.6 16.8, -0.1 13.5, 0.2 10.9 C0.4 8.3, 1.2 5.2, 3.1 3.4 C5 1.5, 10.1 0.2, 11.6 -0.3 C13.1 -0.9, 12.3 0, 12.2 0.2 M13.1 -0.1 C15.2 0.3, 18.2 2.5, 19.6 4.7 C20.9 7, 21.6 10.8, 21.3 13.3 C21.1 15.9, 19.7 18.4, 18.3 20 C16.9 21.7, 15.1 23, 12.9 23.2 C10.7 23.4, 7.4 22.7, 5.3 21.3 C3.1 19.9, 0.8 17.4, 0.1 15 C-0.5 12.6, 0.2 9.4, 1.3 7.1 C2.3 4.8, 4.5 2.4, 6.5 1.3 C8.5 0.1, 12 0.3, 13.1 0.2 C14.2 -0, 13.2 -0.1, 13.2 0.1" stroke="none" stroke-width="0" fill="#fff"></path><path d="M13.5 0.6 C15.8 0.8, 18.4 2.1, 19.9 4 C21.3 5.9, 22 9.2, 22 11.9 C22 14.5, 21.2 18, 19.7 20 C18.2 22, 15.3 23.5, 12.8 23.9 C10.4 24.3, 6.9 23.9, 4.9 22.5 C2.8 21, 1.3 17.7, 0.5 15.3 C-0.2 12.9, -0.5 10.3, 0.3 8 C1.2 5.8, 3.4 3.1, 5.6 1.8 C7.8 0.6, 12.4 0.8, 13.7 0.6 C15 0.4, 13.3 0.3, 13.3 0.5 M9 -0.1 C11.1 -0.7, 14.4 0.2, 16.6 1.6 C18.8 3.1, 21.3 6, 22.1 8.4 C22.9 10.8, 22.6 14, 21.6 16.3 C20.6 18.6, 18.2 20.9, 16.1 22.1 C14.1 23.4, 11.3 24.4, 9.1 23.8 C6.8 23.3, 4.1 20.8, 2.6 18.9 C1.1 17, -0.1 14.9, -0.2 12.5 C-0.2 10.1, 0.8 6.5, 2.3 4.3 C3.8 2.2, 7.7 0.4, 8.8 -0.4 C10 -1.2, 9 -0.6, 9 -0.3" stroke="#0a11d3" stroke-width="1" fill="none"></path></g><g stroke-linecap="round" transform="translate(132.8 164.8) rotate(0 11 12)"><path d="M9.6 -0.3 C11.8 -0.9, 14.3 0, 16.3 1.4 C18.2 2.8, 20.3 5.7, 21.2 8.1 C22.1 10.4, 22.6 13.3, 21.7 15.8 C20.8 18.2, 18.1 21.4, 16 22.9 C13.9 24.3, 11.3 24.7, 9.1 24.2 C6.8 23.7, 4.2 22, 2.6 19.9 C1 17.9, -0.5 14.7, -0.4 12 C-0.3 9.3, 1.3 5.8, 3 3.8 C4.8 1.9, 8.8 0.7, 9.9 0 C11 -0.7, 9.8 -0.4, 9.8 -0.2 M9.3 -0.1 C11.5 -0.4, 14.4 1.1, 16.4 2.5 C18.3 3.9, 20.1 6, 21 8.3 C21.9 10.5, 22.6 13.8, 21.9 16.1 C21.1 18.4, 18.7 20.9, 16.4 22.1 C14.1 23.3, 10.5 23.8, 8.2 23.3 C5.9 22.9, 3.8 21.1, 2.5 19.1 C1.2 17.1, 0.3 13.9, 0.3 11.3 C0.3 8.8, 0.9 5.5, 2.4 3.6 C3.9 1.6, 8.2 0.1, 9.3 -0.4 C10.3 -1, 8.8 0.1, 9 0.2" stroke="none" stroke-width="0" fill="#fff"></path><path d="M12.9 -0.3 C15.1 -0.3, 17.7 1.6, 19.3 3.7 C20.9 5.7, 22.4 9.2, 22.5 11.8 C22.6 14.5, 21.4 17.6, 19.8 19.6 C18.2 21.6, 15.1 23.6, 12.8 24 C10.4 24.4, 7.8 23.2, 5.7 22 C3.6 20.8, 1.2 19, 0.3 16.7 C-0.5 14.5, -0.5 11, 0.4 8.5 C1.3 6.1, 3.4 3.5, 5.5 2 C7.6 0.7, 11.5 0.4, 12.9 0.1 C14.3 -0.1, 14.1 0.4, 14 0.7 M12.4 0.1 C14.8 0.3, 18.1 2.3, 19.8 4.2 C21.4 6.1, 22.3 9, 22.3 11.5 C22.2 13.9, 21 16.9, 19.5 18.9 C18.1 20.9, 15.8 23.2, 13.6 23.7 C11.3 24.2, 8.2 23, 6.1 22 C4 20.9, 1.7 19.5, 0.7 17.3 C-0.3 15, -0.5 11.3, 0.2 8.6 C0.8 6, 2.7 2.9, 4.7 1.4 C6.7 -0.2, 11 -0.5, 12.1 -0.6 C13.3 -0.8, 11.6 0.1, 11.7 0.5" stroke="#0a11d3" stroke-width="1" fill="none"></path></g></svg>