<svg class="figure-svg" role="img" version="1.1" xmlns="http://www.w3.org/2000/svg" viewBox="0 0 668 646.6"><title>val_ai_asteroid</title><defs></defs><g stroke-linecap="round" transform="translate(179.7 114.4) rotate(0 239.1 131.9)"><path d="M32 0 C131.6 -0.6, 232.4 -0.9, 446.3 0 C467.2 2.9, 477.5 10.1, 478.3 32 C476.4 86.2, 474.1 143.8, 478.3 231.9 C478.6 254.5, 466.3 266.4, 446.3 263.9 C311.7 265.4, 174.7 263.8, 32 263.9 C12.5 264.2, 2.6 251.7, 0 231.9 C5.8 170.6, 2.5 113.7, 0 32 C-1.8 13.3, 7.7 -0.2, 32 0" stroke="none" stroke-width="0" fill="#1e1e1e"></path><path d="M32 0 C180.3 -0.8, 330.1 1.1, 446.3 0 M32 0 C142.2 -1.1, 252.5 -1, 446.3 0 M446.3 0 C467.3 -1.6, 478.2 11.6, 478.3 32 M446.3 0 C469.2 2.2, 480.4 11.3, 478.3 32 M478.3 32 C477.2 102.6, 478.6 174.6, 478.3 231.9 M478.3 32 C477.7 106, 477.6 178.3, 478.3 231.9 M478.3 231.9 C478.6 252.6, 467.4 262.2, 446.3 263.9 M478.3 231.9 C480.2 252.1, 467.9 263.6, 446.3 263.9 M446.3 263.9 C328.1 264.7, 209.8 264.6, 32 263.9 M446.3 263.9 C310.7 263.2, 175.1 262.5, 32 263.9 M32 263.9 C9.4 265.4, -1.2 254, 0 231.9 M32 263.9 C11.4 265.4, -1 251.4, 0 231.9 M0 231.9 C-2.3 185, -0.7 134.7, 0 32 M0 231.9 C-0.6 192, -1 151.2, 0 32 M0 32 C-1.3 10.3, 10.4 -2, 32 0 M0 32 C-1 11.3, 10.6 -2.1, 32 0" stroke="#000000" stroke-width="4" fill="none"></path></g><g stroke-linecap="round"><g transform="translate(331.7 378.7) rotate(0 3.6 79.7)" fill-rule="evenodd"><path d="M-1.8 -2 L-43.5 159.1 L5.8 160.1 L50.5 0.8 L-1.3 -0.3" stroke="none" stroke-width="0" fill="#cd9f61" fill-rule="evenodd"></path><path d="M0 0 C-14 49, -28.1 92.3, -44.1 158 M0 0 C-16.7 55.7, -31.6 110.1, -44.1 158 M-44.1 158 C-27.5 159.9, -14.2 159.7, 5.7 159.4 M-44.1 158 C-28.1 158.7, -11.3 160.1, 5.7 159.4 M5.7 159.4 C18.3 117.5, 28.4 75.9, 51.2 1.4 M5.7 159.4 C18.9 117.1, 30.3 75.3, 51.2 1.4 M51.2 1.4 C37.4 -0.2, 23.2 -0.7, 0 0 M51.2 1.4 C34.5 1.1, 18 -0.6, 0 0 M0 0 C0 0, 0 0, 0 0 M0 0 C0 0, 0 0, 0 0" stroke="#000000" stroke-width="4" fill="none"></path></g></g><mask></mask><g stroke-linecap="round"><g transform="translate(497.7 379.4) rotate(0 -3.8 79.7)" fill-rule="evenodd"><path d="M0.7 1.1 L46.8 158.6 L-6.8 158.8 L-55.6 1.1 L-0.3 -2" stroke="none" stroke-width="0" fill="#cd9f61" fill-rule="evenodd"></path><path d="M0 0 C10 33, 22.2 69.8, 46.8 158 M0 0 C13.1 47.5, 27.6 97.3, 46.8 158 M46.8 158 C27.8 160.2, 8.5 160.4, -6 159.4 M46.8 158 C34.9 158.8, 24.2 159.1, -6 159.4 M-6 159.4 C-22.6 110.9, -37.8 61.5, -54.3 1.4 M-6 159.4 C-17.7 124.7, -28.5 91.5, -54.3 1.4 M-54.3 1.4 C-32.7 -0.3, -13.2 -0.8, 0 0 M-54.3 1.4 C-39.7 -0.1, -26.4 1.2, 0 0 M0 0 C0 0, 0 0, 0 0 M0 0 C0 0, 0 0, 0 0" stroke="#000000" stroke-width="4" fill="none"></path></g></g><mask></mask><g stroke-linecap="round" transform="translate(28.2 124.4) rotate(0 80.5 92)"><path d="M83.9 1.7 C94.3 0.8, 106.4 4.4, 116.1 9.5 C125.9 14.6, 135.6 22.5, 142.5 32.3 C149.3 42, 154.6 55.8, 157.3 67.9 C159.9 80, 160.1 92.5, 158.4 104.8 C156.6 117.2, 152.2 131.3, 146.7 141.8 C141.2 152.3, 134.1 161.2, 125.5 168.1 C116.9 175, 106.1 181.1, 95 183.3 C83.9 185.5, 69.7 184.3, 59 181.2 C48.3 178.2, 39.4 172.9, 30.9 164.9 C22.3 157.1, 12.8 145, 7.8 133.8 C2.9 122.6, 1.4 110.1, 1.2 97.6 C1 85.1, 2.9 70.7, 6.6 58.8 C10.3 46.9, 15.5 34.5, 23.2 26.1 C30.9 17.6, 39.6 12, 52.9 8.3 C66.1 4.6, 91.3 3, 102.8 3.9 C114.2 4.7, 121.6 12.1, 121.6 13.2 M72.8 0.4 C83.5 -1.7, 98.2 2.9, 108.5 6.9 C118.8 11, 126.5 16.2, 134.5 25 C142.5 33.7, 151.9 47.7, 156.5 59.4 C161.1 71.2, 163.2 83, 162.1 95.5 C161.1 107.9, 154.7 123, 150.1 134.1 C145.5 145.3, 142.6 154.3, 134.3 162.3 C126.1 170.3, 111.3 179.1, 100.4 182.3 C89.5 185.5, 79.1 184, 68.8 181.6 C58.5 179.2, 47.7 174.1, 38.8 167.9 C29.9 161.6, 21.7 154.3, 15.3 144 C9 133.8, 2.7 119.3, 0.8 106.3 C-1 93.2, 1.9 77.8, 4.4 66 C6.9 54.2, 9.9 45.2, 16 35.5 C22.1 25.7, 31.1 13.2, 40.8 7.4 C50.4 1.6, 67.5 1.9, 73.7 0.7 C79.9 -0.6, 77.6 -1.7, 78 0.1" stroke="none" stroke-width="0" fill="#d5d5d5"></path><path d="M28.8 19.9 C36.2 11.7, 50.1 7.2, 61.3 4.3 C72.4 1.5, 84.9 1, 95.6 3.1 C106.3 5.1, 116.5 9.7, 125.4 16.5 C134.3 23.2, 143.6 33.4, 149.1 43.5 C154.6 53.5, 156.9 65, 158.3 76.9 C159.7 88.8, 160 102.9, 157.6 115 C155.2 127.2, 150.6 139.9, 144 149.8 C137.3 159.7, 127.5 168.8, 117.8 174.5 C108.1 180.2, 96.9 183.4, 85.7 183.9 C74.5 184.5, 61.2 182.5, 50.7 177.9 C40.1 173.3, 30.3 165, 22.4 156.3 C14.6 147.6, 7.3 137.5, 3.5 125.9 C-0.4 114.3, -1.7 99.4, -0.8 86.6 C0.1 73.8, 0.1 62.4, 8.9 49.3 C17.7 36.2, 41.3 16.3, 52.1 8.2 C62.9 0.1, 73.1 -0.2, 73.5 0.7 M102.6 4.6 C113.4 6.2, 124.8 10.3, 132.9 18.5 C140.9 26.6, 146.5 41.7, 150.8 53.5 C155.2 65.4, 158.2 77.2, 159.1 89.6 C160 102, 160.2 117, 156.2 128 C152.3 139, 143.7 146.9, 135.4 155.6 C127.1 164.2, 116.4 175.6, 106.5 180.1 C96.6 184.5, 86.4 183, 76 182 C65.6 181.1, 54.4 180.2, 44.1 174.2 C33.9 168.2, 21.3 155.6, 14.5 146 C7.8 136.4, 5.7 127.8, 3.5 116.4 C1.3 104.9, -0.2 90.1, 1.3 77.4 C2.8 64.7, 6.7 50.6, 12.4 40 C18.1 29.4, 26.3 20.7, 35.6 13.7 C45 6.7, 57.7 -0.4, 68.6 -2 C79.5 -3.6, 95.4 3.6, 101 4.3 C106.5 5.1, 102.3 0.8, 101.9 2.4" stroke="#000000" stroke-width="4" fill="none"></path></g><g transform="translate(100 120.8) rotate(0 -34.5 -35)" stroke="none"><path fill="#1e1e1e" d="M -1.7,0.5 Q -1.7,0.5 -2.5,-2.4 -3.3,-5.3 -4.2,-8.8 -5.1,-12.4 -6,-15.6 -7,-18.8 -8.2,-21.8 -9.4,-24.9 -10.5,-27.3 -11.6,-29.8 -12.9,-32.5 -14.3,-35.3 -15.1,-37.4 -16,-39.5 -16.9,-41.1 -17.9,-42.8 -18.6,-43.7 -19.4,-44.6 -20.3,-45.8 -21.2,-47.1 -22.3,-48 -23.4,-49 -25.1,-50.7 -26.7,-52.4 -27.6,-52.9 -28.6,-53.4 -31.3,-55.4 -34,-57.4 -35.1,-57.9 -36.2,-58.3 -39.8,-60.1 -43.4,-61.8 -46,-63.2 -48.7,-64.6 -50.1,-65 -51.5,-65.5 -53.5,-66 -55.4,-66.6 -56.5,-66.7 -57.6,-66.8 -59.2,-66.9 -60.7,-66.9 -62.4,-67.2 -64.1,-67.6 -66.4,-67.7 -68.6,-67.9 -69,-68 -69.3,-68 -69.6,-68.2 -69.9,-68.4 -70.1,-68.7 -70.3,-68.9 -70.4,-69.2 -70.5,-69.5 -70.5,-69.9 -70.6,-70.2 -70.5,-70.5 -70.4,-70.9 -70.2,-71.2 -70,-71.4 -69.7,-71.6 -69.4,-71.8 -69.1,-71.9 -68.8,-72 -68.5,-72 -68.1,-72 -67.8,-71.9 -67.5,-71.8 -67.2,-71.6 -66.9,-71.4 -66.8,-71.1 -66.6,-70.8 -66.5,-70.5 -66.4,-70.2 -66.4,-69.8 -66.5,-69.5 -66.6,-69.2 -66.7,-68.8 -66.9,-68.6 -67.2,-68.3 -67.5,-68.2 -67.7,-68 -68.1,-67.9 -68.4,-67.9 -68.8,-67.9 -69.1,-68 -69.4,-68.1 -69.7,-68.2 -69.9,-68.5 -70.2,-68.7 -70.3,-69 -70.5,-69.3 -70.5,-69.7 -70.6,-70 -70.5,-70.3 -70.5,-70.7 -70.3,-71 -70.1,-71.3 -69.9,-71.5 -69.6,-71.7 -69.3,-71.8 -69,-72 -68.7,-72 -68.3,-72 -68.3,-72 -68.3,-72 -65.8,-71.8 -63.3,-71.5 -61.9,-71.1 -60.5,-70.8 -58.7,-70.7 -56.9,-70.5 -55.7,-70.2 -54.5,-69.9 -52.4,-69.4 -50.2,-68.9 -48.8,-68.2 -47.3,-67.6 -44.5,-66.4 -41.8,-65.2 -38.1,-63.5 -34.4,-61.9 -33.2,-61.2 -31.9,-60.5 -29.2,-58.5 -26.4,-56.5 -25.4,-55.7 -24.3,-54.8 -22.6,-53.3 -20.9,-51.7 -19.6,-50.4 -18.2,-49.1 -17.4,-47.7 -16.6,-46.4 -16,-45.3 -15.4,-44.1 -14.4,-42.3 -13.5,-40.5 -12.6,-38.5 -11.8,-36.5 -10.4,-33.7 -9.1,-30.9 -7.9,-28.4 -6.8,-26 -5.5,-22.8 -4.1,-19.7 -3.1,-16.4 -2.1,-13.2 -1.1,-9.7 -0.2,-6.2 0.7,-3.4 1.7,-0.5 1.7,-0.3 1.7,-0.1 1.7,0.1 1.7,0.3 1.6,0.5 1.6,0.7 1.5,0.9 1.4,1.1 1.2,1.2 1.1,1.4 0.9,1.5 0.7,1.6 0.5,1.6 0.3,1.7 0.1,1.7 -0.1,1.7 -0.3,1.7 -0.5,1.6 -0.7,1.6 -0.9,1.5 -1.1,1.3 -1.2,1.2 -1.4,1 -1.5,0.9 -1.6,0.7 -1.7,0.5 -1.7,0.5 L -1.7,0.5 Z"></path></g><g stroke-linecap="round" transform="translate(10 36.8) rotate(0 10.5 12.5)"><path d="M21 12.5 C21 13.2, 20.9 14, 20.8 14.7 C20.7 15.4, 20.6 16.1, 20.4 16.8 C20.2 17.5, 19.9 18.1, 19.6 18.8 C19.3 19.4, 18.9 20, 18.5 20.5 C18.1 21.1, 17.7 21.6, 17.3 22.1 C16.8 22.5, 16.3 23, 15.8 23.3 C15.2 23.7, 14.7 24, 14.1 24.3 C13.5 24.5, 12.9 24.7, 12.3 24.8 C11.7 24.9, 11.1 25, 10.5 25 C9.9 25, 9.3 24.9, 8.7 24.8 C8.1 24.7, 7.5 24.5, 6.9 24.3 C6.3 24, 5.8 23.7, 5.3 23.3 C4.7 23, 4.2 22.5, 3.8 22.1 C3.3 21.6, 2.9 21.1, 2.5 20.5 C2.1 20, 1.7 19.4, 1.4 18.8 C1.1 18.1, 0.8 17.5, 0.6 16.8 C0.4 16.1, 0.3 15.4, 0.2 14.7 C0.1 14, 0 13.2, 0 12.5 C0 11.8, 0.1 11, 0.2 10.3 C0.3 9.6, 0.4 8.9, 0.6 8.2 C0.8 7.5, 1.1 6.9, 1.4 6.3 C1.7 5.6, 2.1 5, 2.5 4.5 C2.9 3.9, 3.3 3.4, 3.8 2.9 C4.2 2.5, 4.7 2, 5.3 1.7 C5.8 1.3, 6.3 1, 6.9 0.8 C7.5 0.5, 8.1 0.3, 8.7 0.2 C9.3 0.1, 9.9 0, 10.5 0 C11.1 0, 11.7 0.1, 12.3 0.2 C12.9 0.3, 13.5 0.5, 14.1 0.8 C14.7 1, 15.2 1.3, 15.8 1.7 C16.3 2, 16.8 2.5, 17.3 2.9 C17.7 3.4, 18.1 3.9, 18.5 4.5 C18.9 5, 19.3 5.6, 19.6 6.3 C19.9 6.9, 20.2 7.5, 20.4 8.2 C20.6 8.9, 20.7 9.6, 20.8 10.3 C20.9 11, 21 12.1, 21 12.5 C21 12.9, 21 12.1, 21 12.5" stroke="none" stroke-width="0" fill="#b2f2bb"></path><path d="M21 12.5 C21 13.2, 20.9 14, 20.8 14.7 C20.7 15.4, 20.6 16.1, 20.4 16.8 C20.2 17.5, 19.9 18.1, 19.6 18.8 C19.3 19.4, 18.9 20, 18.5 20.5 C18.1 21.1, 17.7 21.6, 17.3 22.1 C16.8 22.5, 16.3 23, 15.8 23.3 C15.2 23.7, 14.7 24, 14.1 24.3 C13.5 24.5, 12.9 24.7, 12.3 24.8 C11.7 24.9, 11.1 25, 10.5 25 C9.9 25, 9.3 24.9, 8.7 24.8 C8.1 24.7, 7.5 24.5, 6.9 24.3 C6.3 24, 5.8 23.7, 5.3 23.3 C4.7 23, 4.2 22.5, 3.8 22.1 C3.3 21.6, 2.9 21.1, 2.5 20.5 C2.1 20, 1.7 19.4, 1.4 18.8 C1.1 18.1, 0.8 17.5, 0.6 16.8 C0.4 16.1, 0.3 15.4, 0.2 14.7 C0.1 14, 0 13.2, 0 12.5 C0 11.8, 0.1 11, 0.2 10.3 C0.3 9.6, 0.4 8.9, 0.6 8.2 C0.8 7.5, 1.1 6.9, 1.4 6.3 C1.7 5.6, 2.1 5, 2.5 4.5 C2.9 3.9, 3.3 3.4, 3.8 2.9 C4.2 2.5, 4.7 2, 5.3 1.7 C5.8 1.3, 6.3 1, 6.9 0.8 C7.5 0.5, 8.1 0.3, 8.7 0.2 C9.3 0.1, 9.9 0, 10.5 0 C11.1 0, 11.7 0.1, 12.3 0.2 C12.9 0.3, 13.5 0.5, 14.1 0.8 C14.7 1, 15.2 1.3, 15.8 1.7 C16.3 2, 16.8 2.5, 17.3 2.9 C17.7 3.4, 18.1 3.9, 18.5 4.5 C18.9 5, 19.3 5.6, 19.6 6.3 C19.9 6.9, 20.2 7.5, 20.4 8.2 C20.6 8.9, 20.7 9.6, 20.8 10.3 C20.9 11, 21 12.1, 21 12.5 C21 12.9, 21 12.1, 21 12.5" stroke="#1e1e1e" stroke-width="2" fill="none"></path></g><g stroke-linecap="round"><g transform="translate(107 307.8) rotate(0 4.3 90.6)"><path d="M-0.1 0.6 C1.6 31.1, 7.8 152.2, 9.4 182.4 M-1.5 -0.2 C-0 30.1, 7.1 150.3, 8.9 180.8" stroke="#1e1e1e" stroke-width="4" fill="none"></path></g></g><mask></mask><g stroke-linecap="round"><g transform="translate(112.2 373.3) rotate(0 61.4 -26.9)"><path d="M2.5 0.7 C23 -8.5, 104.3 -43.3, 124.6 -52.8 M0.5 -1.4 C20.5 -10.3, 102.8 -48.4, 123.2 -57.3" stroke="#000000" stroke-width="4" fill="none"></path></g></g><mask></mask><g stroke-linecap="round"><g transform="translate(105.1 373.8) rotate(0 30.6 -31.3)"><path d="M1.7 1 C11.7 -10, 53 -54.5, 62.6 -65.2 M-0.8 -0.9 C8.7 -11.7, 50.1 -53, 61.1 -62.9" stroke="#000000" stroke-width="4" fill="none"></path></g></g><mask></mask><g stroke-linecap="round" transform="translate(130.9 189.8) rotate(0 15 16.5)"><path d="M30 16.5 C30 17.5, 29.9 18.4, 29.8 19.4 C29.6 20.3, 29.4 21.3, 29.1 22.1 C28.8 23, 28.4 23.9, 28 24.8 C27.6 25.6, 27.1 26.4, 26.5 27.1 C25.9 27.8, 25.3 28.5, 24.6 29.1 C24 29.8, 23.3 30.3, 22.5 30.8 C21.8 31.3, 20.9 31.7, 20.1 32 C19.3 32.3, 18.5 32.6, 17.6 32.8 C16.8 32.9, 15.9 33, 15 33 C14.1 33, 13.3 32.9, 12.4 32.8 C11.5 32.6, 10.7 32.3, 9.9 32 C9.1 31.7, 8.3 31.3, 7.5 30.8 C6.8 30.3, 6 29.8, 5.4 29.1 C4.7 28.5, 4.1 27.8, 3.5 27.1 C3 26.4, 2.4 25.6, 2 24.8 C1.6 23.9, 1.2 23, 0.9 22.1 C0.6 21.3, 0.4 20.3, 0.2 19.4 C0.1 18.4, 0 17.5, 0 16.5 C0 15.5, 0.1 14.6, 0.2 13.6 C0.4 12.7, 0.6 11.8, 0.9 10.9 C1.2 10, 1.6 9.1, 2 8.3 C2.4 7.4, 3 6.6, 3.5 5.9 C4.1 5.2, 4.7 4.5, 5.4 3.9 C6 3.3, 6.8 2.7, 7.5 2.2 C8.3 1.7, 9.1 1.3, 9.9 1 C10.7 0.7, 11.5 0.4, 12.4 0.3 C13.3 0.1, 14.1 0, 15 0 C15.9 0, 16.8 0.1, 17.6 0.3 C18.5 0.4, 19.3 0.7, 20.1 1 C20.9 1.3, 21.8 1.7, 22.5 2.2 C23.3 2.7, 24 3.3, 24.6 3.9 C25.3 4.5, 25.9 5.2, 26.5 5.9 C27.1 6.6, 27.6 7.4, 28 8.3 C28.4 9.1, 28.8 10, 29.1 10.9 C29.4 11.8, 29.6 12.7, 29.8 13.6 C29.9 14.6, 30 16, 30 16.5 C30 17, 30 16, 30 16.5" stroke="none" stroke-width="0" fill="#ffffff"></path><path d="M30 16.5 C30 17.5, 29.9 18.4, 29.8 19.4 C29.6 20.3, 29.4 21.3, 29.1 22.1 C28.8 23, 28.4 23.9, 28 24.8 C27.6 25.6, 27.1 26.4, 26.5 27.1 C25.9 27.8, 25.3 28.5, 24.6 29.1 C24 29.8, 23.3 30.3, 22.5 30.8 C21.8 31.3, 20.9 31.7, 20.1 32 C19.3 32.3, 18.5 32.6, 17.6 32.8 C16.8 32.9, 15.9 33, 15 33 C14.1 33, 13.3 32.9, 12.4 32.8 C11.5 32.6, 10.7 32.3, 9.9 32 C9.1 31.7, 8.3 31.3, 7.5 30.8 C6.8 30.3, 6 29.8, 5.4 29.1 C4.7 28.5, 4.1 27.8, 3.5 27.1 C3 26.4, 2.4 25.6, 2 24.8 C1.6 23.9, 1.2 23, 0.9 22.1 C0.6 21.3, 0.4 20.3, 0.2 19.4 C0.1 18.4, 0 17.5, 0 16.5 C0 15.5, 0.1 14.6, 0.2 13.6 C0.4 12.7, 0.6 11.8, 0.9 10.9 C1.2 10, 1.6 9.1, 2 8.3 C2.4 7.4, 3 6.6, 3.5 5.9 C4.1 5.2, 4.7 4.5, 5.4 3.9 C6 3.3, 6.8 2.7, 7.5 2.2 C8.3 1.7, 9.1 1.3, 9.9 1 C10.7 0.7, 11.5 0.4, 12.4 0.3 C13.3 0.1, 14.1 0, 15 0 C15.9 0, 16.8 0.1, 17.6 0.3 C18.5 0.4, 19.3 0.7, 20.1 1 C20.9 1.3, 21.8 1.7, 22.5 2.2 C23.3 2.7, 24 3.3, 24.6 3.9 C25.3 4.5, 25.9 5.2, 26.5 5.9 C27.1 6.6, 27.6 7.4, 28 8.3 C28.4 9.1, 28.8 10, 29.1 10.9 C29.4 11.8, 29.6 12.7, 29.8 13.6 C29.9 14.6, 30 16, 30 16.5 C30 17, 30 16, 30 16.5" stroke="#1e1e1e" stroke-width="2" fill="none"></path></g><g stroke-linecap="round" transform="translate(149.4 204) rotate(0 4.3 4.4)"><path d="M8.5 4.4 C8.5 4.7, 8.5 5, 8.5 5.2 C8.4 5.5, 8.4 5.7, 8.3 6 C8.2 6.2, 8.1 6.4, 8 6.7 C7.8 6.9, 7.7 7.1, 7.5 7.3 C7.4 7.5, 7.2 7.7, 7 7.8 C6.8 8, 6.6 8.2, 6.4 8.3 C6.2 8.4, 6 8.5, 5.7 8.6 C5.5 8.7, 5.3 8.8, 5 8.8 C4.8 8.8, 4.5 8.9, 4.3 8.9 C4 8.9, 3.8 8.8, 3.5 8.8 C3.3 8.8, 3 8.7, 2.8 8.6 C2.6 8.5, 2.4 8.4, 2.1 8.3 C1.9 8.2, 1.7 8, 1.5 7.8 C1.3 7.7, 1.2 7.5, 1 7.3 C0.8 7.1, 0.7 6.9, 0.6 6.7 C0.5 6.4, 0.3 6.2, 0.3 6 C0.2 5.7, 0.1 5.5, 0.1 5.2 C0 5, 0 4.7, 0 4.4 C0 4.2, 0 3.9, 0.1 3.7 C0.1 3.4, 0.2 3.2, 0.3 2.9 C0.3 2.7, 0.5 2.4, 0.6 2.2 C0.7 2, 0.8 1.8, 1 1.6 C1.2 1.4, 1.3 1.2, 1.5 1 C1.7 0.9, 1.9 0.7, 2.1 0.6 C2.4 0.5, 2.6 0.4, 2.8 0.3 C3 0.2, 3.3 0.1, 3.5 0.1 C3.8 0, 4 0, 4.3 0 C4.5 0, 4.8 0, 5 0.1 C5.3 0.1, 5.5 0.2, 5.7 0.3 C6 0.4, 6.2 0.5, 6.4 0.6 C6.6 0.7, 6.8 0.9, 7 1 C7.2 1.2, 7.4 1.4, 7.5 1.6 C7.7 1.8, 7.8 2, 8 2.2 C8.1 2.4, 8.2 2.7, 8.3 2.9 C8.4 3.2, 8.4 3.4, 8.5 3.7 C8.5 3.9, 8.5 4.3, 8.5 4.4 C8.6 4.6, 8.6 4.3, 8.5 4.4" stroke="none" stroke-width="0" fill="#000000"></path><path d="M8.5 4.4 C8.5 4.7, 8.5 5, 8.5 5.2 C8.4 5.5, 8.4 5.7, 8.3 6 C8.2 6.2, 8.1 6.4, 8 6.7 C7.8 6.9, 7.7 7.1, 7.5 7.3 C7.4 7.5, 7.2 7.7, 7 7.8 C6.8 8, 6.6 8.2, 6.4 8.3 C6.2 8.4, 6 8.5, 5.7 8.6 C5.5 8.7, 5.3 8.8, 5 8.8 C4.8 8.8, 4.5 8.9, 4.3 8.9 C4 8.9, 3.8 8.8, 3.5 8.8 C3.3 8.8, 3 8.7, 2.8 8.6 C2.6 8.5, 2.4 8.4, 2.1 8.3 C1.9 8.2, 1.7 8, 1.5 7.8 C1.3 7.7, 1.2 7.5, 1 7.3 C0.8 7.1, 0.7 6.9, 0.6 6.7 C0.5 6.4, 0.3 6.2, 0.3 6 C0.2 5.7, 0.1 5.5, 0.1 5.2 C0 5, 0 4.7, 0 4.4 C0 4.2, 0 3.9, 0.1 3.7 C0.1 3.4, 0.2 3.2, 0.3 2.9 C0.3 2.7, 0.5 2.4, 0.6 2.2 C0.7 2, 0.8 1.8, 1 1.6 C1.2 1.4, 1.3 1.2, 1.5 1 C1.7 0.9, 1.9 0.7, 2.1 0.6 C2.4 0.5, 2.6 0.4, 2.8 0.3 C3 0.2, 3.3 0.1, 3.5 0.1 C3.8 0, 4 0, 4.3 0 C4.5 0, 4.8 0, 5 0.1 C5.3 0.1, 5.5 0.2, 5.7 0.3 C6 0.4, 6.2 0.5, 6.4 0.6 C6.6 0.7, 6.8 0.9, 7 1 C7.2 1.2, 7.4 1.4, 7.5 1.6 C7.7 1.8, 7.8 2, 8 2.2 C8.1 2.4, 8.2 2.7, 8.3 2.9 C8.4 3.2, 8.4 3.4, 8.5 3.7 C8.5 3.9, 8.5 4.3, 8.5 4.4 C8.6 4.6, 8.6 4.3, 8.5 4.4" stroke="#000000" stroke-width="2" fill="none"></path></g><g stroke-linecap="round" transform="translate(79.2 192) rotate(0 15 16.5)"><path d="M30 16.5 C30 17.5, 29.9 18.4, 29.8 19.4 C29.6 20.3, 29.4 21.3, 29.1 22.1 C28.8 23, 28.4 23.9, 28 24.8 C27.6 25.6, 27.1 26.4, 26.5 27.1 C25.9 27.8, 25.3 28.5, 24.6 29.1 C24 29.8, 23.3 30.3, 22.5 30.8 C21.8 31.3, 20.9 31.7, 20.1 32 C19.3 32.3, 18.5 32.6, 17.6 32.8 C16.8 32.9, 15.9 33, 15 33 C14.1 33, 13.3 32.9, 12.4 32.8 C11.5 32.6, 10.7 32.3, 9.9 32 C9.1 31.7, 8.3 31.3, 7.5 30.8 C6.8 30.3, 6 29.8, 5.4 29.1 C4.7 28.5, 4.1 27.8, 3.5 27.1 C3 26.4, 2.4 25.6, 2 24.8 C1.6 23.9, 1.2 23, 0.9 22.1 C0.6 21.3, 0.4 20.3, 0.2 19.4 C0.1 18.4, 0 17.5, 0 16.5 C0 15.5, 0.1 14.6, 0.2 13.6 C0.4 12.7, 0.6 11.8, 0.9 10.9 C1.2 10, 1.6 9.1, 2 8.3 C2.4 7.4, 3 6.6, 3.5 5.9 C4.1 5.2, 4.7 4.5, 5.4 3.9 C6 3.3, 6.8 2.7, 7.5 2.2 C8.3 1.7, 9.1 1.3, 9.9 1 C10.7 0.7, 11.5 0.4, 12.4 0.3 C13.3 0.1, 14.1 0, 15 0 C15.9 0, 16.8 0.1, 17.6 0.3 C18.5 0.4, 19.3 0.7, 20.1 1 C20.9 1.3, 21.8 1.7, 22.5 2.2 C23.3 2.7, 24 3.3, 24.6 3.9 C25.3 4.5, 25.9 5.2, 26.5 5.9 C27.1 6.6, 27.6 7.4, 28 8.3 C28.4 9.1, 28.8 10, 29.1 10.9 C29.4 11.8, 29.6 12.7, 29.8 13.6 C29.9 14.6, 30 16, 30 16.5 C30 17, 30 16, 30 16.5" stroke="none" stroke-width="0" fill="#ffffff"></path><path d="M30 16.5 C30 17.5, 29.9 18.4, 29.8 19.4 C29.6 20.3, 29.4 21.3, 29.1 22.1 C28.8 23, 28.4 23.9, 28 24.8 C27.6 25.6, 27.1 26.4, 26.5 27.1 C25.9 27.8, 25.3 28.5, 24.6 29.1 C24 29.8, 23.3 30.3, 22.5 30.8 C21.8 31.3, 20.9 31.7, 20.1 32 C19.3 32.3, 18.5 32.6, 17.6 32.8 C16.8 32.9, 15.9 33, 15 33 C14.1 33, 13.3 32.9, 12.4 32.8 C11.5 32.6, 10.7 32.3, 9.9 32 C9.1 31.7, 8.3 31.3, 7.5 30.8 C6.8 30.3, 6 29.8, 5.4 29.1 C4.7 28.5, 4.1 27.8, 3.5 27.1 C3 26.4, 2.4 25.6, 2 24.8 C1.6 23.9, 1.2 23, 0.9 22.1 C0.6 21.3, 0.4 20.3, 0.2 19.4 C0.1 18.4, 0 17.5, 0 16.5 C0 15.5, 0.1 14.6, 0.2 13.6 C0.4 12.7, 0.6 11.8, 0.9 10.9 C1.2 10, 1.6 9.1, 2 8.3 C2.4 7.4, 3 6.6, 3.5 5.9 C4.1 5.2, 4.7 4.5, 5.4 3.9 C6 3.3, 6.8 2.7, 7.5 2.2 C8.3 1.7, 9.1 1.3, 9.9 1 C10.7 0.7, 11.5 0.4, 12.4 0.3 C13.3 0.1, 14.1 0, 15 0 C15.9 0, 16.8 0.1, 17.6 0.3 C18.5 0.4, 19.3 0.7, 20.1 1 C20.9 1.3, 21.8 1.7, 22.5 2.2 C23.3 2.7, 24 3.3, 24.6 3.9 C25.3 4.5, 25.9 5.2, 26.5 5.9 C27.1 6.6, 27.6 7.4, 28 8.3 C28.4 9.1, 28.8 10, 29.1 10.9 C29.4 11.8, 29.6 12.7, 29.8 13.6 C29.9 14.6, 30 16, 30 16.5 C30 17, 30 16, 30 16.5" stroke="#1e1e1e" stroke-width="2" fill="none"></path></g><g stroke-linecap="round" transform="translate(97.3 206.3) rotate(0 4.3 4.4)"><path d="M8.5 4.4 C8.5 4.7, 8.5 5, 8.5 5.2 C8.4 5.5, 8.4 5.7, 8.3 6 C8.2 6.2, 8.1 6.4, 8 6.7 C7.8 6.9, 7.7 7.1, 7.5 7.3 C7.4 7.5, 7.2 7.7, 7 7.8 C6.8 8, 6.6 8.2, 6.4 8.3 C6.2 8.4, 6 8.5, 5.7 8.6 C5.5 8.7, 5.3 8.8, 5 8.8 C4.8 8.8, 4.5 8.9, 4.3 8.9 C4 8.9, 3.8 8.8, 3.5 8.8 C3.3 8.8, 3 8.7, 2.8 8.6 C2.6 8.5, 2.4 8.4, 2.1 8.3 C1.9 8.2, 1.7 8, 1.5 7.8 C1.3 7.7, 1.2 7.5, 1 7.3 C0.8 7.1, 0.7 6.9, 0.6 6.7 C0.5 6.4, 0.3 6.2, 0.3 6 C0.2 5.7, 0.1 5.5, 0.1 5.2 C0 5, 0 4.7, 0 4.4 C0 4.2, 0 3.9, 0.1 3.7 C0.1 3.4, 0.2 3.2, 0.3 2.9 C0.3 2.7, 0.5 2.4, 0.6 2.2 C0.7 2, 0.8 1.8, 1 1.6 C1.2 1.4, 1.3 1.2, 1.5 1 C1.7 0.9, 1.9 0.7, 2.1 0.6 C2.4 0.5, 2.6 0.4, 2.8 0.3 C3 0.2, 3.3 0.1, 3.5 0.1 C3.8 0, 4 0, 4.3 0 C4.5 0, 4.8 0, 5 0.1 C5.3 0.1, 5.5 0.2, 5.7 0.3 C6 0.4, 6.2 0.5, 6.4 0.6 C6.6 0.7, 6.8 0.9, 7 1 C7.2 1.2, 7.4 1.4, 7.5 1.6 C7.7 1.8, 7.8 2, 8 2.2 C8.1 2.4, 8.2 2.7, 8.3 2.9 C8.4 3.2, 8.4 3.4, 8.5 3.7 C8.5 3.9, 8.5 4.3, 8.5 4.4 C8.6 4.6, 8.6 4.3, 8.5 4.4" stroke="none" stroke-width="0" fill="#000000"></path><path d="M8.5 4.4 C8.5 4.7, 8.5 5, 8.5 5.2 C8.4 5.5, 8.4 5.7, 8.3 6 C8.2 6.2, 8.1 6.4, 8 6.7 C7.8 6.9, 7.7 7.1, 7.5 7.3 C7.4 7.5, 7.2 7.7, 7 7.8 C6.8 8, 6.6 8.2, 6.4 8.3 C6.2 8.4, 6 8.5, 5.7 8.6 C5.5 8.7, 5.3 8.8, 5 8.8 C4.8 8.8, 4.5 8.9, 4.3 8.9 C4 8.9, 3.8 8.8, 3.5 8.8 C3.3 8.8, 3 8.7, 2.8 8.6 C2.6 8.5, 2.4 8.4, 2.1 8.3 C1.9 8.2, 1.7 8, 1.5 7.8 C1.3 7.7, 1.2 7.5, 1 7.3 C0.8 7.1, 0.7 6.9, 0.6 6.7 C0.5 6.4, 0.3 6.2, 0.3 6 C0.2 5.7, 0.1 5.5, 0.1 5.2 C0 5, 0 4.7, 0 4.4 C0 4.2, 0 3.9, 0.1 3.7 C0.1 3.4, 0.2 3.2, 0.3 2.9 C0.3 2.7, 0.5 2.4, 0.6 2.2 C0.7 2, 0.8 1.8, 1 1.6 C1.2 1.4, 1.3 1.2, 1.5 1 C1.7 0.9, 1.9 0.7, 2.1 0.6 C2.4 0.5, 2.6 0.4, 2.8 0.3 C3 0.2, 3.3 0.1, 3.5 0.1 C3.8 0, 4 0, 4.3 0 C4.5 0, 4.8 0, 5 0.1 C5.3 0.1, 5.5 0.2, 5.7 0.3 C6 0.4, 6.2 0.5, 6.4 0.6 C6.6 0.7, 6.8 0.9, 7 1 C7.2 1.2, 7.4 1.4, 7.5 1.6 C7.7 1.8, 7.8 2, 8 2.2 C8.1 2.4, 8.2 2.7, 8.3 2.9 C8.4 3.2, 8.4 3.4, 8.5 3.7 C8.5 3.9, 8.5 4.3, 8.5 4.4 C8.6 4.6, 8.6 4.3, 8.5 4.4" stroke="#000000" stroke-width="2" fill="none"></path></g><g transform="translate(121.6 127.8) rotate(0 -6.2 -51.4)" stroke="none"><path fill="#1e1e1e" d="M -4.5,0.2 Q -4.5,0.2 -4.8,-1.5 -5.1,-3.2 -5.8,-7.3 -6.6,-11.4 -7.2,-16 -7.7,-20.6 -8.2,-24.6 -8.6,-28.6 -8.8,-32.7 -9,-36.9 -9.1,-39 -9.2,-41.1 -9.3,-42.6 -9.4,-44.2 -9.6,-47.6 -9.9,-51 -9.9,-53.5 -10,-56 -10.1,-59.5 -10.1,-63 -10.1,-65.5 -10.1,-68 -10.1,-70.1 -10.1,-72.2 -9.8,-75.2 -9.6,-78.2 -9.6,-79.8 -9.6,-81.4 -9.6,-82.7 -9.7,-84 -9.7,-86 -9.6,-87.9 -9.4,-89 -9.2,-90.1 -9.3,-91.3 -9.3,-92.4 -9.4,-93.5 -9.5,-94.7 -9.6,-95.9 -9.7,-97.1 -10.4,-98.7 -11.2,-100.4 -11.5,-100.7 -11.8,-101.1 -12,-101.5 -12.2,-102 -12.2,-102.4 -12.2,-102.9 -12.1,-103.3 -12,-103.8 -11.7,-104.2 -11.5,-104.5 -11.1,-104.8 -10.7,-105.1 -10.3,-105.3 -9.9,-105.4 -9.4,-105.4 -8.9,-105.4 -8.5,-105.3 -8.1,-105.1 -7.7,-104.9 -7.3,-104.6 -7,-104.2 -6.8,-103.8 -6.6,-103.4 -6.5,-102.9 -6.5,-102.5 -6.6,-102 -6.7,-101.6 -6.9,-101.1 -7.2,-100.8 -7.5,-100.4 -7.9,-100.2 -8.3,-99.9 -8.7,-99.8 -9.2,-99.7 -9.7,-99.8 -10.1,-99.8 -10.5,-100 -11,-100.2 -11.3,-100.5 -11.6,-100.8 -11.9,-101.2 -12.1,-101.7 -12.2,-102.1 -12.3,-102.6 -12.2,-103 -12.1,-103.5 -11.9,-103.9 -11.7,-104.3 -11.3,-104.6 -11,-105 -10.6,-105.2 -10.2,-105.3 -9.7,-105.4 -9.2,-105.5 -8.8,-105.4 -8.3,-105.3 -7.9,-105 -7.5,-104.8 -7.5,-104.8 -7.5,-104.8 -6,-101.8 -4.5,-98.8 -4.5,-97.3 -4.5,-95.9 -4.6,-94.6 -4.7,-93.4 -5,-92 -5.2,-90.7 -5.7,-89.3 -6.2,-87.9 -6.2,-85.9 -6.2,-83.9 -6.3,-82.6 -6.5,-81.2 -6.7,-79.6 -6.9,-78 -7.1,-75.1 -7.3,-72.2 -7.3,-70.1 -7.3,-68 -7.3,-65.5 -7.2,-63 -7.2,-59.6 -7.1,-56.1 -7,-53.7 -6.8,-51.2 -6.5,-47.8 -6.2,-44.3 -6.3,-42.7 -6.3,-41.2 -6.2,-39.1 -6.1,-37 -5.9,-33 -5.7,-28.9 -5.2,-25 -4.6,-21 -4,-16.5 -3.4,-12.1 -2.5,-7.9 -1.6,-3.7 -1.4,-1.9 -1.2,-0.2 -1.2,-0 -1.2,0.2 -1.3,0.4 -1.3,0.6 -1.4,0.8 -1.5,0.9 -1.6,1.1 -1.7,1.2 -1.9,1.4 -2.1,1.5 -2.3,1.6 -2.4,1.6 -2.6,1.6 -2.9,1.7 -3,1.7 -3.3,1.6 -3.4,1.6 -3.6,1.5 -3.8,1.4 -4,1.3 -4.1,1.1 -4.3,1 -4.3,0.8 -4.4,0.6 -4.5,0.4 -4.5,0.2 -4.5,0.2 L -4.5,0.2 Z"></path></g><g stroke-linecap="round" transform="translate(88.4 10) rotate(0 10.5 12.5)"><path d="M21 12.5 C21 13.2, 20.9 14, 20.8 14.7 C20.7 15.4, 20.6 16.1, 20.4 16.8 C20.2 17.5, 19.9 18.1, 19.6 18.8 C19.3 19.4, 18.9 20, 18.5 20.5 C18.1 21.1, 17.7 21.6, 17.3 22.1 C16.8 22.5, 16.3 23, 15.8 23.3 C15.2 23.7, 14.7 24, 14.1 24.3 C13.5 24.5, 12.9 24.7, 12.3 24.8 C11.7 24.9, 11.1 25, 10.5 25 C9.9 25, 9.3 24.9, 8.7 24.8 C8.1 24.7, 7.5 24.5, 6.9 24.3 C6.3 24, 5.8 23.7, 5.3 23.3 C4.7 23, 4.2 22.5, 3.8 22.1 C3.3 21.6, 2.9 21.1, 2.5 20.5 C2.1 20, 1.7 19.4, 1.4 18.8 C1.1 18.1, 0.8 17.5, 0.6 16.8 C0.4 16.1, 0.3 15.4, 0.2 14.7 C0.1 14, 0 13.2, 0 12.5 C0 11.8, 0.1 11, 0.2 10.3 C0.3 9.6, 0.4 8.9, 0.6 8.2 C0.8 7.5, 1.1 6.9, 1.4 6.3 C1.7 5.6, 2.1 5, 2.5 4.5 C2.9 3.9, 3.3 3.4, 3.8 2.9 C4.2 2.5, 4.7 2, 5.3 1.7 C5.8 1.3, 6.3 1, 6.9 0.8 C7.5 0.5, 8.1 0.3, 8.7 0.2 C9.3 0.1, 9.9 0, 10.5 0 C11.1 0, 11.7 0.1, 12.3 0.2 C12.9 0.3, 13.5 0.5, 14.1 0.8 C14.7 1, 15.2 1.3, 15.8 1.7 C16.3 2, 16.8 2.5, 17.3 2.9 C17.7 3.4, 18.1 3.9, 18.5 4.5 C18.9 5, 19.3 5.6, 19.6 6.3 C19.9 6.9, 20.2 7.5, 20.4 8.2 C20.6 8.9, 20.7 9.6, 20.8 10.3 C20.9 11, 21 12.1, 21 12.5 C21 12.9, 21 12.1, 21 12.5" stroke="none" stroke-width="0" fill="#ffc9c9"></path><path d="M21 12.5 C21 13.2, 20.9 14, 20.8 14.7 C20.7 15.4, 20.6 16.1, 20.4 16.8 C20.2 17.5, 19.9 18.1, 19.6 18.8 C19.3 19.4, 18.9 20, 18.5 20.5 C18.1 21.1, 17.7 21.6, 17.3 22.1 C16.8 22.5, 16.3 23, 15.8 23.3 C15.2 23.7, 14.7 24, 14.1 24.3 C13.5 24.5, 12.9 24.7, 12.3 24.8 C11.7 24.9, 11.1 25, 10.5 25 C9.9 25, 9.3 24.9, 8.7 24.8 C8.1 24.7, 7.5 24.5, 6.9 24.3 C6.3 24, 5.8 23.7, 5.3 23.3 C4.7 23, 4.2 22.5, 3.8 22.1 C3.3 21.6, 2.9 21.1, 2.5 20.5 C2.1 20, 1.7 19.4, 1.4 18.8 C1.1 18.1, 0.8 17.5, 0.6 16.8 C0.4 16.1, 0.3 15.4, 0.2 14.7 C0.1 14, 0 13.2, 0 12.5 C0 11.8, 0.1 11, 0.2 10.3 C0.3 9.6, 0.4 8.9, 0.6 8.2 C0.8 7.5, 1.1 6.9, 1.4 6.3 C1.7 5.6, 2.1 5, 2.5 4.5 C2.9 3.9, 3.3 3.4, 3.8 2.9 C4.2 2.5, 4.7 2, 5.3 1.7 C5.8 1.3, 6.3 1, 6.9 0.8 C7.5 0.5, 8.1 0.3, 8.7 0.2 C9.3 0.1, 9.9 0, 10.5 0 C11.1 0, 11.7 0.1, 12.3 0.2 C12.9 0.3, 13.5 0.5, 14.1 0.8 C14.7 1, 15.2 1.3, 15.8 1.7 C16.3 2, 16.8 2.5, 17.3 2.9 C17.7 3.4, 18.1 3.9, 18.5 4.5 C18.9 5, 19.3 5.6, 19.6 6.3 C19.9 6.9, 20.2 7.5, 20.4 8.2 C20.6 8.9, 20.7 9.6, 20.8 10.3 C20.9 11, 21 12.1, 21 12.5 C21 12.9, 21 12.1, 21 12.5" stroke="#1e1e1e" stroke-width="2" fill="none"></path></g><g stroke-linecap="round" transform="translate(236 295.5) rotate(0 4.6 19.4)"><path d="M2.3 0 C3.2 -0, 4.8 -0.3, 6.9 0 C10.3 -2.2, 9 -1.6, 9.1 2.3 C8.4 14.9, 6.5 24.3, 9.1 36.6 C10 38.9, 9.4 38.1, 6.9 38.9 C5.7 38.6, 5.2 39, 2.3 38.9 C-0.4 40.3, -1.4 39.9, 0 36.6 C1.6 22.2, -1.4 13.4, 0 2.3 C-2.4 -1.7, -1 0.5, 2.3 0" stroke="none" stroke-width="0" fill="#ffffff"></path><path d="M2.3 0 C3.6 -0, 4.8 0.2, 6.9 0 M2.3 0 C3.4 0.1, 4.7 0.1, 6.9 0 M6.9 0 C7.6 0.7, 8.3 1, 9.1 2.3 M6.9 0 C7.4 -0.4, 9.2 1.2, 9.1 2.3 M9.1 2.3 C9.7 13, 9.4 25.2, 9.1 36.6 M9.1 2.3 C8.8 15.1, 9.2 27, 9.1 36.6 M9.1 36.6 C9.5 38.3, 7.5 37.9, 6.9 38.9 M9.1 36.6 C9.5 38.8, 8.4 39.2, 6.9 38.9 M6.9 38.9 C5.6 38.8, 4.2 38.7, 2.3 38.9 M6.9 38.9 C5.3 38.9, 3.9 38.8, 2.3 38.9 M2.3 38.9 C0.8 38.9, -0.1 38, 0 36.6 M2.3 38.9 C1.7 38.6, -0.2 37.9, 0 36.6 M0 36.6 C-0.8 28.2, -0.7 20.8, 0 2.3 M0 36.6 C0.2 24.8, 0.1 13.8, 0 2.3 M0 2.3 C0.5 0.2, 0.5 0.5, 2.3 0 M0 2.3 C0.1 1.6, 0.3 0, 2.3 0" stroke="#000000" stroke-width="4" fill="none"></path></g><g stroke-linecap="round"><g transform="translate(112.9 488.7) rotate(0 -25.2 72.4)"><path d="M2.3 -1.3 C-6 23.1, -41.3 119.7, -50.2 144.5 M0.1 4.2 C-8.5 29.3, -43.5 124.8, -52.3 147.9" stroke="#1e1e1e" stroke-width="4" fill="none"></path></g></g><mask></mask><g stroke-linecap="round"><g transform="translate(118.1 486.8) rotate(0 37 50.6)"><path d="M0.3 -0.3 C12.2 17.2, 60.9 86.7, 73.5 103.8 M-3 -2.9 C8.2 14, 58 83.5, 71.1 100.3" stroke="#1e1e1e" stroke-width="4" fill="none"></path></g></g><mask></mask><g stroke-linecap="round" transform="translate(113.3 254) rotate(0 13 11.5)"><path d="M26 11.6 C26 12.2, 25.9 12.9, 25.8 13.6 C25.7 14.2, 25.5 14.9, 25.2 15.5 C24.9 16.1, 24.6 16.7, 24.2 17.3 C23.9 17.9, 23.4 18.5, 22.9 19 C22.5 19.5, 21.9 20, 21.3 20.4 C20.8 20.8, 20.1 21.2, 19.5 21.6 C18.8 21.9, 18.1 22.2, 17.4 22.4 C16.7 22.6, 16 22.8, 15.3 22.9 C14.5 23, 13.7 23.1, 13 23.1 C12.2 23.1, 11.5 23, 10.7 22.9 C10 22.8, 9.3 22.6, 8.6 22.4 C7.8 22.2, 7.2 21.9, 6.5 21.6 C5.8 21.2, 5.2 20.8, 4.6 20.4 C4.1 20, 3.5 19.5, 3 19 C2.6 18.5, 2.1 17.9, 1.7 17.3 C1.4 16.7, 1 16.1, 0.8 15.5 C0.5 14.9, 0.3 14.2, 0.2 13.6 C0.1 12.9, 0 12.2, 0 11.6 C0 10.9, 0.1 10.2, 0.2 9.5 C0.3 8.9, 0.5 8.2, 0.8 7.6 C1 7, 1.4 6.3, 1.7 5.8 C2.1 5.2, 2.6 4.6, 3 4.1 C3.5 3.6, 4.1 3.1, 4.6 2.7 C5.2 2.3, 5.8 1.9, 6.5 1.6 C7.2 1.2, 7.8 0.9, 8.6 0.7 C9.3 0.5, 10 0.3, 10.7 0.2 C11.5 0.1, 12.2 0, 13 0 C13.7 0, 14.5 0.1, 15.3 0.2 C16 0.3, 16.7 0.5, 17.4 0.7 C18.1 0.9, 18.8 1.2, 19.5 1.6 C20.1 1.9, 20.8 2.3, 21.3 2.7 C21.9 3.1, 22.5 3.6, 22.9 4.1 C23.4 4.6, 23.9 5.2, 24.2 5.8 C24.6 6.3, 24.9 7, 25.2 7.6 C25.5 8.2, 25.7 8.9, 25.8 9.5 C25.9 10.2, 25.9 11.2, 26 11.6 C26 11.9, 26 11.2, 26 11.6" stroke="none" stroke-width="0" fill="#000000"></path><path d="M26 11.6 C26 12.2, 25.9 12.9, 25.8 13.6 C25.7 14.2, 25.5 14.9, 25.2 15.5 C24.9 16.1, 24.6 16.7, 24.2 17.3 C23.9 17.9, 23.4 18.5, 22.9 19 C22.5 19.5, 21.9 20, 21.3 20.4 C20.8 20.8, 20.1 21.2, 19.5 21.6 C18.8 21.9, 18.1 22.2, 17.4 22.4 C16.7 22.6, 16 22.8, 15.3 22.9 C14.5 23, 13.7 23.1, 13 23.1 C12.2 23.1, 11.5 23, 10.7 22.9 C10 22.8, 9.3 22.6, 8.6 22.4 C7.8 22.2, 7.2 21.9, 6.5 21.6 C5.8 21.2, 5.2 20.8, 4.6 20.4 C4.1 20, 3.5 19.5, 3 19 C2.6 18.5, 2.1 17.9, 1.7 17.3 C1.4 16.7, 1 16.1, 0.8 15.5 C0.5 14.9, 0.3 14.2, 0.2 13.6 C0.1 12.9, 0 12.2, 0 11.6 C0 10.9, 0.1 10.2, 0.2 9.5 C0.3 8.9, 0.5 8.2, 0.8 7.6 C1 7, 1.4 6.3, 1.7 5.8 C2.1 5.2, 2.6 4.6, 3 4.1 C3.5 3.6, 4.1 3.1, 4.6 2.7 C5.2 2.3, 5.8 1.9, 6.5 1.6 C7.2 1.2, 7.8 0.9, 8.6 0.7 C9.3 0.5, 10 0.3, 10.7 0.2 C11.5 0.1, 12.2 0, 13 0 C13.7 0, 14.5 0.1, 15.3 0.2 C16 0.3, 16.7 0.5, 17.4 0.7 C18.1 0.9, 18.8 1.2, 19.5 1.6 C20.1 1.9, 20.8 2.3, 21.3 2.7 C21.9 3.1, 22.5 3.6, 22.9 4.1 C23.4 4.6, 23.9 5.2, 24.2 5.8 C24.6 6.3, 24.9 7, 25.2 7.6 C25.5 8.2, 25.7 8.9, 25.8 9.5 C25.9 10.2, 25.9 11.2, 26 11.6 C26 11.9, 26 11.2, 26 11.6" stroke="#000000" stroke-width="2" fill="none"></path></g><g stroke-linecap="round"><g transform="translate(69.3 203.5) rotate(12.1 14.8 -11.2)"><path d="M0 0 C1.2 -3.4, 2.3 -16.5, 7.2 -20.2 C12.2 -23.9, 25.9 -22, 29.6 -22.4 M0 0 C1.2 -3.4, 2.3 -16.5, 7.2 -20.2 C12.2 -23.9, 25.9 -22, 29.6 -22.4" stroke="#000000" stroke-width="2" fill="none"></path></g></g><mask></mask><g stroke-linecap="round"><g transform="translate(134.6 194.5) rotate(36.9 14.8 -11.2)"><path d="M0 0 C1.2 -3.4, 2.3 -16.5, 7.2 -20.2 C12.2 -23.9, 25.9 -22, 29.6 -22.4 M0 0 C1.2 -3.4, 2.3 -16.5, 7.2 -20.2 C12.2 -23.9, 25.9 -22, 29.6 -22.4" stroke="#000000" stroke-width="2" fill="none"></path></g></g><mask></mask><g stroke-linecap="round" transform="translate(319.7 149.3) rotate(0 11.9 11.5)"><path d="M23.8 11.6 C23.8 12.2, 23.8 12.9, 23.6 13.6 C23.5 14.2, 23.3 14.9, 23.1 15.5 C22.9 16.1, 22.6 16.7, 22.2 17.3 C21.9 17.9, 21.5 18.5, 21 19 C20.6 19.5, 20.1 20, 19.6 20.4 C19 20.8, 18.5 21.2, 17.9 21.6 C17.3 21.9, 16.6 22.2, 16 22.4 C15.3 22.6, 14.7 22.8, 14 22.9 C13.3 23, 12.6 23.1, 11.9 23.1 C11.2 23.1, 10.5 23, 9.8 22.9 C9.2 22.8, 8.5 22.6, 7.8 22.4 C7.2 22.2, 6.5 21.9, 6 21.6 C5.4 21.2, 4.8 20.8, 4.3 20.4 C3.7 20, 3.2 19.5, 2.8 19 C2.3 18.5, 1.9 17.9, 1.6 17.3 C1.3 16.7, 0.9 16.1, 0.7 15.5 C0.5 14.9, 0.3 14.2, 0.2 13.6 C0.1 12.9, 0 12.2, 0 11.6 C0 10.9, 0.1 10.2, 0.2 9.5 C0.3 8.9, 0.5 8.2, 0.7 7.6 C0.9 7, 1.3 6.3, 1.6 5.8 C1.9 5.2, 2.3 4.6, 2.8 4.1 C3.2 3.6, 3.7 3.1, 4.3 2.7 C4.8 2.3, 5.4 1.9, 6 1.6 C6.5 1.2, 7.2 0.9, 7.8 0.7 C8.5 0.5, 9.2 0.3, 9.8 0.2 C10.5 0.1, 11.2 0, 11.9 0 C12.6 0, 13.3 0.1, 14 0.2 C14.7 0.3, 15.3 0.5, 16 0.7 C16.6 0.9, 17.3 1.2, 17.9 1.6 C18.5 1.9, 19 2.3, 19.6 2.7 C20.1 3.1, 20.6 3.6, 21 4.1 C21.5 4.6, 21.9 5.2, 22.2 5.8 C22.6 6.3, 22.9 7, 23.1 7.6 C23.3 8.2, 23.5 8.9, 23.6 9.5 C23.8 10.2, 23.8 11.2, 23.8 11.6 C23.9 11.9, 23.9 11.2, 23.8 11.6" stroke="none" stroke-width="0" fill="#ffffff"></path><path d="M23.8 11.6 C23.8 12.2, 23.8 12.9, 23.6 13.6 C23.5 14.2, 23.3 14.9, 23.1 15.5 C22.9 16.1, 22.6 16.7, 22.2 17.3 C21.9 17.9, 21.5 18.5, 21 19 C20.6 19.5, 20.1 20, 19.6 20.4 C19 20.8, 18.5 21.2, 17.9 21.6 C17.3 21.9, 16.6 22.2, 16 22.4 C15.3 22.6, 14.7 22.8, 14 22.9 C13.3 23, 12.6 23.1, 11.9 23.1 C11.2 23.1, 10.5 23, 9.8 22.9 C9.2 22.8, 8.5 22.6, 7.8 22.4 C7.2 22.2, 6.5 21.9, 6 21.6 C5.4 21.2, 4.8 20.8, 4.3 20.4 C3.7 20, 3.2 19.5, 2.8 19 C2.3 18.5, 1.9 17.9, 1.6 17.3 C1.3 16.7, 0.9 16.1, 0.7 15.5 C0.5 14.9, 0.3 14.2, 0.2 13.6 C0.1 12.9, 0 12.2, 0 11.6 C0 10.9, 0.1 10.2, 0.2 9.5 C0.3 8.9, 0.5 8.2, 0.7 7.6 C0.9 7, 1.3 6.3, 1.6 5.8 C1.9 5.2, 2.3 4.6, 2.8 4.1 C3.2 3.6, 3.7 3.1, 4.3 2.7 C4.8 2.3, 5.4 1.9, 6 1.6 C6.5 1.2, 7.2 0.9, 7.8 0.7 C8.5 0.5, 9.2 0.3, 9.8 0.2 C10.5 0.1, 11.2 0, 11.9 0 C12.6 0, 13.3 0.1, 14 0.2 C14.7 0.3, 15.3 0.5, 16 0.7 C16.6 0.9, 17.3 1.2, 17.9 1.6 C18.5 1.9, 19 2.3, 19.6 2.7 C20.1 3.1, 20.6 3.6, 21 4.1 C21.5 4.6, 21.9 5.2, 22.2 5.8 C22.6 6.3, 22.9 7, 23.1 7.6 C23.3 8.2, 23.5 8.9, 23.6 9.5 C23.8 10.2, 23.8 11.2, 23.8 11.6 C23.9 11.9, 23.9 11.2, 23.8 11.6" stroke="#ffffff" stroke-width="2" fill="none"></path></g><g stroke-linecap="round" transform="translate(431.6 173.9) rotate(0 33.6 29.6)"><path d="M7.7 10.7 C7.7 10.7, 7.7 10.7, 7.7 10.7 M7.7 10.7 C7.7 10.7, 7.7 10.7, 7.7 10.7 M0.7 31 C6.7 24.1, 12.7 17.2, 26.9 0.9 M0.7 31 C7.8 22.8, 15 14.5, 26.9 0.9 M2.8 40.8 C11.2 31.1, 19.6 21.4, 37.5 0.8 M2.8 40.8 C16.4 25.1, 30.1 9.3, 37.5 0.8 M7.5 47.6 C22.7 30.1, 38 12.5, 46.9 2.3 M7.5 47.6 C15.8 38, 24.1 28.5, 46.9 2.3 M13.5 52.8 C29.1 34.9, 44.8 16.9, 54.2 6 M13.5 52.8 C25.2 39.4, 36.9 25.9, 54.2 6 M20.2 57.3 C29 47.3, 37.7 37.2, 60.2 11.3 M20.2 57.3 C29.9 46.2, 39.5 35.1, 60.2 11.3 M29.5 58.8 C41.7 44.8, 54 30.7, 65 18 M29.5 58.8 C38.1 48.9, 46.7 39, 65 18 M40.2 58.8 C48.1 49.6, 56 40.5, 67.1 27.8 M40.2 58.8 C48.4 49.3, 56.6 39.8, 67.1 27.8 M11.7 52 C11.7 52, 11.7 52, 11.7 52 M11.7 52 C11.7 52, 11.7 52, 11.7 52 M31.3 58.5 C24.7 52.7, 18.1 47, 0.4 31.6 M31.3 58.5 C23 51.2, 14.6 43.9, 0.4 31.6 M42.6 57.7 C30.9 47.5, 19.3 37.4, 1.9 22.3 M42.6 57.7 C31.6 48.1, 20.7 38.6, 1.9 22.3 M51.6 54.9 C42.2 46.7, 32.7 38.5, 4.8 14.3 M51.6 54.9 C36.8 42, 21.9 29.1, 4.8 14.3 M57.6 49.5 C40 34.2, 22.4 18.9, 10.1 8.2 M57.6 49.5 C45.2 38.8, 32.8 28, 10.1 8.2 M62.9 43.5 C48.4 30.9, 33.8 18.2, 16.9 3.5 M62.9 43.5 C46.6 29.3, 30.3 15.1, 16.9 3.5 M66.6 36.1 C55.2 26.2, 43.8 16.3, 25.9 0.7 M66.6 36.1 C52.2 23.6, 37.8 11.1, 25.9 0.7 M67.3 26.2 C60.2 20, 53.1 13.8, 37.1 -0.1 M67.3 26.2 C61 20.6, 54.6 15.1, 37.1 -0.1" stroke="#ffffff" stroke-width="1" fill="none"></path><path d="M67.1 29.6 C67.1 31.3, 67 33, 66.6 34.7 C66.3 36.4, 65.8 38.1, 65.1 39.7 C64.4 41.3, 63.6 42.9, 62.6 44.4 C61.7 45.9, 60.5 47.3, 59.3 48.6 C58 49.9, 56.6 51.2, 55.1 52.3 C53.6 53.4, 52 54.4, 50.4 55.2 C48.7 56.1, 46.9 56.8, 45 57.4 C43.2 58, 41.3 58.4, 39.4 58.7 C37.5 59, 35.5 59.2, 33.6 59.2 C31.6 59.2, 29.6 59, 27.7 58.7 C25.8 58.4, 23.9 58, 22.1 57.4 C20.3 56.8, 18.5 56.1, 16.8 55.2 C15.1 54.4, 13.5 53.4, 12 52.3 C10.5 51.2, 9.1 49.9, 7.8 48.6 C6.6 47.3, 5.5 45.9, 4.5 44.4 C3.5 42.9, 2.7 41.3, 2 39.7 C1.4 38.1, 0.8 36.4, 0.5 34.7 C0.2 33, 0 31.3, 0 29.6 C0 27.9, 0.2 26.1, 0.5 24.4 C0.8 22.8, 1.4 21.1, 2 19.5 C2.7 17.9, 3.5 16.3, 4.5 14.8 C5.5 13.3, 6.6 11.9, 7.8 10.6 C9.1 9.3, 10.5 8, 12 6.9 C13.5 5.8, 15.1 4.8, 16.8 4 C18.5 3.1, 20.3 2.4, 22.1 1.8 C23.9 1.2, 25.8 0.8, 27.7 0.5 C29.6 0.1, 31.6 0, 33.6 0 C35.5 0, 37.5 0.1, 39.4 0.5 C41.3 0.8, 43.2 1.2, 45 1.8 C46.9 2.4, 48.7 3.1, 50.4 4 C52 4.8, 53.6 5.8, 55.1 6.9 C56.6 8, 58 9.3, 59.3 10.6 C60.5 11.9, 61.7 13.3, 62.6 14.8 C63.6 16.3, 64.4 17.9, 65.1 19.5 C65.8 21.1, 66.3 22.8, 66.6 24.4 C67 26.1, 67 28.7, 67.1 29.6 C67.2 30.4, 67.2 28.7, 67.1 29.6" stroke="#ffffff" stroke-width="2.5" fill="none" stroke-dasharray="1.5 8"></path></g><g stroke-linecap="round"><g transform="translate(311.1 140.7) rotate(0 -26 1.8)" fill-rule="evenodd"><path d="M0 0 C-5.2 -2.8, -27.8 -16.4, -31 -16.6 C-34.3 -16.8, -17.1 -2.8, -19.5 -1.4 C-21.9 -0.1, -44.9 -9.9, -45.5 -8.7 C-46.1 -7.5, -22 3.4, -23.1 5.8 C-24.2 8.2, -54.7 3.4, -52 5.8 C-49.2 8.2, -15.2 21.2, -6.5 20.2 C2.2 19.3, -1.1 3.4, 0 0" stroke="none" stroke-width="0" fill="#ffffff" fill-rule="evenodd"></path><path d="M0 0 C-5.2 -2.8, -27.8 -16.4, -31 -16.6 C-34.3 -16.8, -17.1 -2.8, -19.5 -1.4 C-21.9 -0.1, -44.9 -9.9, -45.5 -8.7 C-46.1 -7.5, -22 3.4, -23.1 5.8 C-24.2 8.2, -54.7 3.4, -52 5.8 C-49.2 8.2, -15.2 21.2, -6.5 20.2 C2.2 19.3, -1.1 3.4, 0 0 M0 0 C-5.2 -2.8, -27.8 -16.4, -31 -16.6 C-34.3 -16.8, -17.1 -2.8, -19.5 -1.4 C-21.9 -0.1, -44.9 -9.9, -45.5 -8.7 C-46.1 -7.5, -22 3.4, -23.1 5.8 C-24.2 8.2, -54.7 3.4, -52 5.8 C-49.2 8.2, -15.2 21.2, -6.5 20.2 C2.2 19.3, -1.1 3.4, 0 0" stroke="#ffffff" stroke-width="2" fill="none"></path></g></g><mask></mask><g stroke-linecap="round"><g transform="translate(349.3 165.9) rotate(0 53.4 28.9)"><path d="M0 0 C12.3 9.6, 55.8 49.8, 73.6 57.7 C91.4 65.7, 101.3 49.3, 106.8 47.6" stroke="#ffffff" stroke-width="2.5" fill="none" stroke-dasharray="1.5 8"></path></g></g><mask></mask><g stroke-linecap="round"><g transform="translate(284.4 289.5) rotate(0 -2.2 20.8)" fill-rule="evenodd"><path d="M0 0 C-0.4 0.2, -1.5 -0, -2.3 1.2 C-3.1 2.5, -4.6 3.8, -4.7 7.5 C-4.7 11.1, -3.2 18.2, -2.8 23 C-2.3 27.9, -1.6 33.8, -1.9 36.7 C-2.3 39.5, -4.1 40, -4.8 40.3 C-5.4 40.5, -5.4 38.4, -5.8 38.2 C-6.2 38, -7.1 38.5, -7.1 39.1 C-7.1 39.6, -6.6 41.4, -5.7 41.6 C-4.8 41.8, -2.8 41.2, -1.9 40.1 C-1 39, -0.5 37.8, -0.3 35 C-0.1 32.1, -0.4 27.6, -0.8 22.9 C-1.3 18.2, -3.2 10.1, -3.1 6.5 C-3 3, -1.1 2, -0.3 1.6 C0.4 1.1, 0.8 3.4, 1.3 3.7 C1.8 3.9, 2.6 3.6, 2.7 3.1 C2.8 2.7, 2.4 1.3, 1.9 0.8 C1.5 0.3, 0.3 0.1, 0 0" stroke="none" stroke-width="0" fill="#ffffff" fill-rule="evenodd"></path><path d="M0 0 C-0.4 0.2, -1.5 -0, -2.3 1.2 C-3.1 2.5, -4.6 3.8, -4.7 7.5 C-4.7 11.1, -3.2 18.2, -2.8 23 C-2.3 27.9, -1.6 33.8, -1.9 36.7 C-2.3 39.5, -4.1 40, -4.8 40.3 C-5.4 40.5, -5.4 38.4, -5.8 38.2 C-6.2 38, -7.1 38.5, -7.1 39.1 C-7.1 39.6, -6.6 41.4, -5.7 41.6 C-4.8 41.8, -2.8 41.2, -1.9 40.1 C-1 39, -0.5 37.8, -0.3 35 C-0.1 32.1, -0.4 27.6, -0.8 22.9 C-1.3 18.2, -3.2 10.1, -3.1 6.5 C-3 3, -1.1 2, -0.3 1.6 C0.4 1.1, 0.8 3.4, 1.3 3.7 C1.8 3.9, 2.6 3.6, 2.7 3.1 C2.8 2.7, 2.4 1.3, 1.9 0.8 C1.5 0.3, 0.3 0.1, 0 0 M0 0 C-0.4 0.2, -1.5 -0, -2.3 1.2 C-3.1 2.5, -4.6 3.8, -4.7 7.5 C-4.7 11.1, -3.2 18.2, -2.8 23 C-2.3 27.9, -1.6 33.8, -1.9 36.7 C-2.3 39.5, -4.1 40, -4.8 40.3 C-5.4 40.5, -5.4 38.4, -5.8 38.2 C-6.2 38, -7.1 38.5, -7.1 39.1 C-7.1 39.6, -6.6 41.4, -5.7 41.6 C-4.8 41.8, -2.8 41.2, -1.9 40.1 C-1 39, -0.5 37.8, -0.3 35 C-0.1 32.1, -0.4 27.6, -0.8 22.9 C-1.3 18.2, -3.2 10.1, -3.1 6.5 C-3 3, -1.1 2, -0.3 1.6 C0.4 1.1, 0.8 3.4, 1.3 3.7 C1.8 3.9, 2.6 3.6, 2.7 3.1 C2.8 2.7, 2.4 1.3, 1.9 0.8 C1.5 0.3, 0.3 0.1, 0 0" stroke="#ffffff" stroke-width="1" fill="none"></path></g></g><mask></mask><g transform="translate(291.2 294.4) rotate(0 99.3 22.5)"><text x="99.3" y="31.7" font-family="Excalifont" font-size="36px" fill="#ffffff" text-anchor="middle" style="white-space: pre;" direction="ltr" dominant-baseline="alphabetic">f(x,y,z,t)dt</text></g><g stroke-linecap="round"><g transform="translate(568.9 259.9) rotate(0 4.2 1)" fill-rule="evenodd"><path d="M0 0 C-0 1.4, -0.1 7, -0.1 8.4 C-0.2 9.8, -0.4 10.6, -0.5 8.5 C-0.5 6.4, -0.5 -1.6, -0.2 -4.2 C-0 -6.8, -0.3 -6.9, 0.8 -7.2 C2 -7.5, 5.6 -6.9, 6.9 -6 C8.2 -5.1, 8.8 -3, 8.8 -1.9 C8.8 -0.7, 7.9 0.2, 7 0.8 C6.2 1.5, 3.4 0.7, 3.6 2.1 C3.7 3.4, 7.3 7.7, 8 8.9 C8.6 10.1, 8.3 10.3, 7.4 9.2 C6.5 8, 3.3 3.4, 2.6 2.1 C1.9 0.7, 2.7 1.3, 3.5 0.9 C4.2 0.5, 6.5 0.7, 7.3 -0.1 C8 -0.9, 8.4 -2.6, 8 -3.7 C7.6 -4.7, 5.8 -5.9, 4.8 -6.4 C3.7 -7, 2.3 -6.8, 1.6 -6.8 C0.9 -6.7, 0.7 -7.1, 0.4 -6 C0.1 -4.9, 0.1 -1, 0 0" stroke="none" stroke-width="0" fill="#000000" fill-rule="evenodd"></path><path d="M0 0 C-0 1.4, -0.1 7, -0.1 8.4 C-0.2 9.8, -0.4 10.6, -0.5 8.5 C-0.5 6.4, -0.5 -1.6, -0.2 -4.2 C-0 -6.8, -0.3 -6.9, 0.8 -7.2 C2 -7.5, 5.6 -6.9, 6.9 -6 C8.2 -5.1, 8.8 -3, 8.8 -1.9 C8.8 -0.7, 7.9 0.2, 7 0.8 C6.2 1.5, 3.4 0.7, 3.6 2.1 C3.7 3.4, 7.3 7.7, 8 8.9 C8.6 10.1, 8.3 10.3, 7.4 9.2 C6.5 8, 3.3 3.4, 2.6 2.1 C1.9 0.7, 2.7 1.3, 3.5 0.9 C4.2 0.5, 6.5 0.7, 7.3 -0.1 C8 -0.9, 8.4 -2.6, 8 -3.7 C7.6 -4.7, 5.8 -5.9, 4.8 -6.4 C3.7 -7, 2.3 -6.8, 1.6 -6.8 C0.9 -6.7, 0.7 -7.1, 0.4 -6 C0.1 -4.9, 0.1 -1, 0 0 M0 0 C-0 1.4, -0.1 7, -0.1 8.4 C-0.2 9.8, -0.4 10.6, -0.5 8.5 C-0.5 6.4, -0.5 -1.6, -0.2 -4.2 C-0 -6.8, -0.3 -6.9, 0.8 -7.2 C2 -7.5, 5.6 -6.9, 6.9 -6 C8.2 -5.1, 8.8 -3, 8.8 -1.9 C8.8 -0.7, 7.9 0.2, 7 0.8 C6.2 1.5, 3.4 0.7, 3.6 2.1 C3.7 3.4, 7.3 7.7, 8 8.9 C8.6 10.1, 8.3 10.3, 7.4 9.2 C6.5 8, 3.3 3.4, 2.6 2.1 C1.9 0.7, 2.7 1.3, 3.5 0.9 C4.2 0.5, 6.5 0.7, 7.3 -0.1 C8 -0.9, 8.4 -2.6, 8 -3.7 C7.6 -4.7, 5.8 -5.9, 4.8 -6.4 C3.7 -7, 2.3 -6.8, 1.6 -6.8 C0.9 -6.7, 0.7 -7.1, 0.4 -6 C0.1 -4.9, 0.1 -1, 0 0" stroke="#ffffff" stroke-width="1" fill="none"></path></g></g><mask></mask><g stroke-linecap="round"><g transform="translate(570.7 262.7) rotate(0 -0.1 -1.2)" fill-rule="evenodd"><path d="M0 0 C0 -1.4, 0.2 -6.8, 0.1 -8.2 C0.1 -9.6, -0.1 -10.5, -0.2 -8.1 C-0.3 -5.8, -0.4 3.5, -0.4 5.8 C-0.4 8.1, -0.2 6.7, -0.1 5.7 C-0 4.7, -0 0.9, 0 0" stroke="none" stroke-width="0" fill="#000000" fill-rule="evenodd"></path><path d="M0 0 C0 -1.4, 0.2 -6.8, 0.1 -8.2 C0.1 -9.6, -0.1 -10.5, -0.2 -8.1 C-0.3 -5.8, -0.4 3.5, -0.4 5.8 C-0.4 8.1, -0.2 6.7, -0.1 5.7 C-0 4.7, -0 0.9, 0 0 M0 0 C0 -1.4, 0.2 -6.8, 0.1 -8.2 C0.1 -9.6, -0.1 -10.5, -0.2 -8.1 C-0.3 -5.8, -0.4 3.5, -0.4 5.8 C-0.4 8.1, -0.2 6.7, -0.1 5.7 C-0 4.7, -0 0.9, 0 0" stroke="#ffffff" stroke-width="1" fill="none"></path></g></g><mask></mask><g transform="translate(478.7 251.3) rotate(0 30.9 10)"><text x="30.9" y="14.1" font-family="Excalifont" font-size="16px" fill="#ffffff" text-anchor="middle" style="white-space: pre;" direction="ltr" dominant-baseline="alphabetic">(x,y,z,t)</text></g><g stroke-linecap="round"><g transform="translate(284.3 278.8) rotate(0 -2 -1.7)" fill-rule="evenodd"><path d="M0 0 C0.5 0.2, 1.8 1.2, 2.7 1.3 C3.7 1.3, 5.3 0.9, 5.8 0.2 C6.3 -0.6, 6.4 -2.7, 5.7 -3.3 C5.1 -4, 3.8 -4.6, 1.9 -3.8 C-0 -3, -3.6 0.8, -5.6 1.6 C-7.7 2.4, -9.5 1.7, -10.4 0.8 C-11.3 -0.2, -11.6 -3, -11 -4 C-10.4 -5.1, -8.1 -5.6, -6.7 -5.4 C-5.3 -5.2, -3.3 -3.2, -2.7 -2.6 C-2.2 -2.1, -2.8 -1.6, -3.4 -1.9 C-4.1 -2.2, -5.6 -4.1, -6.7 -4.4 C-7.8 -4.8, -9.3 -4.4, -9.9 -3.9 C-10.5 -3.4, -10.5 -2.1, -10.3 -1.3 C-10 -0.5, -9.3 0.8, -8.3 1 C-7.4 1.2, -6.5 1, -4.8 0.1 C-3.1 -0.9, 0.1 -4.1, 1.9 -4.8 C3.7 -5.6, 5.2 -4.9, 6.1 -4.3 C6.9 -3.7, 7.1 -2.2, 7.1 -1.3 C7 -0.3, 6.7 0.8, 5.8 1.4 C5 1.9, 3.1 2.3, 1.8 2 C0.6 1.7, -1.2 0.2, -1.7 -0.3 C-2.2 -0.8, -1.5 -1, -1.2 -0.9 C-0.9 -0.9, -0.2 -0.2, 0 0" stroke="none" stroke-width="0" fill="#000000" fill-rule="evenodd"></path><path d="M0 0 C0.5 0.2, 1.8 1.2, 2.7 1.3 C3.7 1.3, 5.3 0.9, 5.8 0.2 C6.3 -0.6, 6.4 -2.7, 5.7 -3.3 C5.1 -4, 3.8 -4.6, 1.9 -3.8 C-0 -3, -3.6 0.8, -5.6 1.6 C-7.7 2.4, -9.5 1.7, -10.4 0.8 C-11.3 -0.2, -11.6 -3, -11 -4 C-10.4 -5.1, -8.1 -5.6, -6.7 -5.4 C-5.3 -5.2, -3.3 -3.2, -2.7 -2.6 C-2.2 -2.1, -2.8 -1.6, -3.4 -1.9 C-4.1 -2.2, -5.6 -4.1, -6.7 -4.4 C-7.8 -4.8, -9.3 -4.4, -9.9 -3.9 C-10.5 -3.4, -10.5 -2.1, -10.3 -1.3 C-10 -0.5, -9.3 0.8, -8.3 1 C-7.4 1.2, -6.5 1, -4.8 0.1 C-3.1 -0.9, 0.1 -4.1, 1.9 -4.8 C3.7 -5.6, 5.2 -4.9, 6.1 -4.3 C6.9 -3.7, 7.1 -2.2, 7.1 -1.3 C7 -0.3, 6.7 0.8, 5.8 1.4 C5 1.9, 3.1 2.3, 1.8 2 C0.6 1.7, -1.2 0.2, -1.7 -0.3 C-2.2 -0.8, -1.5 -1, -1.2 -0.9 C-0.9 -0.9, -0.2 -0.2, 0 0 M0 0 C0.5 0.2, 1.8 1.2, 2.7 1.3 C3.7 1.3, 5.3 0.9, 5.8 0.2 C6.3 -0.6, 6.4 -2.7, 5.7 -3.3 C5.1 -4, 3.8 -4.6, 1.9 -3.8 C-0 -3, -3.6 0.8, -5.6 1.6 C-7.7 2.4, -9.5 1.7, -10.4 0.8 C-11.3 -0.2, -11.6 -3, -11 -4 C-10.4 -5.1, -8.1 -5.6, -6.7 -5.4 C-5.3 -5.2, -3.3 -3.2, -2.7 -2.6 C-2.2 -2.1, -2.8 -1.6, -3.4 -1.9 C-4.1 -2.2, -5.6 -4.1, -6.7 -4.4 C-7.8 -4.8, -9.3 -4.4, -9.9 -3.9 C-10.5 -3.4, -10.5 -2.1, -10.3 -1.3 C-10 -0.5, -9.3 0.8, -8.3 1 C-7.4 1.2, -6.5 1, -4.8 0.1 C-3.1 -0.9, 0.1 -4.1, 1.9 -4.8 C3.7 -5.6, 5.2 -4.9, 6.1 -4.3 C6.9 -3.7, 7.1 -2.2, 7.1 -1.3 C7 -0.3, 6.7 0.8, 5.8 1.4 C5 1.9, 3.1 2.3, 1.8 2 C0.6 1.7, -1.2 0.2, -1.7 -0.3 C-2.2 -0.8, -1.5 -1, -1.2 -0.9 C-0.9 -0.9, -0.2 -0.2, 0 0" stroke="#ffffff" stroke-width="1" fill="none"></path></g></g><mask></mask><g stroke-linecap="round"><g transform="translate(216.9 169.5) rotate(0 3 7.2)" fill-rule="evenodd"><path d="M0 0 C0.1 0.1, 0 0.6, 0.5 0.6 C0.9 0.7, 1.8 -0.3, 2.8 0.2 C3.7 0.7, 5.3 2.1, 5.9 3.6 C6.6 5.1, 6.7 7.8, 6.5 9.4 C6.3 11, 5.8 12.7, 4.8 13.4 C3.9 14.1, 1.7 14.1, 0.9 13.6 C0.1 13.2, -0.1 11.3, 0 10.5 C0.1 9.6, 0.8 8.8, 1.5 8.7 C2.3 8.5, 3.8 9.3, 4.4 9.5 C5.1 9.7, 5.3 9.8, 5.5 9.7 C5.7 9.6, 6.2 9, 5.5 8.7 C4.8 8.3, 2.6 7.7, 1.6 7.8 C0.6 7.8, -0.1 8.3, -0.5 8.9 C-0.9 9.6, -1 10.8, -0.9 11.8 C-0.7 12.7, -0.4 14.1, 0.4 14.6 C1.1 15.2, 2.5 15.4, 3.6 15 C4.7 14.6, 6.4 13.8, 7 12.1 C7.5 10.4, 7.5 6.8, 6.9 4.7 C6.4 2.7, 4.4 0.7, 3.5 -0.2 C2.5 -1.1, 1.8 -0.6, 1.2 -0.5 C0.6 -0.5, 0.2 -0.1, 0 0" stroke="none" stroke-width="0" fill="#000000" fill-rule="evenodd"></path><path d="M0 0 C0.1 0.1, 0 0.6, 0.5 0.6 C0.9 0.7, 1.8 -0.3, 2.8 0.2 C3.7 0.7, 5.3 2.1, 5.9 3.6 C6.6 5.1, 6.7 7.8, 6.5 9.4 C6.3 11, 5.8 12.7, 4.8 13.4 C3.9 14.1, 1.7 14.1, 0.9 13.6 C0.1 13.2, -0.1 11.3, 0 10.5 C0.1 9.6, 0.8 8.8, 1.5 8.7 C2.3 8.5, 3.8 9.3, 4.4 9.5 C5.1 9.7, 5.3 9.8, 5.5 9.7 C5.7 9.6, 6.2 9, 5.5 8.7 C4.8 8.3, 2.6 7.7, 1.6 7.8 C0.6 7.8, -0.1 8.3, -0.5 8.9 C-0.9 9.6, -1 10.8, -0.9 11.8 C-0.7 12.7, -0.4 14.1, 0.4 14.6 C1.1 15.2, 2.5 15.4, 3.6 15 C4.7 14.6, 6.4 13.8, 7 12.1 C7.5 10.4, 7.5 6.8, 6.9 4.7 C6.4 2.7, 4.4 0.7, 3.5 -0.2 C2.5 -1.1, 1.8 -0.6, 1.2 -0.5 C0.6 -0.5, 0.2 -0.1, 0 0 M0 0 C0.1 0.1, 0 0.6, 0.5 0.6 C0.9 0.7, 1.8 -0.3, 2.8 0.2 C3.7 0.7, 5.3 2.1, 5.9 3.6 C6.6 5.1, 6.7 7.8, 6.5 9.4 C6.3 11, 5.8 12.7, 4.8 13.4 C3.9 14.1, 1.7 14.1, 0.9 13.6 C0.1 13.2, -0.1 11.3, 0 10.5 C0.1 9.6, 0.8 8.8, 1.5 8.7 C2.3 8.5, 3.8 9.3, 4.4 9.5 C5.1 9.7, 5.3 9.8, 5.5 9.7 C5.7 9.6, 6.2 9, 5.5 8.7 C4.8 8.3, 2.6 7.7, 1.6 7.8 C0.6 7.8, -0.1 8.3, -0.5 8.9 C-0.9 9.6, -1 10.8, -0.9 11.8 C-0.7 12.7, -0.4 14.1, 0.4 14.6 C1.1 15.2, 2.5 15.4, 3.6 15 C4.7 14.6, 6.4 13.8, 7 12.1 C7.5 10.4, 7.5 6.8, 6.9 4.7 C6.4 2.7, 4.4 0.7, 3.5 -0.2 C2.5 -1.1, 1.8 -0.6, 1.2 -0.5 C0.6 -0.5, 0.2 -0.1, 0 0" stroke="#ffffff" stroke-width="1" fill="none"></path></g></g><mask></mask><g transform="translate(227.7 169.5) rotate(0 4 10)"><text x="4" y="14.1" font-family="Excalifont" font-size="16px" fill="#ffffff" text-anchor="middle" style="white-space: pre;" direction="ltr" dominant-baseline="alphabetic">f</text></g><g stroke-linecap="round"><g transform="translate(211.5 193.3) rotate(0 11.2 0)"><path d="M0 0 C3.7 0, 18.6 0, 22.4 0 M0 0 C3.7 0, 18.6 0, 22.4 0" stroke="#ffffff" stroke-width="2" fill="none"></path></g></g><mask></mask><g stroke-linecap="round"><g transform="translate(218.3 196.9) rotate(0 3 7.2)" fill-rule="evenodd"><path d="M0 0 C0.1 0.1, 0 0.6, 0.5 0.6 C0.9 0.7, 1.8 -0.3, 2.8 0.2 C3.7 0.7, 5.3 2.1, 5.9 3.6 C6.6 5.1, 6.7 7.8, 6.5 9.4 C6.3 11, 5.8 12.7, 4.8 13.4 C3.9 14.1, 1.7 14.1, 0.9 13.6 C0.1 13.2, -0.1 11.3, 0 10.5 C0.1 9.6, 0.8 8.8, 1.5 8.7 C2.3 8.5, 3.8 9.3, 4.4 9.5 C5.1 9.7, 5.3 9.8, 5.5 9.7 C5.7 9.6, 6.2 9, 5.5 8.7 C4.8 8.3, 2.6 7.7, 1.6 7.8 C0.6 7.8, -0.1 8.3, -0.5 8.9 C-0.9 9.6, -1 10.8, -0.9 11.8 C-0.7 12.7, -0.4 14.1, 0.4 14.6 C1.1 15.2, 2.5 15.4, 3.6 15 C4.7 14.6, 6.4 13.8, 7 12.1 C7.5 10.4, 7.5 6.8, 6.9 4.7 C6.4 2.7, 4.4 0.7, 3.5 -0.2 C2.5 -1.1, 1.8 -0.6, 1.2 -0.5 C0.6 -0.5, 0.2 -0.1, 0 0" stroke="none" stroke-width="0" fill="#000000" fill-rule="evenodd"></path><path d="M0 0 C0.1 0.1, 0 0.6, 0.5 0.6 C0.9 0.7, 1.8 -0.3, 2.8 0.2 C3.7 0.7, 5.3 2.1, 5.9 3.6 C6.6 5.1, 6.7 7.8, 6.5 9.4 C6.3 11, 5.8 12.7, 4.8 13.4 C3.9 14.1, 1.7 14.1, 0.9 13.6 C0.1 13.2, -0.1 11.3, 0 10.5 C0.1 9.6, 0.8 8.8, 1.5 8.7 C2.3 8.5, 3.8 9.3, 4.4 9.5 C5.1 9.7, 5.3 9.8, 5.5 9.7 C5.7 9.6, 6.2 9, 5.5 8.7 C4.8 8.3, 2.6 7.7, 1.6 7.8 C0.6 7.8, -0.1 8.3, -0.5 8.9 C-0.9 9.6, -1 10.8, -0.9 11.8 C-0.7 12.7, -0.4 14.1, 0.4 14.6 C1.1 15.2, 2.5 15.4, 3.6 15 C4.7 14.6, 6.4 13.8, 7 12.1 C7.5 10.4, 7.5 6.8, 6.9 4.7 C6.4 2.7, 4.4 0.7, 3.5 -0.2 C2.5 -1.1, 1.8 -0.6, 1.2 -0.5 C0.6 -0.5, 0.2 -0.1, 0 0 M0 0 C0.1 0.1, 0 0.6, 0.5 0.6 C0.9 0.7, 1.8 -0.3, 2.8 0.2 C3.7 0.7, 5.3 2.1, 5.9 3.6 C6.6 5.1, 6.7 7.8, 6.5 9.4 C6.3 11, 5.8 12.7, 4.8 13.4 C3.9 14.1, 1.7 14.1, 0.9 13.6 C0.1 13.2, -0.1 11.3, 0 10.5 C0.1 9.6, 0.8 8.8, 1.5 8.7 C2.3 8.5, 3.8 9.3, 4.4 9.5 C5.1 9.7, 5.3 9.8, 5.5 9.7 C5.7 9.6, 6.2 9, 5.5 8.7 C4.8 8.3, 2.6 7.7, 1.6 7.8 C0.6 7.8, -0.1 8.3, -0.5 8.9 C-0.9 9.6, -1 10.8, -0.9 11.8 C-0.7 12.7, -0.4 14.1, 0.4 14.6 C1.1 15.2, 2.5 15.4, 3.6 15 C4.7 14.6, 6.4 13.8, 7 12.1 C7.5 10.4, 7.5 6.8, 6.9 4.7 C6.4 2.7, 4.4 0.7, 3.5 -0.2 C2.5 -1.1, 1.8 -0.6, 1.2 -0.5 C0.6 -0.5, 0.2 -0.1, 0 0" stroke="#ffffff" stroke-width="1" fill="none"></path></g></g><mask></mask><g transform="translate(230.9 196.5) rotate(0 4.4 10)"><text x="4.4" y="14.1" font-family="Excalifont" font-size="16px" fill="#ffffff" text-anchor="middle" style="white-space: pre;" direction="ltr" dominant-baseline="alphabetic">t</text></g><g stroke-linecap="round"><g transform="translate(555.2 256) rotate(0 -0.4 4.4)" fill-rule="evenodd"><path d="M0 0 C-0.5 0.2, -2.5 0.5, -3.2 1.3 C-3.9 2.2, -4.2 3.9, -3.9 5.1 C-3.6 6.3, -2.5 8, -1.4 8.6 C-0.2 9.2, 2.4 8.8, 3.2 8.8 C3.9 8.7, 3.7 8.4, 3.1 8.3 C2.5 8.3, 0.5 8.5, -0.4 8.4 C-1.2 8.2, -1.5 8, -2 7.5 C-2.5 7, -3.1 5.8, -3.2 5.4 C-3.3 5, -3.4 5.2, -2.5 5 C-1.6 4.9, 1.3 4.8, 2 4.7 C2.8 4.5, 2.7 4.2, 1.9 4.2 C1.2 4.2, -1.5 4.5, -2.4 4.5 C-3.3 4.5, -3.4 4.7, -3.4 4.2 C-3.5 3.7, -3.2 2.1, -2.6 1.5 C-2 0.9, -0.8 0.7, 0.1 0.5 C1.1 0.4, 2.5 0.6, 2.9 0.5 C3.4 0.4, 3.1 0.2, 3 0.1 C2.8 0.1, 2.3 0, 1.8 -0 C1.3 -0.1, 0.3 0, 0 0" stroke="none" stroke-width="0" fill="#000000" fill-rule="evenodd"></path><path d="M0 0 C-0.5 0.2, -2.5 0.5, -3.2 1.3 C-3.9 2.2, -4.2 3.9, -3.9 5.1 C-3.6 6.3, -2.5 8, -1.4 8.6 C-0.2 9.2, 2.4 8.8, 3.2 8.8 C3.9 8.7, 3.7 8.4, 3.1 8.3 C2.5 8.3, 0.5 8.5, -0.4 8.4 C-1.2 8.2, -1.5 8, -2 7.5 C-2.5 7, -3.1 5.8, -3.2 5.4 C-3.3 5, -3.4 5.2, -2.5 5 C-1.6 4.9, 1.3 4.8, 2 4.7 C2.8 4.5, 2.7 4.2, 1.9 4.2 C1.2 4.2, -1.5 4.5, -2.4 4.5 C-3.3 4.5, -3.4 4.7, -3.4 4.2 C-3.5 3.7, -3.2 2.1, -2.6 1.5 C-2 0.9, -0.8 0.7, 0.1 0.5 C1.1 0.4, 2.5 0.6, 2.9 0.5 C3.4 0.4, 3.1 0.2, 3 0.1 C2.8 0.1, 2.3 0, 1.8 -0 C1.3 -0.1, 0.3 0, 0 0 M0 0 C-0.5 0.2, -2.5 0.5, -3.2 1.3 C-3.9 2.2, -4.2 3.9, -3.9 5.1 C-3.6 6.3, -2.5 8, -1.4 8.6 C-0.2 9.2, 2.4 8.8, 3.2 8.8 C3.9 8.7, 3.7 8.4, 3.1 8.3 C2.5 8.3, 0.5 8.5, -0.4 8.4 C-1.2 8.2, -1.5 8, -2 7.5 C-2.5 7, -3.1 5.8, -3.2 5.4 C-3.3 5, -3.4 5.2, -2.5 5 C-1.6 4.9, 1.3 4.8, 2 4.7 C2.8 4.5, 2.7 4.2, 1.9 4.2 C1.2 4.2, -1.5 4.5, -2.4 4.5 C-3.3 4.5, -3.4 4.7, -3.4 4.2 C-3.5 3.7, -3.2 2.1, -2.6 1.5 C-2 0.9, -0.8 0.7, 0.1 0.5 C1.1 0.4, 2.5 0.6, 2.9 0.5 C3.4 0.4, 3.1 0.2, 3 0.1 C2.8 0.1, 2.3 0, 1.8 -0 C1.3 -0.1, 0.3 0, 0 0" stroke="#ffffff" stroke-width="1" fill="none"></path></g></g><mask></mask><g transform="translate(579 247.8) rotate(0 2.5 5.4)"><text x="2.5" y="7.6" font-family="Excalifont" font-size="8.631169783374938px" fill="#ffffff" text-anchor="middle" style="white-space: pre;" direction="ltr" dominant-baseline="alphabetic">4</text></g><g transform="translate(505.4 303) rotate(0 19.9 15.4)"><text x="19.9" y="21.8" font-family="Excalifont" font-size="24.695219655617603px" fill="#ffffff" text-anchor="middle" style="white-space: pre;" direction="ltr" dominant-baseline="alphabetic">= 0</text></g><g stroke-linecap="round"><g transform="translate(284.5 342) rotate(0 -2 -1.7)" fill-rule="evenodd"><path d="M0 0 C0.5 0.2, 1.8 1.2, 2.7 1.3 C3.7 1.3, 5.3 0.9, 5.8 0.2 C6.3 -0.6, 6.4 -2.7, 5.7 -3.3 C5.1 -4, 3.8 -4.6, 1.9 -3.8 C-0 -3, -3.6 0.8, -5.6 1.6 C-7.7 2.4, -9.5 1.7, -10.4 0.8 C-11.3 -0.2, -11.6 -3, -11 -4 C-10.4 -5.1, -8.1 -5.6, -6.7 -5.4 C-5.3 -5.2, -3.3 -3.2, -2.7 -2.6 C-2.2 -2.1, -2.8 -1.6, -3.4 -1.9 C-4.1 -2.2, -5.6 -4.1, -6.7 -4.4 C-7.8 -4.8, -9.3 -4.4, -9.9 -3.9 C-10.5 -3.4, -10.5 -2.1, -10.3 -1.3 C-10 -0.5, -9.3 0.8, -8.3 1 C-7.4 1.2, -6.5 1, -4.8 0.1 C-3.1 -0.9, 0.1 -4.1, 1.9 -4.8 C3.7 -5.6, 5.2 -4.9, 6.1 -4.3 C6.9 -3.7, 7.1 -2.2, 7.1 -1.3 C7 -0.3, 6.7 0.8, 5.8 1.4 C5 1.9, 3.1 2.3, 1.8 2 C0.6 1.7, -1.2 0.2, -1.7 -0.3 C-2.2 -0.8, -1.5 -1, -1.2 -0.9 C-0.9 -0.9, -0.2 -0.2, 0 0" stroke="none" stroke-width="0" fill="#000000" fill-rule="evenodd"></path><path d="M0 0 C0.5 0.2, 1.8 1.2, 2.7 1.3 C3.7 1.3, 5.3 0.9, 5.8 0.2 C6.3 -0.6, 6.4 -2.7, 5.7 -3.3 C5.1 -4, 3.8 -4.6, 1.9 -3.8 C-0 -3, -3.6 0.8, -5.6 1.6 C-7.7 2.4, -9.5 1.7, -10.4 0.8 C-11.3 -0.2, -11.6 -3, -11 -4 C-10.4 -5.1, -8.1 -5.6, -6.7 -5.4 C-5.3 -5.2, -3.3 -3.2, -2.7 -2.6 C-2.2 -2.1, -2.8 -1.6, -3.4 -1.9 C-4.1 -2.2, -5.6 -4.1, -6.7 -4.4 C-7.8 -4.8, -9.3 -4.4, -9.9 -3.9 C-10.5 -3.4, -10.5 -2.1, -10.3 -1.3 C-10 -0.5, -9.3 0.8, -8.3 1 C-7.4 1.2, -6.5 1, -4.8 0.1 C-3.1 -0.9, 0.1 -4.1, 1.9 -4.8 C3.7 -5.6, 5.2 -4.9, 6.1 -4.3 C6.9 -3.7, 7.1 -2.2, 7.1 -1.3 C7 -0.3, 6.7 0.8, 5.8 1.4 C5 1.9, 3.1 2.3, 1.8 2 C0.6 1.7, -1.2 0.2, -1.7 -0.3 C-2.2 -0.8, -1.5 -1, -1.2 -0.9 C-0.9 -0.9, -0.2 -0.2, 0 0 M0 0 C0.5 0.2, 1.8 1.2, 2.7 1.3 C3.7 1.3, 5.3 0.9, 5.8 0.2 C6.3 -0.6, 6.4 -2.7, 5.7 -3.3 C5.1 -4, 3.8 -4.6, 1.9 -3.8 C-0 -3, -3.6 0.8, -5.6 1.6 C-7.7 2.4, -9.5 1.7, -10.4 0.8 C-11.3 -0.2, -11.6 -3, -11 -4 C-10.4 -5.1, -8.1 -5.6, -6.7 -5.4 C-5.3 -5.2, -3.3 -3.2, -2.7 -2.6 C-2.2 -2.1, -2.8 -1.6, -3.4 -1.9 C-4.1 -2.2, -5.6 -4.1, -6.7 -4.4 C-7.8 -4.8, -9.3 -4.4, -9.9 -3.9 C-10.5 -3.4, -10.5 -2.1, -10.3 -1.3 C-10 -0.5, -9.3 0.8, -8.3 1 C-7.4 1.2, -6.5 1, -4.8 0.1 C-3.1 -0.9, 0.1 -4.1, 1.9 -4.8 C3.7 -5.6, 5.2 -4.9, 6.1 -4.3 C6.9 -3.7, 7.1 -2.2, 7.1 -1.3 C7 -0.3, 6.7 0.8, 5.8 1.4 C5 1.9, 3.1 2.3, 1.8 2 C0.6 1.7, -1.2 0.2, -1.7 -0.3 C-2.2 -0.8, -1.5 -1, -1.2 -0.9 C-0.9 -0.9, -0.2 -0.2, 0 0" stroke="#ffffff" stroke-width="1" fill="none"></path></g></g><mask></mask><g transform="translate(261.7 329) rotate(0 3.3 10)"><text x="3.3" y="14.1" font-family="Excalifont" font-size="16px" fill="#ffffff" text-anchor="middle" style="white-space: pre;" direction="ltr" dominant-baseline="alphabetic">-</text></g></svg>